<?xml version="1.0" encoding="UTF-8"?>
<svg version="1.1" xmlns="http://www.w3.org/2000/svg" width="1280" height="714">
<path d="M0 0 C0.68960237 -0.00226556 1.37920474 -0.00453111 2.08970416 -0.00686532 C4.38791455 -0.01316796 6.6860654 -0.01237838 8.98428345 -0.0115509 C10.63719254 -0.01454471 12.29010094 -0.01794775 13.94300842 -0.02172852 C18.42445606 -0.03054971 22.90588459 -0.03290583 27.38734007 -0.0335443 C30.18920432 -0.03425582 32.99106374 -0.03639205 35.79292679 -0.03904152 C45.57334959 -0.04828838 55.35375877 -0.05237719 65.13418579 -0.05158997 C74.24208552 -0.05098919 83.34992602 -0.06154261 92.45781076 -0.07733363 C100.28559566 -0.09042026 108.11336123 -0.0957734 115.94115698 -0.09513456 C120.61274336 -0.09487992 125.28427706 -0.09771223 129.95585251 -0.10831261 C134.3504238 -0.11801259 138.74489227 -0.11805975 143.13946724 -0.11079597 C144.74867084 -0.10975253 146.35788091 -0.11209873 147.96707344 -0.11815643 C161.95960653 -0.16740271 174.49175521 1.40051662 185.2562561 11.27433777 C194.91491746 22.09203848 198.06005456 33.75145421 198.07754517 47.8959198 C198.08251007 48.86263107 198.08747498 49.82934235 198.09259033 50.8253479 C198.10715848 54.01408103 198.11400588 57.20276437 198.11953735 60.39152527 C198.12529422 62.61864726 198.13105189 64.84576925 198.1368103 67.07289124 C198.14730581 71.74160492 198.15315763 76.41030146 198.15664673 81.07902527 C198.16212124 87.03702233 198.18613331 92.9947897 198.21461868 98.95271492 C198.23332196 103.55462792 198.2384548 108.15648651 198.2399826 112.7584343 C198.24299349 114.95348742 198.25096861 117.14853995 198.26416779 119.34355545 C198.36279056 137.00864598 197.76367863 152.48985481 185.1859436 166.02433777 C175.40415208 175.11584796 163.17169169 178.36467587 150.09780884 178.18034363 C148.52281439 178.16757569 146.94781726 178.15513452 145.37281799 178.14297485 C144.54481123 178.13505857 143.71680447 178.1271423 142.86370659 178.11898613 C137.51095096 178.07653807 132.1579596 178.08871418 126.80506802 178.08887386 C122.11856238 178.08588192 117.43339007 178.06529072 112.7472229 178.00700378 C108.19440206 177.9514505 103.643802 177.94550652 99.09074593 177.97169685 C97.36814581 177.97292154 95.64543144 177.95672492 93.92318535 177.92178154 C80.90977434 177.67176186 74.46126034 180.1493217 64.91641235 189.13371277 C63.38997899 190.32065353 61.85065441 191.49165251 60.2875061 192.62980652 C59.62557251 193.12545105 58.96363892 193.62109558 58.28164673 194.13175964 C57.64549438 194.60677917 57.00934204 195.08179871 56.35391235 195.57121277 C55.68295532 196.07330261 55.01199829 196.57539246 54.32070923 197.09269714 C53.05806675 198.03748909 51.79433052 198.98082214 50.52920532 199.92228699 C49.19709651 200.92288098 47.88410597 201.9488729 46.5765686 202.98136902 C44.91641235 204.13371277 44.91641235 204.13371277 42.91641235 204.13371277 C42.91641235 204.79371277 42.91641235 205.45371277 42.91641235 206.13371277 C38.27098769 210.27396122 33.38035794 213.01351192 27.1156311 213.29777527 C21.70038236 212.89379579 17.57355314 211.26394474 13.97891235 207.13371277 C11.23783498 203.14669113 10.79267214 200.53069169 10.8187561 195.80949402 C10.82197876 194.78146667 10.82520142 193.75343933 10.82852173 192.69425964 C10.84109009 191.08647644 10.84109009 191.08647644 10.85391235 189.44621277 C10.85842407 188.36275574 10.86293579 187.27929871 10.86758423 186.16300964 C10.87937492 183.48652192 10.89583172 180.810145 10.91641235 178.13371277 C9.98442017 178.16851746 9.05242798 178.20332214 8.0921936 178.23918152 C-7.92026872 178.57918325 -21.02584702 175.59066477 -33.0093689 164.42277527 C-45.302624 150.85620749 -44.52683501 133.50941144 -44.4468689 116.40324402 C-44.44634933 114.19993083 -44.44687076 111.99661718 -44.44837952 109.79330444 C-44.44829021 105.19487002 -44.43794289 100.59661243 -44.41976929 95.99821472 C-44.39704364 90.12083213 -44.39654986 84.24370648 -44.40328693 78.366292 C-44.40663629 73.82368712 -44.39997925 69.28114023 -44.3901577 64.73854637 C-44.38632512 62.57173148 -44.38514937 60.40491012 -44.38674355 58.23809242 C-44.38711662 55.20683726 -44.37442755 52.17590541 -44.35824585 49.1446991 C-44.36072327 48.26083527 -44.36320068 47.37697144 -44.36575317 46.46632385 C-44.25422521 33.29912844 -40.41465652 20.71361015 -31.08358765 11.13371277 C-21.64939086 3.20775625 -12.30281824 0.01675761 0 0 Z M-5.89608765 39.32121277 C-10.08998168 44.71336224 -10.33395277 51.05838852 -10.32650757 57.69206238 C-10.32840591 58.40053818 -10.33030426 59.10901398 -10.33226013 59.83895874 C-10.33593065 62.15477473 -10.32531498 64.47026893 -10.3140564 66.78605652 C-10.31286206 68.41215986 -10.31241197 70.03826391 -10.31266785 71.66436768 C-10.31110925 75.06264097 -10.30286889 78.460808 -10.28939819 81.85905457 C-10.2724231 86.19400612 -10.26858396 90.52884107 -10.26934338 94.86382198 C-10.26907015 98.21917819 -10.26356428 101.57450941 -10.25634193 104.92985725 C-10.25318132 106.5272916 -10.25119402 108.12472876 -10.25044823 109.72216606 C-10.96535819 124.92969434 -10.96535819 124.92969434 -5.7281189 138.62590027 C-1.16294569 142.81154601 3.74739931 143.59017995 9.72109985 143.64543152 C10.80706955 143.67235832 10.80706955 143.67235832 11.91497803 143.6998291 C14.20706512 143.75362415 16.49894776 143.78772679 18.79141235 143.82121277 C20.35394062 143.85441326 21.91644201 143.88890542 23.47891235 143.92472839 C27.2914367 144.01174461 31.10305728 144.07206991 34.91641235 144.13371277 C35.24641235 152.71371277 35.57641235 161.29371277 35.91641235 170.13371277 C38.98480181 168.29267909 41.71509029 166.62610069 44.51797485 164.49699402 C45.49262695 163.76017395 45.49262695 163.76017395 46.48696899 163.00846863 C47.1649353 162.49292419 47.84290161 161.97737976 48.54141235 161.44621277 C49.96949997 160.37029655 51.39788652 159.294777 52.8265686 158.21965027 C54.75908705 156.76254656 56.69101279 155.30475012 58.61904907 153.84172058 C60.0673054 152.74487603 61.52286556 151.65769429 62.97891235 150.57121277 C63.77426392 149.97179871 64.56961548 149.37238464 65.3890686 148.75480652 C71.13001497 145.07243752 75.85898835 143.68818 82.65249634 143.78068542 C83.7612915 143.77744514 83.7612915 143.77744514 84.89248657 143.7741394 C86.48568716 143.77106918 88.07891176 143.77460847 89.67208672 143.78415298 C92.19967458 143.79797858 94.72648495 143.79140305 97.2540741 143.77931213 C104.43592592 143.74847107 111.61759221 143.75320642 118.79946899 143.77336121 C123.20385183 143.78431289 127.60764806 143.7710191 132.01194954 143.74346542 C133.68277691 143.73804708 135.35366377 143.74203177 137.02444267 143.75586319 C148.44476184 144.09966735 148.44476184 144.09966735 158.58818054 139.45655823 C163.21853491 134.84498125 164.02154099 130.10033925 164.06304932 123.786026 C164.06259613 123.0851889 164.06214294 122.38435181 164.06167603 121.66227722 C164.06503464 120.91537125 164.06839325 120.16846527 164.07185364 119.39892578 C164.08134531 116.93159822 164.08330616 114.4643387 164.0843811 111.99699402 C164.087596 110.27549207 164.09096025 108.55399039 164.09446716 106.83248901 C164.10045474 103.22203438 164.10230755 99.61160366 164.10171509 96.00114441 C164.10161373 91.39251838 164.11523978 86.78404734 164.1324873 82.17545795 C164.14365263 78.61764839 164.14563287 75.05987568 164.14510536 71.5020504 C164.14627966 69.80412959 164.15067029 68.10620766 164.15843773 66.40830421 C164.8864272 51.94130237 164.8864272 51.94130237 159.47891235 39.19621277 C153.90629901 34.71093861 149.88597319 34.01307743 142.85748291 33.99327087 C141.0322686 33.98470566 141.0322686 33.98470566 139.17018127 33.97596741 C137.82989512 33.97472223 136.48960885 33.9735971 135.14932251 33.97257996 C133.73138806 33.96794833 132.31345485 33.9629232 130.89552307 33.95753479 C127.05043091 33.94444402 123.20535618 33.93797261 119.36024523 33.93352413 C116.95622939 33.93058869 114.55221826 33.92648305 112.1482048 33.92201996 C104.62131226 33.90835523 97.09443055 33.89868295 89.56752646 33.89481807 C80.8881803 33.89033643 72.20899155 33.87277938 63.52969325 33.84381747 C56.81361178 33.82218665 50.09757456 33.81211308 43.38145864 33.81077695 C39.3732792 33.80973014 35.36524793 33.80384854 31.35710526 33.78595734 C27.58629438 33.76945182 23.81574271 33.76733305 20.04490852 33.77609634 C18.66426333 33.77686533 17.28360404 33.77254221 15.90299416 33.76263809 C7.19850447 33.70387621 1.13450649 33.85297289 -5.89608765 39.32121277 Z " fill="#E22729" transform="translate(563.0835876464844,238.8662872314453)"/>
<path d="M0 0 C0.98484375 -0.03738281 1.9696875 -0.07476562 2.984375 -0.11328125 C10.88370669 0.91665554 16.19174652 5.67622736 21.58398438 11.19238281 C22.6098616 12.21738388 22.6098616 12.21738388 23.65646362 13.26309204 C25.89518287 15.50457867 28.11943013 17.75985645 30.34375 20.015625 C31.90085647 21.58019859 33.4588535 23.14388633 35.0177002 24.70672607 C39.10361238 28.80785722 43.17736527 32.92086052 47.24865723 37.03649902 C52.1438357 41.9799341 57.05406677 46.90841299 61.96176147 51.8394165 C69.40273517 59.31908273 76.82439949 66.81742921 84.25 74.3125 C84.58 50.8825 84.91 27.4525 85.25 3.3125 C85.91 2.9825 86.57 2.6525 87.25 2.3125 C98.01160309 5.97144505 107.0308814 14.25620735 112.82421875 23.9453125 C118.90820224 36.47868389 119.6908734 49.10233553 119.578125 62.734375 C119.57505966 64.37249578 119.57318944 66.01061919 119.57244873 67.64874268 C119.56788525 71.05076353 119.55360065 74.45254241 119.53125 77.85449219 C119.50269892 82.22260276 119.49200721 86.59052608 119.4875679 90.95872116 C119.48342557 94.3266182 119.47362248 97.69447729 119.46169281 101.06235504 C119.45598894 102.67477364 119.45123062 104.28719586 119.44742584 105.89962006 C119.44059152 108.13724819 119.42698006 110.37472457 119.41113281 112.61230469 C119.40089081 114.52206085 119.40089081 114.52206085 119.39044189 116.47039795 C119.25 119.3125 119.25 119.3125 118.25 120.3125 C113.24859717 120.65381671 108.24497518 120.71231715 103.2331543 120.77246094 C101.54829313 120.7989611 99.86359078 120.83976848 98.17944336 120.89550781 C95.74266416 120.97520545 93.30899057 121.00786655 90.87109375 121.03125 C90.12806503 121.06424194 89.38503632 121.09723389 88.61949158 121.13122559 C84.16382472 121.11445131 81.77898438 120.26845601 78.47177124 117.24180603 C77.77540401 116.60622458 77.07903677 115.97064312 76.3615675 115.31580162 C73.01788874 112.14356247 69.74344092 108.91215253 66.50463867 105.63305664 C65.41283798 104.53424667 65.41283798 104.53424667 64.29898071 103.41323853 C62.73363048 101.83745999 61.16938794 100.26058044 59.60616112 98.68269539 C57.13365991 96.18803999 54.65709657 93.69748554 52.17927551 91.20811462 C45.14005511 84.13540404 38.10516249 77.05843116 31.08032227 69.97143555 C26.77219152 65.62576698 22.45687072 61.28735267 18.13677406 56.95358086 C16.49250817 55.30124331 14.85102742 53.64612949 13.21236229 51.98823738 C10.93114669 49.68069426 8.64093878 47.38245608 6.34838867 45.08618164 C5.67043747 44.39587357 4.99248627 43.70556549 4.29399109 42.99433899 C3.67036682 42.37339355 3.04674255 41.75244812 2.40422058 41.11268616 C1.86430072 40.5687021 1.32438086 40.02471804 0.76809978 39.46424961 C-0.83074143 38.01029215 -0.83074143 38.01029215 -3.75 38.3125 C-8.90352811 46.06972699 -8.35464512 54.10187813 -8.359375 63.0625 C-8.37437282 64.68776077 -8.39110331 66.3130064 -8.40948486 67.93823242 C-8.45299131 72.19277689 -8.47312012 76.44711581 -8.48822021 80.70184326 C-8.50785191 85.0526537 -8.54981491 89.40324412 -8.58984375 93.75390625 C-8.66496465 102.27337965 -8.71536538 110.79276622 -8.75 119.3125 C-11.71250087 120.79375044 -14.38912895 120.44240684 -17.69140625 120.4453125 C-18.37428207 120.44626923 -19.0571579 120.44722595 -19.76072693 120.44821167 C-21.20401095 120.44889223 -22.64729803 120.4470466 -24.09057617 120.44287109 C-26.30719828 120.43751282 -28.52361852 120.44282443 -30.74023438 120.44921875 C-32.14062545 120.44855811 -33.5410164 120.44727723 -34.94140625 120.4453125 C-36.86255249 120.44362061 -36.86255249 120.44362061 -38.82250977 120.44189453 C-41.75 120.3125 -41.75 120.3125 -42.75 119.3125 C-42.85494646 117.09578592 -42.88857376 114.875681 -42.89526367 112.65649414 C-42.89862228 111.96040039 -42.9019809 111.26430664 -42.90544128 110.54711914 C-42.91498844 108.23061362 -42.9168971 105.91418026 -42.91796875 103.59765625 C-42.92118171 101.98636342 -42.92454582 100.37507089 -42.92805481 98.76377869 C-42.93405755 95.37498297 -42.93589384 91.98621277 -42.93530273 88.59741211 C-42.93520173 84.27689142 -42.94878475 79.95653735 -42.96607494 75.63605595 C-42.97726122 72.30123664 -42.97921982 68.96645655 -42.97869301 65.63162041 C-42.97986582 64.04058705 -42.98424795 62.44955245 -42.99202538 60.85853767 C-43.07600245 41.88362248 -39.84998308 25.95007209 -26.625 11.625 C-19.28901436 4.51320408 -10.19956493 0.25102556 0 0 Z " fill="#E12829" transform="translate(601.75,107.6875)"/>
<path d="M0 0 C0.88494141 -0.01224609 1.76988281 -0.02449219 2.68164062 -0.03710938 C3.52791016 -0.03904297 4.37417969 -0.04097656 5.24609375 -0.04296875 C6.02525146 -0.04707764 6.80440918 -0.05118652 7.60717773 -0.05541992 C9.5625 0.1875 9.5625 0.1875 11.5625 2.1875 C12.42055679 4.76538089 13.19004691 7.3171806 13.91015625 9.93359375 C14.12691513 10.70051041 14.34367401 11.46742706 14.56700134 12.25758362 C15.25922701 14.71168795 15.94230981 17.16822783 16.625 19.625 C17.31328429 22.07759836 18.00338921 24.52967899 18.69371033 26.98170471 C19.1227188 28.50821489 19.55015137 30.03516901 19.97584534 31.56260681 C20.7843764 34.45999553 21.61106615 37.33319844 22.5625 40.1875 C22.81942627 39.32584229 23.07635254 38.46418457 23.34106445 37.57641602 C24.30720539 34.33876749 25.27464164 31.10151163 26.24291992 27.86450195 C26.65944451 26.47109931 27.07547221 25.07754802 27.4909668 23.68383789 C34.04414302 1.70585698 34.04414302 1.70585698 35.5625 0.1875 C38.53710404 -0.0194804 41.45981584 -0.13703078 44.4375 -0.1875 C45.68080078 -0.24357422 45.68080078 -0.24357422 46.94921875 -0.30078125 C48.14611328 -0.31818359 48.14611328 -0.31818359 49.3671875 -0.3359375 C50.46522705 -0.3656665 50.46522705 -0.3656665 51.58544922 -0.39599609 C53.5625 0.1875 53.5625 0.1875 55.171875 2.24072266 C56.80249488 5.69605658 57.95072043 9.19926487 59.0078125 12.859375 C59.22315643 13.58239807 59.43850037 14.30542114 59.66036987 15.050354 C60.34261945 17.34419308 61.01562506 19.64060281 61.6875 21.9375 C62.36781359 24.24826168 63.05010238 26.55839807 63.73605347 28.86749268 C64.16145373 30.3009629 64.58336909 31.73547273 65.00149536 33.17108154 C65.78041096 36.44602979 65.78041096 36.44602979 67.5625 39.1875 C67.77003906 38.4553125 67.97757813 37.723125 68.19140625 36.96875 C69.3092362 33.03997528 70.43509414 29.11353411 71.5625 25.1875 C71.84641602 24.19669434 72.13033203 23.20588867 72.42285156 22.18505859 C73.36167016 18.91400138 74.3053962 15.64439083 75.25 12.375 C75.55945557 11.29476563 75.86891113 10.21453125 76.18774414 9.1015625 C76.48028076 8.09222656 76.77281738 7.08289063 77.07421875 6.04296875 C77.33678467 5.13184326 77.59935059 4.22071777 77.86987305 3.28198242 C78.5625 1.1875 78.5625 1.1875 79.5625 0.1875 C81.0512186 0.10080568 82.543945 0.08046506 84.03515625 0.08984375 C84.93427734 0.09306641 85.83339844 0.09628906 86.75976562 0.09960938 C88.17805664 0.11217773 88.17805664 0.11217773 89.625 0.125 C91.0490918 0.13176758 91.0490918 0.13176758 92.50195312 0.13867188 C94.85553065 0.1504989 97.20898477 0.16697975 99.5625 0.1875 C100.96122896 3.96891105 100.13723918 6.4774613 98.97265625 10.26171875 C98.42013184 12.08098877 98.42013184 12.08098877 97.85644531 13.93701172 C97.44627708 15.24977248 97.03578777 16.56243297 96.625 17.875 C96.20988922 19.22650348 95.79550894 20.57823153 95.38183594 21.93017578 C92.12932423 32.52053887 88.76603208 43.07678274 85.35546875 53.6171875 C83.33005827 59.8814544 81.39183549 66.17123981 79.47265625 72.46875 C78.5625 75.1875 78.5625 75.1875 77.5625 76.1875 C74.4477177 76.51939614 71.31770026 76.51230728 68.1875 76.5625 C67.3109375 76.59988281 66.434375 76.63726563 65.53125 76.67578125 C63.11646049 76.7090123 60.93137317 76.65913869 58.5625 76.1875 C55.30838911 72.78399879 54.47434491 68.04136683 53.25 63.5625 C52.82473712 62.06068123 52.39757438 60.55939946 51.96875 59.05859375 C51.74445313 58.27210449 51.52015625 57.48561523 51.2890625 56.67529297 C50.01225687 52.30343499 48.63060565 47.96498412 47.25 43.625 C46.98340576 42.78565918 46.71681152 41.94631836 46.44213867 41.08154297 C45.81701785 39.11640798 45.18998116 37.15188259 44.5625 35.1875 C44.3766333 35.86627197 44.1907666 36.54504395 43.99926758 37.24438477 C33.96273337 73.78726663 33.96273337 73.78726663 31.5625 76.1875 C28.4242655 76.43716567 25.27200387 76.37271791 22.125 76.375 C20.79758789 76.39336914 20.79758789 76.39336914 19.44335938 76.41210938 C18.59708984 76.41404297 17.75082031 76.41597656 16.87890625 76.41796875 C16.09974854 76.42207764 15.32059082 76.42618652 14.51782227 76.43041992 C12.5625 76.1875 12.5625 76.1875 10.5625 74.1875 C9.92192655 72.5689146 9.35442485 70.92098411 8.828125 69.26171875 C8.50448975 68.24827393 8.18085449 67.2348291 7.84741211 66.19067383 C7.50589111 65.09650146 7.16437012 64.0023291 6.8125 62.875 C6.27798218 61.18443481 6.27798218 61.18443481 5.73266602 59.4597168 C3.28686046 51.66573513 0.98643134 43.8384826 -1.20458984 35.96948242 C-3.33631468 28.36837321 -5.74379156 20.86434167 -8.25415039 13.38012695 C-8.53895264 12.51218506 -8.82375488 11.64424316 -9.1171875 10.75 C-9.49979736 9.60724609 -9.49979736 9.60724609 -9.89013672 8.44140625 C-10.49908742 5.9338983 -10.60124069 3.75883523 -10.4375 1.1875 C-8.1977852 -1.0522148 -3.00852512 0.00218167 0 0 Z " fill="#010101" transform="translate(450.4375,499.8125)"/>
<path d="M0 0 C1.875 1.6875 1.875 1.6875 3 3 C3.144375 2.195625 3.28875 1.39125 3.4375 0.5625 C4 -2 4 -2 5 -3 C6.40348735 -3.09860131 7.81180477 -3.13078937 9.21875 -3.1328125 C10.49298828 -3.13474609 10.49298828 -3.13474609 11.79296875 -3.13671875 C12.68628906 -3.13285156 13.57960938 -3.12898438 14.5 -3.125 C15.39332031 -3.12886719 16.28664063 -3.13273437 17.20703125 -3.13671875 C18.05652344 -3.13542969 18.90601563 -3.13414062 19.78125 -3.1328125 C20.56564453 -3.13168457 21.35003906 -3.13055664 22.15820312 -3.12939453 C24 -3 24 -3 25 -2 C25.09971155 0.29511496 25.12799866 2.59334549 25.12939453 4.890625 C25.13202301 5.97108093 25.13202301 5.97108093 25.13470459 7.07336426 C25.13912288 9.46560034 25.13618521 11.8577631 25.1328125 14.25 C25.13348555 15.90527358 25.13445558 17.56054707 25.13571167 19.21582031 C25.13718861 22.68946267 25.13503421 26.16307937 25.13037109 29.63671875 C25.1246738 34.09932498 25.12795283 38.56187108 25.13394356 43.0244751 C25.13754927 46.4438523 25.13641054 49.86321515 25.13381577 53.28259277 C25.13314652 54.92850756 25.13397482 56.57442363 25.13629532 58.22033691 C25.13882202 60.51671831 25.13498103 62.81300099 25.12939453 65.109375 C25.12859894 66.41874023 25.12780334 67.72810547 25.12698364 69.07714844 C25 72 25 72 24 73 C22.58429877 73.08651611 21.164405 73.10704904 19.74609375 73.09765625 C18.89208984 73.09443359 18.03808594 73.09121094 17.15820312 73.08789062 C15.81145508 73.07532227 15.81145508 73.07532227 14.4375 73.0625 C13.53580078 73.05798828 12.63410156 73.05347656 11.70507812 73.04882812 C9.46998686 73.03700225 7.23502563 73.0205222 5 73 C4.34 71.02 3.68 69.04 3 67 C2.29875 67.598125 1.5975 68.19625 0.875 68.8125 C-6.56491729 74.47330664 -13.88812603 75.57630656 -23 75 C-32.97557782 73.41657495 -40.81297288 68.21375421 -47.2421875 60.49609375 C-54.34004021 50.4171429 -56.13446867 39.49219987 -54.69140625 27.41796875 C-52.82477578 16.66419499 -47.66323758 8.05571617 -38.87890625 1.390625 C-26.66694854 -6.45827032 -12.66416918 -7.36288906 0 0 Z M-30 22 C-33.86229469 28.5123363 -33.91062655 34.60537518 -33 42 C-31.23512969 46.62928283 -28.4095149 50.58187893 -24 53 C-17.99921539 54.79895042 -11.49692834 55.00235338 -5.6875 52.5 C-1.31439753 49.96820383 1.13470595 46.65923236 3 42 C4.6831158 35.41389469 4.23227918 29.98372344 1 24 C-2.56875222 18.46228103 -6.53390056 16.55686116 -12.875 15.125 C-19.48453694 14.50575084 -25.37514474 17.37514474 -30 22 Z " fill="#010101" transform="translate(771,503)"/>
<path d="M0 0 C0.83265381 0.00523682 1.66530762 0.01047363 2.52319336 0.01586914 C3.33280518 0.0183667 4.14241699 0.02086426 4.9765625 0.0234375 C6.01159912 0.0325415 7.04663574 0.04164551 8.11303711 0.05102539 C11.39241211 0.07165039 14.67178711 0.09227539 18.05053711 0.11352539 C18.05053711 11.66352539 18.05053711 23.21352539 18.05053711 35.11352539 C20.36053711 33.46352539 22.67053711 31.81352539 25.05053711 30.11352539 C31.09116838 26.45253674 38.69941023 26.29595696 45.50366211 27.57446289 C54.2045871 29.84310898 60.2409592 34.08996317 65.04272461 41.69555664 C68.20377669 49.2796312 68.33565604 57.00614964 68.28100586 65.11352539 C68.28054764 66.23041748 68.28008942 67.34730957 68.27961731 68.49804688 C68.27661285 70.84107537 68.26878121 73.18410218 68.25634766 75.52709961 C68.23795199 79.13019796 68.23583917 82.73304096 68.23608398 86.33618164 C68.2311734 88.6161318 68.2253471 90.89608021 68.21850586 93.17602539 C68.21739304 94.25819336 68.21628021 95.34036133 68.21513367 96.45532227 C68.20875381 97.44725586 68.20237396 98.43918945 68.19580078 99.46118164 C68.19198898 100.33782471 68.18817719 101.21446777 68.18424988 102.11767578 C68.05053711 104.11352539 68.05053711 104.11352539 67.05053711 105.11352539 C65.64704976 105.2121267 64.23873234 105.24431476 62.83178711 105.24633789 C61.55754883 105.24827148 61.55754883 105.24827148 60.25756836 105.25024414 C59.36424805 105.24637695 58.47092773 105.24250977 57.55053711 105.23852539 C56.6572168 105.24239258 55.76389648 105.24625977 54.84350586 105.25024414 C53.99401367 105.24895508 53.14452148 105.24766602 52.26928711 105.24633789 C51.48489258 105.24520996 50.70049805 105.24408203 49.89233398 105.24291992 C48.05053711 105.11352539 48.05053711 105.11352539 47.05053711 104.11352539 C46.94901623 102.6773677 46.91486364 101.23635906 46.90869141 99.79663086 C46.90165695 98.87832489 46.8946225 97.96001892 46.88737488 97.0138855 C46.8832106 96.01293854 46.87904633 95.01199158 46.87475586 93.98071289 C46.85154586 91.8739322 46.82742806 89.76716134 46.80249023 87.66040039 C46.76744387 84.32927997 46.73807751 80.99851821 46.72460938 77.66723633 C46.70908767 74.4587814 46.66883459 71.25138629 46.62475586 68.04321289 C46.62666428 67.05441132 46.62857269 66.06560974 46.63053894 65.04684448 C46.52216428 58.88765594 45.68949084 55.13908891 42.05053711 50.11352539 C37.27946873 47.06534281 31.59764183 47.89203802 26.17553711 48.36352539 C23.96738913 48.91553078 23.96738913 48.91553078 22.92553711 50.67602539 C22.49241211 51.88258789 22.49241211 51.88258789 22.05053711 53.11352539 C21.29003052 54.85375977 21.29003052 54.85375977 20.51416016 56.62915039 C18.67735934 61.54470709 18.66808532 66.10396676 18.75756836 71.30102539 C18.76393562 72.71569092 18.76393562 72.71569092 18.77043152 74.15893555 C18.78710141 77.14410058 18.82473136 80.12856758 18.86303711 83.11352539 C18.87809907 85.14867183 18.89178482 87.18382894 18.90405273 89.21899414 C18.93696656 94.18410309 18.98866711 99.14869627 19.05053711 104.11352539 C16.77980632 105.24889079 15.50770432 105.24244952 12.98803711 105.24633789 C12.19139648 105.24762695 11.39475586 105.24891602 10.57397461 105.25024414 C9.74124023 105.24637695 8.90850586 105.24250977 8.05053711 105.23852539 C7.21780273 105.24239258 6.38506836 105.24625977 5.52709961 105.25024414 C4.73045898 105.24895508 3.93381836 105.24766602 3.11303711 105.24633789 C2.38213867 105.24520996 1.65124023 105.24408203 0.89819336 105.24291992 C-0.94946289 105.11352539 -0.94946289 105.11352539 -2.94946289 104.11352539 C-2.97258359 90.70126746 -2.99037658 77.28901422 -3.00127506 63.87674046 C-3.00650449 57.64959067 -3.01360322 51.42245447 -3.02490234 45.1953125 C-3.0357291 39.19125675 -3.04173927 33.1872141 -3.04434013 27.18314934 C-3.04619477 24.88690929 -3.0498161 22.59067 -3.05519295 20.2944355 C-3.06240057 17.09031725 -3.06345395 13.88625389 -3.06298828 10.68212891 C-3.06658356 9.72259811 -3.07017883 8.76306732 -3.07388306 7.77445984 C-3.07250839 6.90642731 -3.07113373 6.03839478 -3.06971741 5.14405823 C-3.0706392 4.3854226 -3.07156099 3.62678698 -3.07251072 2.84516239 C-2.89439828 0.33860794 -2.4987334 0.14551171 0 0 Z " fill="#010101" transform="translate(637.949462890625,470.886474609375)"/>
<path d="M0 0 C10.63298625 -0.4763332 20.52229998 2.27134016 28.6484375 9.28125 C37.6065365 18.14867998 41.50097652 28.38798593 41.703125 40.94140625 C41.71305274 43.78074114 41.4960333 45.43768136 40.578125 48.19140625 C22.56375852 49.19121252 4.61301845 49.30677561 -13.421875 49.19140625 C-10.38707967 53.94548478 -7.96693525 57.5054082 -2.421875 59.19140625 C4.68486458 60.18224975 10.69898336 60.39343731 16.703125 56.12890625 C17.36570312 55.56042969 18.02828125 54.99195313 18.7109375 54.40625 C20.578125 53.19140625 20.578125 53.19140625 22.3984375 53.28515625 C25.48884391 54.57005641 28.4057423 56.13214442 31.328125 57.75390625 C31.93011719 58.08326172 32.53210938 58.41261719 33.15234375 58.75195312 C34.62983003 59.56105275 36.10428536 60.37568287 37.578125 61.19140625 C36.95403659 66.79845054 34.27360048 68.82712736 30.11328125 72.328125 C26.47459696 75.00247386 22.83742488 76.7358901 18.578125 78.19140625 C17.94390625 78.41570312 17.3096875 78.64 16.65625 78.87109375 C5.89865953 82.11615203 -6.00259068 80.54621307 -16.1171875 75.97265625 C-25.71433519 70.68982266 -31.9905224 63.28422411 -35.57421875 52.921875 C-38.29969572 40.92726435 -37.5122978 28.65536368 -31.1015625 17.99609375 C-24.85761327 9.02254922 -16.77360513 2.82512406 -6.046875 0.44140625 C-4.03067596 0.30235804 -2.01470589 0.15922676 0 0 Z M-11.296875 25.19140625 C-13.53275569 28.04020531 -13.53275569 28.04020531 -14.421875 31.19140625 C-11.38056866 32.07501718 -8.66258633 32.32002116 -5.5 32.32421875 C-4.55640625 32.32550781 -3.6128125 32.32679688 -2.640625 32.328125 C-1.6609375 32.32425781 -0.68125 32.32039062 0.328125 32.31640625 C1.29234375 32.32027344 2.2565625 32.32414063 3.25 32.328125 C8.78668884 32.32060232 14.10151283 32.00900475 19.578125 31.19140625 C17.25877509 25.65073703 14.34395429 21.82326561 8.703125 19.37890625 C0.86329672 18.6871567 -5.75921733 18.81278624 -11.296875 25.19140625 Z " fill="#010101" transform="translate(396.421875,497.80859375)"/>
<path d="M0 0 C6.34913232 4.89636475 10.82620519 10.59245862 12.84375 18.421875 C13.29502344 22.69244032 13.33186288 26.94253327 13.35546875 31.234375 C13.37341995 32.44383789 13.39137115 33.65330078 13.40986633 34.89941406 C13.46379513 38.74019954 13.49781014 42.58086195 13.53125 46.421875 C13.56443834 49.03517331 13.59892939 51.64845541 13.63476562 54.26171875 C13.7195118 60.64832712 13.78793533 67.03495176 13.84375 73.421875 C11.57301921 74.5572404 10.30091721 74.55079912 7.78125 74.5546875 C6.98460937 74.55597656 6.18796875 74.55726563 5.3671875 74.55859375 C4.53445313 74.55472656 3.70171875 74.55085937 2.84375 74.546875 C2.01101563 74.55074219 1.17828125 74.55460938 0.3203125 74.55859375 C-0.47632813 74.55730469 -1.27296875 74.55601562 -2.09375 74.5546875 C-2.82464844 74.55355957 -3.55554688 74.55243164 -4.30859375 74.55126953 C-6.15625 74.421875 -6.15625 74.421875 -8.15625 73.421875 C-8.16433685 72.81910233 -8.17242371 72.21632965 -8.18075562 71.59529114 C-8.26686553 65.31713901 -8.36637215 59.03930027 -8.47363281 52.76147461 C-8.51189716 50.41908027 -8.54675446 48.07662767 -8.578125 45.73413086 C-8.62383025 42.365511 -8.68181661 38.99729127 -8.7421875 35.62890625 C-8.75373871 34.58289749 -8.76528992 33.53688873 -8.77719116 32.45918274 C-8.79706085 31.47854355 -8.81693054 30.49790436 -8.83740234 29.48754883 C-8.85072601 28.62817215 -8.86404968 27.76879547 -8.8777771 26.88337708 C-9.19594081 24.0710365 -9.88111472 21.94668776 -11.15625 19.421875 C-15.62254228 17.18872886 -20.2505044 16.79519293 -25.15625 17.421875 C-28.79030974 18.72465113 -30.62627006 19.72741853 -32.96875 22.796875 C-35.52102535 28.43874684 -35.2619144 33.95492399 -35.18359375 40.02734375 C-35.17095708 41.91601386 -35.15859543 43.80468582 -35.14648438 45.69335938 C-35.12158134 48.66273815 -35.09349685 51.63202025 -35.06030273 54.60131836 C-35.0302194 57.4725 -35.01237109 60.34355546 -34.99609375 63.21484375 C-34.98263412 64.10753464 -34.9691745 65.00022552 -34.95530701 65.91996765 C-34.95192825 66.74454971 -34.9485495 67.56913177 -34.94506836 68.41870117 C-34.93388222 69.50860603 -34.93388222 69.50860603 -34.92247009 70.62052917 C-35.15625 72.421875 -35.15625 72.421875 -37.15625 74.421875 C-39.11157227 74.66479492 -39.11157227 74.66479492 -41.47265625 74.65234375 C-42.31892578 74.65041016 -43.16519531 74.64847656 -44.03710938 74.64648438 C-44.92205078 74.63423828 -45.80699219 74.62199219 -46.71875 74.609375 C-47.60755859 74.60873047 -48.49636719 74.60808594 -49.41210938 74.60742188 C-56.01603903 74.56208597 -56.01603903 74.56208597 -57.15625 73.421875 C-57.25596155 71.12676004 -57.28424866 68.82852951 -57.28564453 66.53125 C-57.28739685 65.81094604 -57.28914917 65.09064209 -57.29095459 64.34851074 C-57.29537288 61.95627466 -57.29243521 59.5641119 -57.2890625 57.171875 C-57.28973555 55.51660142 -57.29070558 53.86132793 -57.29196167 52.20605469 C-57.29343861 48.73241233 -57.29128421 45.25879563 -57.28662109 41.78515625 C-57.2809238 37.32255002 -57.28420283 32.86000392 -57.29019356 28.3973999 C-57.29379927 24.9780227 -57.29266054 21.55865985 -57.29006577 18.13928223 C-57.28939652 16.49336744 -57.29022482 14.84745137 -57.29254532 13.20153809 C-57.29507202 10.90515669 -57.29123103 8.60887401 -57.28564453 6.3125 C-57.28484894 5.00313477 -57.28405334 3.69376953 -57.28323364 2.34472656 C-57.15625 -0.578125 -57.15625 -0.578125 -56.15625 -1.578125 C-54.74054877 -1.66464111 -53.320655 -1.68517404 -51.90234375 -1.67578125 C-50.62133789 -1.67094727 -50.62133789 -1.67094727 -49.31445312 -1.66601562 C-48.41662109 -1.65763672 -47.51878906 -1.64925781 -46.59375 -1.640625 C-45.69205078 -1.63611328 -44.79035156 -1.63160156 -43.86132812 -1.62695312 C-41.62623686 -1.61512725 -39.39127563 -1.5986472 -37.15625 -1.578125 C-36.49625 0.071875 -35.83625 1.721875 -35.15625 3.421875 C-34.434375 2.803125 -33.7125 2.184375 -32.96875 1.546875 C-24.11777298 -5.14052986 -9.60091104 -5.61409205 0 0 Z " fill="#010101" transform="translate(336.15625,501.578125)"/>
<path d="M0 0 C1.72265625 1.53125 1.72265625 1.53125 3 3 C3 3.66 3 4.32 3 5 C3.66 5 4.32 5 5 5 C5.81752303 6.58074564 6.62881997 8.16471223 7.4375 9.75 C7.88996094 10.63171875 8.34242188 11.5134375 8.80859375 12.421875 C12.20904253 19.78022317 12.18805341 29.03528658 9.875 36.75 C5.94732655 46.58720048 0.40531485 52.13136643 -9 57 C-16.7569729 60.24382503 -25.65398043 60.03509672 -33.625 57.5625 C-42.42428904 53.95123109 -48.8632706 47.43795175 -53.16015625 39.04296875 C-56.49094832 30.94062339 -56.33474521 20.33998978 -53.125 12.25 C-51.91586619 9.61677525 -50.61708549 7.42562823 -49 5 C-48.34 5 -47.68 5 -47 5 C-46.773125 4.4225 -46.54625 3.845 -46.3125 3.25 C-43.23466992 -2.02628014 -37.48077355 -4.73171946 -32 -7 C-20.41204928 -9.89698768 -9.43558346 -7.14750895 0 0 Z " fill="#000001" transform="translate(662,302)"/>
<path d="M0 0 C3.2378654 2.82662526 5.85376379 5.47595818 8.2421875 9.05859375 C8.09204102 11.11230469 8.09204102 11.11230469 7.2421875 13.05859375 C5.65991211 14.24707031 5.65991211 14.24707031 3.64453125 15.19921875 C2.92587891 15.54726563 2.20722656 15.8953125 1.46679688 16.25390625 C0.71205078 16.60195313 -0.04269531 16.95 -0.8203125 17.30859375 C-1.57892578 17.67210937 -2.33753906 18.035625 -3.11914062 18.41015625 C-4.99267411 19.30568169 -6.87450053 20.18381976 -8.7578125 21.05859375 C-9.53511719 20.26195312 -10.31242188 19.4653125 -11.11328125 18.64453125 C-13.79266968 16.02450889 -15.14918329 14.89780985 -18.7578125 14.05859375 C-21.48970199 14.20130439 -24.05073151 14.59976646 -26.7578125 15.05859375 C-27.0878125 16.70859375 -27.4178125 18.35859375 -27.7578125 20.05859375 C-26.21636497 20.62169397 -24.67463378 21.18401769 -23.1328125 21.74609375 C-22.13636719 22.11089844 -21.13992188 22.47570312 -20.11328125 22.8515625 C-17.7898839 23.6873364 -15.45846385 24.50101429 -13.12109375 25.296875 C-11.30158203 25.92142578 -11.30158203 25.92142578 -9.4453125 26.55859375 C-7.74955078 27.1309375 -7.74955078 27.1309375 -6.01953125 27.71484375 C0.12843821 30.24765991 4.4081605 33.6270555 8.2421875 39.05859375 C11.19007994 46.77926443 10.87372418 53.12753883 7.6328125 60.625 C4.15380711 66.71325943 -1.28880622 70.48238634 -7.8984375 72.5703125 C-19.41088823 75.59354011 -30.87362364 74.3579165 -41.6171875 69.32421875 C-46.86558831 66.22114966 -51.09551488 61.53979473 -53.7578125 56.05859375 C-53.7578125 55.39859375 -53.7578125 54.73859375 -53.7578125 54.05859375 C-51.18483468 52.49685605 -48.60189788 50.95952633 -46.0078125 49.43359375 C-44.91339844 48.76457031 -44.91339844 48.76457031 -43.796875 48.08203125 C-43.08789062 47.66953125 -42.37890625 47.25703125 -41.6484375 46.83203125 C-40.99907227 46.44450684 -40.34970703 46.05698242 -39.68066406 45.65771484 C-37.7578125 45.05859375 -37.7578125 45.05859375 -35.68261719 45.78759766 C-33.01501856 47.54907894 -30.9516493 49.74617117 -28.7578125 52.05859375 C-27.64654591 53.39761167 -27.64654591 53.39761167 -24.81640625 53.15625 C-23.62144531 53.14464844 -22.42648437 53.13304687 -21.1953125 53.12109375 C-19.99777344 53.11207031 -18.80023437 53.10304688 -17.56640625 53.09375 C-16.17615234 53.07634766 -16.17615234 53.07634766 -14.7578125 53.05859375 C-13.32836305 50.70420642 -12.67119989 49.57826942 -13.1328125 46.80859375 C-13.3390625 46.23109375 -13.5453125 45.65359375 -13.7578125 45.05859375 C-14.9334375 44.83171875 -16.1090625 44.60484375 -17.3203125 44.37109375 C-41.92626029 38.87277578 -41.92626029 38.87277578 -48.8125 28.83984375 C-51.24443836 24.25734832 -51.44473907 19.11974242 -50.7578125 14.05859375 C-47.89122817 5.5102593 -43.13513977 0.28565499 -35.1953125 -3.75390625 C-23.68047001 -7.73176093 -10.19711241 -7.17842049 0 0 Z " fill="#010101" transform="translate(991.7578125,503.94140625)"/>
<path d="M0 0 C0.71929688 0.24492187 1.43859375 0.48984375 2.1796875 0.7421875 C10.03261467 3.81270919 17.26471395 9.29442646 21 17 C19.61970132 21.14089605 16.81099039 22.17364052 13.1875 24.1875 C12.55779297 24.55552734 11.92808594 24.92355469 11.27929688 25.30273438 C7.84084004 27.24746495 6.03596476 28 2 28 C0.73426914 26.50708668 -0.52770783 25.00979482 -1.734375 23.46875 C-4.18957663 20.61950367 -6.68382325 20.12145926 -10.328125 19.78515625 C-15.63585797 19.58651355 -19.52020463 19.87456137 -24 23 C-28.65565508 27.51649148 -30.11980844 31.38103692 -30.3125 37.75 C-30.25101651 42.96072588 -29.02658513 46.75886291 -26 51 C-21.95231578 54.94649211 -19.23584405 55.828012 -13.75 56.25 C-7.99587232 55.86639149 -3.5709083 54.78319321 0.3125 50.375 C0.869375 49.59125 1.42625 48.8075 2 48 C5 47 5 47 6.80932617 47.71264648 C7.79122925 48.28607788 7.79122925 48.28607788 8.79296875 48.87109375 C9.50517578 49.28037109 10.21738281 49.68964844 10.95117188 50.11132812 C12.0581543 50.7677832 12.0581543 50.7677832 13.1875 51.4375 C13.93708984 51.87126953 14.68667969 52.30503906 15.45898438 52.75195312 C17.31127243 53.82557231 19.1563425 54.91162681 21 56 C20.29476315 59.08365912 19.41983602 61.17067282 17.5625 63.75 C17.13066406 64.36359375 16.69882812 64.9771875 16.25390625 65.609375 C15.63322266 66.29773438 15.63322266 66.29773438 15 67 C14.34 67 13.68 67 13 67 C13 67.66 13 68.32 13 69 C10.98828125 70.4375 10.98828125 70.4375 8.3125 72 C7.44238281 72.515625 6.57226562 73.03125 5.67578125 73.5625 C-3.8559926 78.68321938 -14.42139614 79.35127397 -24.8515625 76.6796875 C-35.60530707 73.27759376 -43.23191373 66.18385364 -48.80859375 56.4921875 C-53.39980128 46.88828453 -53.45132946 35.15236014 -51.34765625 24.78515625 C-47.61598083 14.64717109 -39.52337251 5.73422869 -29.859375 0.9375 C-20.30120528 -2.85658264 -9.73955733 -3.32290779 0 0 Z " fill="#010101" transform="translate(606,500)"/>
<path d="M0 0 C0 6.6 0 13.2 0 20 C5.22063275 19.96042843 5.22063275 19.96042843 10.44116211 19.90991211 C12.29433759 19.90276055 14.14749308 19.9497148 16 20 C17.5220959 21.5220959 17.12959521 22.88210082 17.1328125 25 C17.13474609 26.2065625 17.13474609 26.2065625 17.13671875 27.4375 C17.13285156 28.283125 17.12898437 29.12875 17.125 30 C17.13080078 31.2684375 17.13080078 31.2684375 17.13671875 32.5625 C17.13542969 33.366875 17.13414062 34.17125 17.1328125 35 C17.13168457 35.7425 17.13055664 36.485 17.12939453 37.25 C17 39 17 39 16 40 C13.30345146 40.07319621 10.63308542 40.09242537 7.9375 40.0625 C6.79958008 40.05573242 6.79958008 40.05573242 5.63867188 40.04882812 C3.75908129 40.0370068 1.87953101 40.01907078 0 40 C0.11795429 44.82398914 0.24218018 49.64775958 0.37231445 54.47143555 C0.41572297 56.11364303 0.45739358 57.75589739 0.49731445 59.39819336 C0.5548744 61.75388745 0.61860892 64.10934428 0.68359375 66.46484375 C0.70030624 67.20339096 0.71701874 67.94193817 0.73423767 68.7028656 C0.53548013 72.14300627 0.53548013 72.14300627 2 75 C4.32986123 75.20968751 6.66444036 75.36815389 9 75.5 C15.88888889 75.88888889 15.88888889 75.88888889 17 77 C17.08631874 78.34267413 17.10706473 79.68974322 17.09765625 81.03515625 C17.09443359 81.84404297 17.09121094 82.65292969 17.08789062 83.48632812 C17.07532227 84.7615332 17.07532227 84.7615332 17.0625 86.0625 C17.05798828 86.91650391 17.05347656 87.77050781 17.04882812 88.65039062 C17.03700373 90.76695663 17.01906769 92.88348685 17 95 C7.81755446 98.40945833 -2.04752475 98.08901984 -11 94 C-16.38858564 90.82785147 -18.60044201 87.33713998 -20.41983032 81.46853638 C-21.35495156 77.48973349 -21.37108338 73.65919702 -21.29296875 69.58984375 C-21.28872391 68.73693253 -21.28447906 67.8840213 -21.28010559 67.00526428 C-21.2634863 64.3156705 -21.22586775 61.62686231 -21.1875 58.9375 C-21.17243143 57.0996203 -21.15874686 55.26172869 -21.14648438 53.42382812 C-21.11363805 48.94892204 -21.06197498 44.4745936 -21 40 C-22.28197266 40.01740234 -22.28197266 40.01740234 -23.58984375 40.03515625 C-24.69457031 40.04417969 -25.79929687 40.05320312 -26.9375 40.0625 C-28.03964844 40.07410156 -29.14179687 40.08570313 -30.27734375 40.09765625 C-33 40 -33 40 -34 39 C-34.08631874 37.65732587 -34.10706473 36.31025678 -34.09765625 34.96484375 C-34.09443359 34.15595703 -34.09121094 33.34707031 -34.08789062 32.51367188 C-34.07951172 31.66353516 -34.07113281 30.81339844 -34.0625 29.9375 C-34.05798828 29.08349609 -34.05347656 28.22949219 -34.04882812 27.34960938 C-34.03700373 25.23304337 -34.01906769 23.11651315 -34 21 C-30.14854957 19.07427479 -25.19956748 19.95116782 -21 20 C-21 15.05 -21 10.1 -21 5 C-18.86406121 4.2880204 -16.72780038 3.57699096 -14.58984375 2.87109375 C-12.88810379 2.29871364 -11.19238568 1.70804553 -9.50390625 1.09765625 C-8.32634766 0.67806641 -8.32634766 0.67806641 -7.125 0.25 C-6.04605469 -0.14445312 -6.04605469 -0.14445312 -4.9453125 -0.546875 C-3 -1 -3 -1 0 0 Z " fill="#010101" transform="translate(838,480)"/>
<path d="M0 0 C0.78552246 0.01047363 1.57104492 0.02094727 2.38037109 0.03173828 C3.23115234 0.03818359 4.08193359 0.04462891 4.95849609 0.05126953 C6.29267578 0.07640625 6.29267578 0.07640625 7.65380859 0.10205078 C8.55099609 0.11107422 9.44818359 0.12009766 10.37255859 0.12939453 C12.59157445 0.15300108 14.81005937 0.18592768 17.02880859 0.22705078 C18.60226425 3.37396209 18.15238579 6.73650269 18.12988281 10.18994141 C18.12751869 11.4244957 18.12751869 11.4244957 18.12510681 12.68399048 C18.1175926 15.41716212 18.10157073 18.15017942 18.08349609 20.88330078 C18.07778721 21.81778549 18.07207832 22.7522702 18.06619644 23.71507263 C18.03461854 28.6673771 17.99566869 33.61956866 17.95166016 38.57177734 C17.90804901 43.67134667 17.89211121 48.7706085 17.88242912 53.87033844 C17.8695113 57.80325877 17.83475407 61.73577816 17.79431534 65.66850281 C17.77889021 67.54696216 17.77172572 69.42550928 17.77322006 71.30403137 C17.77464652 92.13236431 17.77464652 92.13236431 10.22579956 100.13952637 C4.40782249 105.58220746 -2.06711705 107.36451294 -9.97119141 107.22705078 C-12.32113806 106.62154305 -14.65954523 105.96541442 -16.97119141 105.22705078 C-16.99803453 102.41448797 -17.01795328 99.60217837 -17.03369141 96.78955078 C-17.04207031 95.98710938 -17.05044922 95.18466797 -17.05908203 94.35791016 C-17.06770571 92.31409857 -17.02347291 90.27021176 -16.97119141 88.22705078 C-15.05127779 86.30713717 -11.70290363 86.38192774 -9.10009766 85.92236328 C-6.60701013 85.3510572 -6.60701013 85.3510572 -4.97119141 82.22705078 C-3.81666038 78.08543182 -3.86254095 74.0874367 -3.8894043 69.80639648 C-3.89400414 68.71284348 -3.89400414 68.71284348 -3.8986969 67.59719849 C-3.9058266 66.02139996 -3.9152032 64.44561031 -3.92659187 62.86983681 C-3.94402194 60.37791478 -3.95429287 57.88605718 -3.96250916 55.39408875 C-3.9869365 48.31157345 -4.02268097 41.22914568 -4.06713867 34.14672852 C-4.0938644 29.80974586 -4.11094203 25.47281268 -4.12200737 21.13576317 C-4.12822743 19.48228301 -4.13824547 17.82881273 -4.15208626 16.1753788 C-4.17122376 13.87002827 -4.17818686 11.56494052 -4.18237305 9.25952148 C-4.18983047 7.94667679 -4.1972879 6.63383209 -4.20497131 5.28120422 C-3.94618466 1.90035698 -3.57230454 0.41147427 0 0 Z " fill="#010101" transform="translate(910.97119140625,499.77294921875)"/>
<path d="M0 0 C0.66 0 1.32 0 2 0 C3.25681181 4.86625102 3.15498807 9.65973584 3.16113281 14.64868164 C3.16609772 15.61524689 3.17106262 16.58181213 3.17617798 17.57766724 C3.19076778 20.77183754 3.19759768 23.96595811 3.203125 27.16015625 C3.20888074 29.38870748 3.21463842 31.61725871 3.22039795 33.84580994 C3.23090006 38.52049998 3.23674735 43.19517287 3.24023438 47.86987305 C3.24570579 53.83574588 3.26970837 59.80138897 3.29820633 65.76718998 C3.31691118 70.37339419 3.32204256 74.97954404 3.32357025 79.585783 C3.32658153 81.7836272 3.33455803 83.98147079 3.34775543 86.17927742 C3.44628465 103.85484206 2.85536151 119.34743103 -9.73046875 132.890625 C-19.51226027 141.98213519 -31.74472067 145.2309631 -44.81860352 145.04663086 C-46.39359797 145.03386292 -47.96859509 145.02142175 -49.54359436 145.00926208 C-50.37160112 145.00134581 -51.19960789 144.99342953 -52.05270576 144.98527336 C-57.40546139 144.9428253 -62.75845275 144.95500141 -68.11134434 144.95516109 C-72.79784998 144.95216915 -77.48302228 144.93157795 -82.16918945 144.87329102 C-86.72201029 144.81773773 -91.27261036 144.81179375 -95.82566643 144.83798409 C-97.54826654 144.83920877 -99.27098091 144.82301216 -100.99322701 144.78806877 C-114.00663801 144.5380491 -120.45515201 147.01560893 -130 156 C-131.52643336 157.18694076 -133.06575794 158.35793974 -134.62890625 159.49609375 C-135.29083984 159.99173828 -135.95277344 160.48738281 -136.63476562 160.99804688 C-137.27091797 161.47306641 -137.90707031 161.94808594 -138.5625 162.4375 C-139.23345703 162.93958984 -139.90441406 163.44167969 -140.59570312 163.95898438 C-141.8583456 164.90377632 -143.12208183 165.84710937 -144.38720703 166.78857422 C-145.71931584 167.78916821 -147.03230638 168.81516013 -148.33984375 169.84765625 C-150 171 -150 171 -152 171 C-152 171.66 -152 172.32 -152 173 C-156.64542466 177.14024846 -161.53605441 179.87979915 -167.80078125 180.1640625 C-173.14362324 179.76548459 -177.31857854 178.13795875 -180.9375 174.125 C-183.84959077 169.71274125 -184.16584505 166.1147492 -183.87890625 160.91796875 C-183.83056641 159.98662109 -183.78222656 159.05527344 -183.73242188 158.09570312 C-183.67634766 157.13599609 -183.62027344 156.17628906 -183.5625 155.1875 C-183.51029297 154.20845703 -183.45808594 153.22941406 -183.40429688 152.22070312 C-183.27512661 149.8134391 -183.14018357 147.40664362 -183 145 C-182.67 145 -182.34 145 -182 145 C-181.98018066 145.56920166 -181.96036133 146.13840332 -181.93994141 146.72485352 C-181.84388242 149.33781712 -181.73453593 151.95006802 -181.625 154.5625 C-181.5940625 155.45775391 -181.563125 156.35300781 -181.53125 157.27539062 C-181.22575241 166.02187606 -181.22575241 166.02187606 -177.671875 173.8515625 C-175.56005503 175.30220519 -173.75485091 175.83824623 -171.25 176.375 C-170.43015625 176.56835938 -169.6103125 176.76171875 -168.765625 176.9609375 C-161.94026686 177.05734086 -156.69552901 172.5627981 -151.5625 168.5625 C-150.15377784 167.48550439 -148.74491968 166.40868665 -147.3359375 165.33203125 C-146.62018555 164.78111816 -145.90443359 164.23020508 -145.16699219 163.66259766 C-141.69407782 160.99804754 -138.19059022 158.37466798 -134.6875 155.75 C-134.07914307 155.29181885 -133.47078613 154.8336377 -132.84399414 154.36157227 C-131.63090454 153.44977501 -130.40833465 152.55044469 -129.17630005 151.66441345 C-126.94423334 150.01721754 -126.94423334 150.01721754 -124.87214661 147.98876953 C-116.14220617 140.37145836 -107.90267171 140.93844633 -96.9375 141.140625 C-95.09627415 141.14326905 -93.25503826 141.14179051 -91.41381836 141.13641357 C-86.59083441 141.13066534 -81.76933251 141.16889835 -76.94665527 141.22027588 C-69.23072241 141.29810966 -61.51489732 141.32172449 -53.7986145 141.3201828 C-51.12227819 141.32795148 -48.4472984 141.36269057 -45.77124023 141.40045166 C-34.69347706 141.48361853 -25.17249222 140.58562041 -15.9375 133.75 C-12.17326733 131 -12.17326733 131 -10 131 C-9.566875 130.13375 -9.566875 130.13375 -9.125 129.25 C-8.08333333 127.16666667 -7.04166667 125.08333333 -6 123 C-5.34 123 -4.68 123 -4 123 C-3.71125 121.865625 -3.4225 120.73125 -3.125 119.5625 C-2.96257812 118.92441406 -2.80015625 118.28632813 -2.6328125 117.62890625 C-2.42398438 116.76136719 -2.21515625 115.89382813 -2 115 C-1.75679866 114.08550127 -1.75679866 114.08550127 -1.50868416 113.15252781 C-0.00629444 107.1186484 0.27354142 101.44707515 0.22705078 95.24780273 C0.22734283 94.21261002 0.22763489 93.1774173 0.22793579 92.1108551 C0.22655198 88.71834683 0.21103558 85.32606325 0.1953125 81.93359375 C0.191579 79.56991191 0.18873362 77.20622851 0.18673706 74.84254456 C0.17912718 68.64313429 0.15950147 62.44381881 0.1373291 56.2444458 C0.11681359 49.9097217 0.10772316 43.57498217 0.09765625 37.24023438 C0.07625303 24.82678144 0.04214914 12.41339862 0 0 Z " fill="#D61419" transform="translate(758,272)"/>
<path d="M0 0 C4.15449208 2.40523226 6.84536108 5.78608324 8.375 10.375 C8.91423825 16.09092544 8.00934458 18.93302329 4.375 23.375 C1.04852641 26.29826467 -1.53679201 27.294392 -6 27.625 C-11.20189814 27.2662484 -13.47611563 25.68345165 -16.875 21.8125 C-19.77675374 17.77077157 -19.87907814 15.37187 -19.625 10.375 C-18.44897071 5.88470636 -16.08277344 3.41109375 -12.625 0.375 C-8.31041323 -1.06319559 -4.4244578 -1.05344233 0 0 Z " fill="#010101" transform="translate(884.625,550.625)"/>
<path d="M0 0 C0.33 0 0.66 0 1 0 C1.06084338 3.91136044 1.00803478 7.51179723 -1.23828125 10.828125 C-8.50923618 17.6999583 -18.2321666 18.32958922 -27.77837944 18.09959507 C-29.23996091 18.05395551 -30.70141625 18.00411339 -32.16272354 17.95040703 C-34.5037935 17.86906171 -36.84395554 17.81636569 -39.18600464 17.77198792 C-45.83656298 17.64517354 -52.48535999 17.50257247 -59.1328125 17.25952148 C-82.74525767 15.66497201 -82.74525767 15.66497201 -103.39480591 25.40830994 C-104.9774194 26.8987347 -106.48576812 28.44085251 -108 30 C-112.65869365 34 -112.65869365 34 -115 34 C-115 34.66 -115 35.32 -115 36 C-117.30078125 37.9453125 -117.30078125 37.9453125 -120.3125 40.125 C-121.29863281 40.84945312 -122.28476562 41.57390625 -123.30078125 42.3203125 C-126 44 -126 44 -129 44 C-129 35.09 -129 26.18 -129 17 C-132.10921875 17.05220703 -132.10921875 17.05220703 -135.28125 17.10546875 C-137.31346552 17.12634768 -139.34568383 17.14711297 -141.37792969 17.16479492 C-142.77839031 17.17977914 -144.17880483 17.20017379 -145.57910156 17.22631836 C-162.7614397 17.53883592 -162.7614397 17.53883592 -169.05859375 12.28125 C-169.51363281 11.6934375 -169.96867188 11.105625 -170.4375 10.5 C-171.14712891 9.61828125 -171.14712891 9.61828125 -171.87109375 8.71875 C-173 7 -173 7 -174 4 C-173.01 4 -172.02 4 -171 4 C-170.401875 4.928125 -169.80375 5.85625 -169.1875 6.8125 C-166.65099278 10.50855338 -165.124629 11.36121397 -161 13 C-158.33552119 13.30037672 -155.89157265 13.46397584 -153.23046875 13.4765625 C-152.14805656 13.49993179 -152.14805656 13.49993179 -151.04377747 13.52377319 C-148.75836124 13.5709871 -146.4732471 13.59897357 -144.1875 13.625 C-141.88410991 13.66148935 -139.58089137 13.70202559 -137.27766418 13.74765015 C-135.84880164 13.77489105 -134.41981241 13.79623624 -132.99076843 13.81118774 C-128.11071422 13.88928578 -128.11071422 13.88928578 -127 15 C-126.84213692 16.85174706 -126.74892644 18.7090911 -126.68359375 20.56640625 C-126.64169922 21.69111328 -126.59980469 22.81582031 -126.55664062 23.97460938 C-126.51732422 25.15861328 -126.47800781 26.34261719 -126.4375 27.5625 C-126.39431641 28.75037109 -126.35113281 29.93824219 -126.30664062 31.16210938 C-126.20016454 34.10794784 -126.09815159 37.0538743 -126 40 C-125.319375 39.48953125 -124.63875 38.9790625 -123.9375 38.453125 C-122.42644529 37.31983397 -120.91536253 36.18658016 -119.40380859 35.05395508 C-116.21593711 32.66466057 -113.03174955 30.27060902 -109.8515625 27.87109375 C-109.1503125 27.34290039 -108.4490625 26.81470703 -107.7265625 26.27050781 C-106.35318264 25.2360056 -104.98074503 24.20025097 -103.609375 23.16308594 C-95.68536692 17.2001903 -90.67048686 13.84352641 -80.60449219 13.87402344 C-79.49635414 13.87122124 -79.49635414 13.87122124 -78.36582947 13.86836243 C-76.76439512 13.86436536 -75.1629551 13.86228423 -73.56151581 13.86190033 C-70.14940663 13.85847372 -66.7374861 13.83709603 -63.32544327 13.81666946 C-56.97751617 13.77871718 -50.62979191 13.74738183 -44.28173828 13.74951172 C-39.86129342 13.75030101 -35.44154201 13.72684381 -31.02127838 13.6876297 C-29.34210583 13.67720169 -27.66285293 13.67562203 -25.98366547 13.68328094 C-13.59271658 13.88164302 -13.59271658 13.88164302 -3 8 C-1.48498002 5.88823236 -1.48498002 5.88823236 -1 3.6875 C-0.67 2.470625 -0.34 1.25375 0 0 Z " fill="#D51D1F" transform="translate(726,368)"/>
<path d="M0 0 C3.45211024 2.30140683 4.9826251 4.1448704 6.8125 7.875 C7.67172126 12.26754949 7.16075042 15.16510492 5.1875 19.1875 C1.84544001 22.96930472 -1.10859173 24.51345074 -6.0625 25.375 C-10.53214817 24.65985629 -13.71796568 22.74113705 -17.1875 19.875 C-19.7848595 16.13480232 -19.34640773 12.38239463 -18.73046875 8.02734375 C-17.74133935 4.10640633 -15.57421135 1.87917029 -12.375 -0.4375 C-7.97858922 -1.8192291 -4.31032366 -1.5212907 0 0 Z " fill="#010101" transform="translate(924.1875,469.125)"/>
<path d="M0 0 C0.68960237 -0.00226556 1.37920474 -0.00453111 2.08970416 -0.00686532 C4.38791455 -0.01316796 6.6860654 -0.01237838 8.98428345 -0.0115509 C10.63719254 -0.01454471 12.29010094 -0.01794775 13.94300842 -0.02172852 C18.42445606 -0.03054971 22.90588459 -0.03290583 27.38734007 -0.0335443 C30.18920432 -0.03425582 32.99106374 -0.03639205 35.79292679 -0.03904152 C45.57334959 -0.04828838 55.35375877 -0.05237719 65.13418579 -0.05158997 C74.24208552 -0.05098919 83.34992602 -0.06154261 92.45781076 -0.07733363 C100.28559566 -0.09042026 108.11336123 -0.0957734 115.94115698 -0.09513456 C120.61274336 -0.09487992 125.28427706 -0.09771223 129.95585251 -0.10831261 C134.3504238 -0.11801259 138.74489227 -0.11805975 143.13946724 -0.11079597 C144.74867084 -0.10975253 146.35788091 -0.11209873 147.96707344 -0.11815643 C157.91920064 -0.15318263 166.4270042 0.01430291 175.41641235 4.75871277 C176.27234985 5.20472839 177.12828735 5.65074402 178.01016235 6.11027527 C178.63922485 6.44800964 179.26828735 6.78574402 179.91641235 7.13371277 C179.91641235 7.46371277 179.91641235 7.79371277 179.91641235 8.13371277 C176.04936701 8.34778135 173.44993327 7.7476493 169.91641235 6.19621277 C164.19717537 3.7029829 159.33797987 3.00869152 153.09388733 3 C152.4202123 2.99773444 151.74653728 2.99546889 151.05244786 2.99313468 C148.8019256 2.98682017 146.55146396 2.98762242 144.30093384 2.9884491 C142.68421857 2.98545588 141.06750402 2.98205298 139.45079041 2.97827148 C135.06198715 2.96944055 130.6732034 2.96709366 126.28439212 2.9664557 C123.53861778 2.96574431 120.79284838 2.96360822 118.04707527 2.96095848 C108.45656139 2.95170576 98.86606141 2.94762322 89.27554321 2.94841003 C80.35576366 2.94900976 71.4360448 2.93847846 62.51628059 2.92266637 C54.84471524 2.90955488 47.17316963 2.9042277 39.50159317 2.90486544 C34.92599706 2.90511951 30.35045481 2.90231931 25.77486992 2.89168739 C21.46483877 2.88194637 17.15491227 2.88196805 12.84487724 2.88920403 C11.27121832 2.89024267 9.69755268 2.88793023 8.12390518 2.88184357 C-0.79177167 2.84961938 -9.33037549 3.29689534 -18.08358765 5.13371277 C-18.08358765 4.47371277 -18.08358765 3.81371277 -18.08358765 3.13371277 C-12.09817669 0.49309029 -6.49800651 0.0088509 0 0 Z " fill="#C30B11" transform="translate(563.0835876464844,238.8662872314453)"/>
<path d="M0 0 C1.27288879 -0.01142029 2.54577759 -0.02284058 3.85723877 -0.03460693 C5.26568564 -0.0370975 6.67413296 -0.03934772 8.08258057 -0.04138184 C9.56771333 -0.05064185 11.05284136 -0.06069167 12.53796387 -0.07147217 C16.5711916 -0.09769071 20.60435278 -0.11060442 24.6376524 -0.11949348 C27.15910165 -0.12536021 29.68053282 -0.13357084 32.20197296 -0.14250183 C40.09568437 -0.16984505 47.98935433 -0.18918115 55.88310981 -0.19690561 C64.98657266 -0.20586344 74.08943437 -0.24094504 83.19271445 -0.2989068 C90.23491252 -0.34218433 97.27694173 -0.3623165 104.31927133 -0.36498785 C108.52273193 -0.36708102 112.7256272 -0.37883131 116.92894745 -0.41462708 C120.88546449 -0.44766586 124.84099368 -0.45186435 128.79759979 -0.43434906 C130.24557142 -0.43281227 131.69359698 -0.44144231 133.14143372 -0.46126556 C140.84570843 -0.5605203 146.47501946 -0.51432765 152.3772316 4.79813385 C152.84750652 5.28744133 153.31778145 5.77674881 153.80230713 6.28088379 C154.79230713 7.27088379 154.79230713 7.27088379 155.80230713 8.28088379 C155.47230713 9.27088379 155.14230713 10.26088379 154.80230713 11.28088379 C153.30230713 9.90588379 153.30230713 9.90588379 151.80230713 8.28088379 C151.80230713 7.62088379 151.80230713 6.96088379 151.80230713 6.28088379 C143.66645854 3.17751739 136.14139503 2.85250872 127.49932861 2.8927002 C126.0838989 2.88862674 124.66847236 2.88328055 123.25305176 2.87677002 C119.43696513 2.86318369 115.62112393 2.86835846 111.80503345 2.87790728 C107.79606681 2.88554773 103.78712 2.8784463 99.77815247 2.87374878 C93.04926819 2.86830455 86.32048298 2.87544836 79.59161377 2.88977051 C71.82984275 2.90610113 64.06830813 2.90080021 56.30654281 2.88429129 C49.62173431 2.87064623 42.93699667 2.86877128 36.25217873 2.8766073 C32.26862438 2.88126641 28.28518091 2.88195736 24.30163383 2.87199783 C20.55616139 2.86328604 16.81099174 2.8694262 13.06555176 2.8866806 C11.04800321 2.89249247 9.03042884 2.88366648 7.01289368 2.8742981 C-2.98177729 2.8328063 -2.98177729 2.8328063 -12.19769287 6.28088379 C-13.40259541 8.21121768 -13.40259541 8.21121768 -14.19769287 10.28088379 C-14.86435954 11.61421712 -15.5310262 12.94755046 -16.19769287 14.28088379 C-16.89691162 12.53869629 -16.89691162 12.53869629 -17.19769287 10.28088379 C-15.90472412 8.21057129 -15.90472412 8.21057129 -14.01019287 6.15588379 C-13.39788818 5.47268066 -12.7855835 4.78947754 -12.15472412 4.08557129 C-8.28298542 0.51522542 -5.21801471 0.02804756 0 0 Z " fill="#D10E10" transform="translate(570.1976928710938,270.7191162109375)"/>
<path d="M0 0 C0.66 0 1.32 0 2 0 C3.25681181 4.86625102 3.15498807 9.65973584 3.16113281 14.64868164 C3.16609772 15.61524689 3.17106262 16.58181213 3.17617798 17.57766724 C3.19076778 20.77183754 3.19759768 23.96595811 3.203125 27.16015625 C3.20888074 29.38870748 3.21463842 31.61725871 3.22039795 33.84580994 C3.23090006 38.52049998 3.23674735 43.19517287 3.24023438 47.86987305 C3.24570579 53.83574588 3.26970837 59.80138897 3.29820633 65.76718998 C3.31691118 70.37339419 3.32204256 74.97954404 3.32357025 79.585783 C3.32658153 81.7836272 3.33455803 83.98147079 3.34775543 86.17927742 C3.4470971 104.00059041 2.79218726 119.29799676 -9.83984375 132.9453125 C-13.65026943 136.5696957 -17.59571012 140 -23 140 C-23 139.34 -23 138.68 -23 138 C-20.91796875 136.52734375 -20.91796875 136.52734375 -18.1875 134.9375 C-17.29417969 134.41027344 -16.40085937 133.88304687 -15.48046875 133.33984375 C-13 132 -13 132 -10 131 C-8.87483915 129.16715557 -8.87483915 129.16715557 -8 127 C-7.33333333 125.66666667 -6.66666667 124.33333333 -6 123 C-5.34 123 -4.68 123 -4 123 C-3.71125 121.865625 -3.4225 120.73125 -3.125 119.5625 C-2.96257813 118.92441406 -2.80015625 118.28632813 -2.6328125 117.62890625 C-2.42398438 116.76136719 -2.21515625 115.89382813 -2 115 C-1.83786577 114.39033418 -1.67573154 113.78066835 -1.50868416 113.15252781 C-0.00629444 107.1186484 0.27354142 101.44707515 0.22705078 95.24780273 C0.22734283 94.21261002 0.22763489 93.1774173 0.22793579 92.1108551 C0.22655198 88.71834683 0.21103558 85.32606325 0.1953125 81.93359375 C0.191579 79.56991191 0.18873362 77.20622851 0.18673706 74.84254456 C0.17912718 68.64313429 0.15950147 62.44381881 0.1373291 56.2444458 C0.11681359 49.9097217 0.10772316 43.57498217 0.09765625 37.24023438 C0.07625303 24.82678144 0.04214914 12.41339862 0 0 Z " fill="#CD1B20" transform="translate(758,272)"/>
<path d="M0 0 C0.66 0 1.32 0 2 0 C2.48509793 1.37291868 2.96275513 2.74846703 3.4375 4.125 C3.70433594 4.89070312 3.97117187 5.65640625 4.24609375 6.4453125 C5.82230595 11.78646679 6.125993 16.90757103 6.12939453 22.45825195 C6.13114685 23.17928604 6.13289917 23.90032013 6.13470459 24.64320374 C6.13907907 27.00825459 6.13620228 29.37322974 6.1328125 31.73828125 C6.13348644 33.38640863 6.13445721 35.03453592 6.13571167 36.68266296 C6.13718235 40.12642367 6.13505296 43.57015835 6.13037109 47.01391602 C6.12465171 51.43714352 6.12797068 55.86031063 6.13394356 60.28353596 C6.13754708 63.68145711 6.13641195 67.07936381 6.13381577 70.47728539 C6.13314707 72.10924474 6.13397291 73.74120539 6.13629532 75.37316322 C6.13882083 77.6450515 6.13498377 79.91683991 6.12939453 82.1887207 C6.12859894 83.48300491 6.12780334 84.77728912 6.12698364 86.11079407 C6 89 6 89 5 90 C2.36883731 90.12578353 -0.2346592 90.18864944 -2.8671875 90.203125 C-4.05297897 90.21167511 -4.05297897 90.21167511 -5.26272583 90.22039795 C-6.93897151 90.22986208 -8.61523592 90.23638752 -10.29150391 90.24023438 C-12.85742683 90.24993357 -15.42254677 90.28093994 -17.98828125 90.3125 C-19.61457856 90.31903043 -21.24088162 90.32428074 -22.8671875 90.328125 C-24.02044022 90.3466452 -24.02044022 90.3466452 -25.19699097 90.36553955 C-30.54675567 90.34315654 -30.54675567 90.34315654 -33.00830078 88.47949219 C-33.33556152 87.99125977 -33.66282227 87.50302734 -34 87 C-30.81714304 85.40857152 -27.4129558 85.99991716 -23.9296875 86.12109375 C-23.13345978 86.14470474 -22.33723206 86.16831573 -21.51687622 86.19264221 C-18.96940471 86.26932211 -16.4222339 86.35332761 -13.875 86.4375 C-12.14975438 86.49071637 -10.42449402 86.5434568 -8.69921875 86.59570312 C-4.46595478 86.72494307 -0.23294618 86.86075419 4 87 C3.93852342 77.67175994 3.86122901 68.34381893 3.76428509 59.01587963 C3.71974508 54.68353865 3.68045393 50.35128817 3.65356445 46.01879883 C3.62736681 41.82998769 3.58685105 37.64152794 3.53681374 33.45293617 C3.52025544 31.86277991 3.50867299 30.27256303 3.50238609 28.68233299 C3.46688149 20.51983211 3.21867767 12.94389748 0.63825989 5.10005188 C0 3 0 3 0 0 Z " fill="#C70A11" transform="translate(715,138)"/>
<path d="M0 0 C0.33 0 0.66 0 1 0 C1 23.76 1 47.52 1 72 C11.56 72 22.12 72 33 72 C33 72.66 33 73.32 33 74 C30.03749913 75.48125044 27.36087105 75.12990684 24.05859375 75.1328125 C23.37571793 75.13376923 22.6928421 75.13472595 21.98927307 75.13571167 C20.54598905 75.13639223 19.10270197 75.1345466 17.65942383 75.13037109 C15.44280172 75.12501282 13.22638148 75.13032443 11.00976562 75.13671875 C9.60937455 75.13605811 8.2089836 75.13477723 6.80859375 75.1328125 C4.88744751 75.13112061 4.88744751 75.13112061 2.92749023 75.12939453 C0 75 0 75 -1 74 C-1.09967586 71.73550621 -1.12799831 69.46785789 -1.12939453 67.20117188 C-1.13114685 66.49062149 -1.13289917 65.78007111 -1.13470459 65.04798889 C-1.13912277 62.68821809 -1.13618525 60.32852163 -1.1328125 57.96875 C-1.13348555 56.33589666 -1.13445558 54.70304342 -1.13571167 53.07019043 C-1.1371886 49.64362639 -1.13503426 46.21708837 -1.13037109 42.79052734 C-1.1246738 38.38845499 -1.12795284 33.98644359 -1.13394356 29.58437347 C-1.13754931 26.21131935 -1.13641052 22.83827978 -1.13381577 19.46522522 C-1.13314654 17.84163913 -1.13397478 16.21805173 -1.13629532 14.59446716 C-1.13882209 12.3292183 -1.13498094 10.0640695 -1.12939453 7.79882812 C-1.12859894 6.50722778 -1.12780334 5.21562744 -1.12698364 3.8848877 C-1 1 -1 1 0 0 Z " fill="#CC0503" transform="translate(560,153)"/>
<path d="M0 0 C4.05843805 2.21519825 7.07411006 4.82101673 10.34106445 8.08227539 C10.84898026 8.58668655 11.35689606 9.09109772 11.88020325 9.61079407 C13.54627293 11.26810888 15.20497659 12.93257451 16.86328125 14.59765625 C18.02169564 15.75472283 19.18040673 16.91149242 20.33940125 18.06797791 C22.76086397 20.48649838 25.1786875 22.90858402 27.59399414 25.33325195 C30.69551436 28.44620447 33.80597811 31.55004143 36.91918659 34.65129948 C39.31018818 37.03509084 41.69642657 39.42360426 44.08122826 41.81359673 C45.22687011 42.96057542 46.37400686 44.10606292 47.52263832 45.25004768 C49.12194048 46.84429425 50.71473041 48.44476945 52.3059082 50.04711914 C53.21460159 50.95740372 54.12329498 51.86768829 55.05952454 52.80555725 C57 55 57 55 57 57 C57.87398437 57.38671875 57.87398437 57.38671875 58.765625 57.78125 C61.1802903 59.09834017 62.81740177 60.55088384 64.75 62.5 C65.36359375 63.1084375 65.9771875 63.716875 66.609375 64.34375 C68 66 68 66 68 68 C68.61875 68.2475 69.2375 68.495 69.875 68.75 C72.35068687 70.20628639 72.95125002 71.37812506 74 74 C71.14295152 72.70167721 69.07876583 71.32947093 66.86151123 69.11547852 C66.26702179 68.52662872 65.67253235 67.93777893 65.06002808 67.33108521 C64.41985748 66.68686615 63.77968689 66.04264709 63.12011719 65.37890625 C62.43678314 64.69907684 61.7534491 64.01924744 61.04940796 63.31881714 C58.79350769 61.0717155 56.54499672 58.81738177 54.296875 56.5625 C52.73346744 55.00043931 51.16976307 53.43867565 49.60577393 51.87719727 C46.33092324 48.60529505 43.05971771 45.32980228 39.79101562 42.05175781 C35.59200289 37.84133195 31.38405143 33.63997221 27.17335129 29.4412384 C23.94424384 26.21934087 20.71989404 22.99271614 17.49698639 19.76461792 C15.94663751 18.21293112 14.39479126 16.66273897 12.84145355 15.11404419 C10.67687295 12.95451655 8.51876369 10.78872728 6.36230469 8.62109375 C5.71403717 7.97687469 5.06576965 7.33265564 4.39785767 6.66891479 C0 2.2285298 0 2.2285298 0 0 Z " fill="#CD1F20" transform="translate(608,151)"/>
<path d="M0 0 C18.37632475 -0.04676385 36.752634 -0.08201033 55.12900543 -0.10362434 C63.66187024 -0.11392778 72.19469802 -0.12797027 80.72753906 -0.15087891 C88.16656377 -0.17084136 95.60556166 -0.18372322 103.04461241 -0.18817699 C106.98188822 -0.19077953 110.91908732 -0.19687719 114.8563385 -0.21146011 C118.56629861 -0.22508917 122.27615081 -0.22921193 125.98613358 -0.22621536 C127.98848094 -0.22702328 129.99081669 -0.23775697 131.99313354 -0.24884033 C140.68315096 -0.22902646 147.702674 0.50974461 155.5 4.625 C156.3559375 5.07101563 157.211875 5.51703125 158.09375 5.9765625 C158.7228125 6.31429687 159.351875 6.65203125 160 7 C160 7.33 160 7.66 160 8 C155.27405707 8.25093502 152.2262847 6.99344012 147.98828125 5.0703125 C139.29180338 1.95549559 130.63033045 1.69728361 121.47216797 1.68115234 C120.15397568 1.67110672 118.83578339 1.6610611 117.47764587 1.65071106 C113.89365368 1.62361453 110.30970033 1.60832271 106.72563314 1.59528303 C102.96866539 1.57956254 99.21177595 1.55280118 95.4548645 1.5272522 C88.35432576 1.48062127 81.25377202 1.44380169 74.15315926 1.41057932 C66.06355261 1.37224651 57.97402491 1.3228659 49.88448501 1.27259517 C33.2563802 1.16950887 16.62823142 1.08017334 0 1 C0 0.67 0 0.34 0 0 Z " fill="#CE1A1D" transform="translate(583,239)"/>
<path d="M0 0 C-5.97210105 5.97210105 -17.96816407 5.32210017 -25.96853161 5.34817982 C-28.42319582 5.33968887 -30.87747049 5.31663389 -33.33203125 5.29296875 C-35.06222665 5.28735946 -36.79242688 5.28309568 -38.52262878 5.28010559 C-43.03204982 5.26876157 -47.54117163 5.23938699 -52.05047607 5.20599365 C-56.66967727 5.17506492 -61.28892778 5.16155199 -65.90820312 5.14648438 C-74.9389321 5.11450508 -83.96944097 5.06343847 -93 5 C-92.67 4.34 -92.34 3.68 -92 3 C-90.61510124 2.99120064 -90.61510124 2.99120064 -89.20222473 2.98222351 C-80.45000298 2.92403023 -71.69802922 2.85180367 -62.94604969 2.76428509 C-58.44785711 2.71978609 -53.94975086 2.68048644 -49.45141602 2.65356445 C-45.10050755 2.62732522 -40.749935 2.58678169 -36.39923668 2.53681374 C-34.74932765 2.52028307 -33.0993607 2.50868374 -31.44938087 2.50238609 C-22.43243292 2.4645284 -14.26334951 2.01423187 -5.50761414 -0.45939636 C-3 -1 -3 -1 0 0 Z " fill="#C80507" transform="translate(736,412)"/>
<path d="M0 0 C0.98484375 -0.03738281 1.9696875 -0.07476562 2.984375 -0.11328125 C13.03380165 1.19699089 19.08555005 8.6676418 25.75 15.5625 C26.77249353 16.60509328 27.7959241 17.64676845 28.8203125 18.6875 C31.30777137 21.21866887 33.7823062 23.76204041 36.25 26.3125 C35.755 27.7975 35.755 27.7975 35.25 29.3125 C34.07737096 28.19371617 32.91204862 27.06726949 31.75 25.9375 C30.77546875 24.99777344 30.77546875 24.99777344 29.78125 24.0390625 C28.25 22.3125 28.25 22.3125 28.25 20.3125 C27.6523584 20.04373047 27.0547168 19.77496094 26.43896484 19.49804688 C24.24057956 18.30739788 22.91949679 17.16198278 21.2265625 15.34375 C20.68 14.77269531 20.1334375 14.20164062 19.5703125 13.61328125 C18.4437682 12.4166524 17.32133176 11.21614239 16.203125 10.01171875 C12.17496802 5.82281372 8.93849777 3.8160715 3.046875 3.01171875 C-2.21166816 2.98161259 -6.61313483 3.95128909 -11.5859375 5.65625 C-13.75 6.3125 -13.75 6.3125 -16.75 6.3125 C-17.08 7.3025 -17.41 8.2925 -17.75 9.3125 C-19.72133986 10.68785339 -21.72681922 12.01461044 -23.75 13.3125 C-25.79718185 14.9299123 -27.76842192 16.61400451 -29.75 18.3125 C-28.81493369 13.15273651 -25.77065422 10.47450603 -21.75 7.3125 C-14.59076236 3.12537407 -8.32036277 0.20477577 0 0 Z " fill="#CD1B1C" transform="translate(601.75,107.6875)"/>
<path d="M0 0 C1.79457676 3.08782978 2.24576692 5.30428435 2.22705078 8.86035156 C2.22689972 9.82104553 2.22674866 10.7817395 2.22659302 11.77154541 C2.21627045 12.80084167 2.20594788 13.83013794 2.1953125 14.890625 C2.1924826 15.95037537 2.18965271 17.01012573 2.18673706 18.10198975 C2.17554734 21.48477497 2.1504447 24.86729487 2.125 28.25 C2.11496865 30.54426701 2.10584307 32.83853817 2.09765625 35.1328125 C2.07561196 40.75529877 2.04214627 46.37763043 2 52 C-2.03546204 50.73401967 -4.67676744 49.82356117 -7.5625 46.6875 C-8.14644531 46.06617188 -8.73039063 45.44484375 -9.33203125 44.8046875 C-9.88246094 44.20914063 -10.43289063 43.61359375 -11 43 C-11.9075 42.113125 -12.815 41.22625 -13.75 40.3125 C-15.70785984 38.30025517 -17.38703529 36.29210775 -19 34 C-15.69881206 34.5805321 -14.08865924 35.54868099 -11.765625 37.94140625 C-11.19199219 38.52470703 -10.61835937 39.10800781 -10.02734375 39.70898438 C-9.44082031 40.32064453 -8.85429688 40.93230469 -8.25 41.5625 C-7.64800781 42.17802734 -7.04601562 42.79355469 -6.42578125 43.42773438 C-4.94365619 44.94514813 -3.4709033 46.47170596 -2 48 C-1.97494385 46.794646 -1.9498877 45.58929199 -1.92407227 44.34741211 C-1.82954335 39.85398646 -1.72943561 35.36069909 -1.62768555 30.86743164 C-1.58450808 28.92670946 -1.54282169 26.98595348 -1.50268555 25.04516602 C-1.44456434 22.24745523 -1.38099284 19.44991186 -1.31640625 16.65234375 C-1.29133751 15.36129982 -1.29133751 15.36129982 -1.26576233 14.04417419 C-1.14990156 9.2789648 -0.77976801 4.70358286 0 0 Z " fill="#D52426" transform="translate(688,134)"/>
<path d="M0 0 C0.66 0 1.32 0 2 0 C1.83923477 0.84152618 1.67846954 1.68305237 1.51283264 2.55007935 C0.97871436 6.14319245 0.83991264 9.56701407 0.79467773 13.19873047 C0.78477814 13.89211014 0.77487854 14.58548981 0.76467896 15.29988098 C0.73330674 17.57228277 0.70840353 19.84470541 0.68359375 22.1171875 C0.6630032 23.70045488 0.6420062 25.28371703 0.62062073 26.86697388 C0.56561691 31.01956929 0.51611265 35.17221251 0.46777344 39.32489014 C0.41739932 43.56819884 0.36179658 47.81143873 0.30664062 52.0546875 C0.19932464 60.36973335 0.09782151 68.68483705 0 77 C-0.99 77 -1.98 77 -3 77 C-3 62.81 -3 48.62 -3 34 C-2.67 34 -2.34 34 -2 34 C-1.97494385 33.00556885 -1.9498877 32.0111377 -1.92407227 30.98657227 C-1.83015118 27.30951253 -1.72989381 23.6326485 -1.62768555 19.95581055 C-1.58427854 18.362107 -1.54260781 16.7683552 -1.50268555 15.17456055 C-1.44512193 12.88836092 -1.38138851 10.60240551 -1.31640625 8.31640625 C-1.29969376 7.59973282 -1.28298126 6.88305939 -1.26576233 6.14466858 C-1.11387171 1.11387171 -1.11387171 1.11387171 0 0 Z " fill="#D92123" transform="translate(593,148)"/>
<path d="M0 0 C2.02285879 2.02285879 4.03915012 4.041597 6 6.125 C10.12678373 9.99385974 13.88758036 10.32048774 19.390625 10.4140625 C20.44754547 10.44311172 20.44754547 10.44311172 21.52581787 10.4727478 C23.76709039 10.53232735 26.00841489 10.57884123 28.25 10.625 C29.77345938 10.66319979 31.29689762 10.70225269 32.8203125 10.7421875 C36.54668106 10.83801018 40.27320835 10.92212107 44 11 C44 11.99 44 12.98 44 14 C39.87410925 14.07477218 35.74848692 14.12889223 31.62207031 14.16479492 C30.22160969 14.17977914 28.82119517 14.20017379 27.42089844 14.22631836 C10.2385603 14.53883592 10.2385603 14.53883592 3.94140625 9.28125 C3.48636719 8.6934375 3.03132812 8.105625 2.5625 7.5 C1.85287109 6.61828125 1.85287109 6.61828125 1.12890625 5.71875 C0 4 0 4 -1 1 C-0.67 0.67 -0.34 0.34 0 0 Z " fill="#D1292A" transform="translate(553,371)"/>
<path d="M0 0 C0.66 0 1.32 0 2 0 C2.48509793 1.37291868 2.96275513 2.74846703 3.4375 4.125 C3.70433594 4.89070312 3.97117187 5.65640625 4.24609375 6.4453125 C6.25556069 13.25459426 6.13048425 19.92331852 6.09765625 26.9609375 C6.0962413 28.10664215 6.09482635 29.2523468 6.09336853 30.43276978 C6.0877858 34.08020678 6.07523641 37.72758165 6.0625 41.375 C6.05748277 43.85286369 6.05292025 46.33072835 6.04882812 48.80859375 C6.03782201 54.87241691 6.02110103 60.93620402 6 67 C5.67 67 5.34 67 5 67 C4.97240852 66.04065804 4.97240852 66.04065804 4.94425964 65.06193542 C4.74890334 58.36079449 4.53485459 51.66042983 4.31030273 44.96020508 C4.22908015 42.4649117 4.15250674 39.96946222 4.08081055 37.47387695 C3.97648445 33.87138878 3.85503858 30.2698071 3.73046875 26.66796875 C3.70220505 25.56543259 3.67394135 24.46289642 3.64482117 23.32695007 C3.4060994 16.96980171 2.52651248 11.33424426 0.63056946 5.25386047 C0 3 0 3 0 0 Z " fill="#CB111A" transform="translate(715,138)"/>
<path d="M0 0 C4.55307955 -0.1493692 9.10470518 -0.25768452 13.65966797 -0.32958984 C15.2058194 -0.35959028 16.75180311 -0.40040631 18.29736328 -0.45263672 C32.78975447 -0.92979098 32.78975447 -0.92979098 37.9375 2.8984375 C39.65234375 4.50537109 39.65234375 4.50537109 41 6 C41.66 6.66 42.32 7.32 43 8 C42.67 8.99 42.34 9.98 42 11 C40.5 9.625 40.5 9.625 39 8 C39 7.34 39 6.68 39 6 C30.57640317 2.74982233 22.28440834 2.45975419 13.375 2.3125 C11.97523005 2.27924938 10.57548912 2.24475287 9.17578125 2.20898438 C5.78393514 2.12711223 2.39232789 2.05776212 -1 2 C-0.67 1.34 -0.34 0.68 0 0 Z " fill="#CF0E10" transform="translate(683,271)"/>
<path d="M0 0 C0.99 0.33 1.98 0.66 3 1 C5.72883073 1.15370348 8.43697142 1.25728265 11.16796875 1.31640625 C11.96278152 1.33718735 12.7575943 1.35796844 13.57649231 1.37937927 C16.11340763 1.44472087 18.65042573 1.50368808 21.1875 1.5625 C22.90821372 1.60569986 24.62891708 1.64931463 26.34960938 1.69335938 C30.56630113 1.80038648 34.7830962 1.90169724 39 2 C38.67 2.66 38.34 3.32 38 4 C32.92801112 4.07413521 27.85633732 4.12859451 22.78393555 4.16479492 C21.05829373 4.17988516 19.33269028 4.20035975 17.60717773 4.22631836 C15.12734512 4.26269209 12.64801936 4.27972359 10.16796875 4.29296875 C9.01001045 4.31619453 9.01001045 4.31619453 7.82865906 4.33988953 C2.45230967 4.34158031 2.45230967 4.34158031 -0.01049805 2.48168945 C-0.33703369 1.99273193 -0.66356934 1.50377441 -1 1 C-0.67 0.67 -0.34 0.34 0 0 Z " fill="#DB0000" transform="translate(682,224)"/>
<path d="M0 0 C1.69663699 5.08991097 -0.68048014 9.35488825 -3 14 C-7.44000399 20.17247614 -12.90051774 25.94818636 -20 29 C-20.99 29 -21.98 29 -23 29 C-23 28.34 -23 27.68 -23 27 C-20.91796875 25.52734375 -20.91796875 25.52734375 -18.1875 23.9375 C-17.29417969 23.41027344 -16.40085937 22.88304687 -15.48046875 22.33984375 C-13 21 -13 21 -10 20 C-8.87483915 18.16715557 -8.87483915 18.16715557 -8 16 C-7.33333333 14.66666667 -6.66666667 13.33333333 -6 12 C-5.34 12 -4.68 12 -4 12 C-3.71125 10.7625 -3.4225 9.525 -3.125 8.25 C-2.38665206 5.27551258 -1.55525067 2.666144 0 0 Z " fill="#D6171D" transform="translate(758,383)"/>
<path d="M0 0 C10.05740091 2.57882075 18.52102955 9.89246832 24.4375 18.25 C26 21 26 21 26 24 C25.34 24 24.68 24 24 24 C23.67 23.175 23.34 22.35 23 21.5 C21.03834775 17.48100515 17.88325894 14.74551642 14.64453125 11.734375 C13 10 13 10 13 8 C12.278125 7.71125 11.55625 7.4225 10.8125 7.125 C8.20833333 6.08333333 5.60416667 5.04166667 3 4 C3 3.34 3 2.68 3 2 C2.34 2 1.68 2 1 2 C1 3.65 1 5.3 1 7 C0.01 7.495 0.01 7.495 -1 8 C-1.04241723 5.66705225 -1.04092937 3.33297433 -1 1 C-0.67 0.67 -0.34 0.34 0 0 Z " fill="#D5191B" transform="translate(688,110)"/>
<path d="M0 0 C4.46583643 0.57254313 8.44601961 1.75580421 12.65625 3.28125 C18.12422316 4.9580951 23.70244497 5.24963756 29.375 5.5625 C30.11105469 5.60568359 30.84710937 5.64886719 31.60546875 5.69335938 C33.40348068 5.79843799 35.20171958 5.89962093 37 6 C36.67 6.66 36.34 7.32 36 8 C23.06032987 8.4832242 11.49816946 7.53817479 0 1 C0 0.67 0 0.34 0 0 Z " fill="#CE080A" transform="translate(538,409)"/>
<path d="M0 0 C4 4 4 4 5.6875 6.0625 C13.17150007 12.33287843 23.73939159 11.67048142 33 12 C33 12.33 33 12.66 33 13 C29.4375692 13.05827558 25.87526181 13.09368885 22.3125 13.125 C20.80139648 13.15013672 20.80139648 13.15013672 19.25976562 13.17578125 C18.28330078 13.18222656 17.30683594 13.18867188 16.30078125 13.1953125 C15.40528564 13.20578613 14.50979004 13.21625977 13.5871582 13.22705078 C9.85601913 12.89960345 7.00462062 11.92238398 4.234375 9.37890625 C3.74453125 8.77949219 3.2546875 8.18007813 2.75 7.5625 C1.99976563 6.66724609 1.99976563 6.66724609 1.234375 5.75390625 C0 4 0 4 -1 1 C-0.67 0.67 -0.34 0.34 0 0 Z " fill="#D71F1F" transform="translate(553,371)"/>
<path d="M0 0 C4.08335544 0.52886833 5.94353018 2.59629038 8.765625 5.47265625 C10.09980469 6.82133789 10.09980469 6.82133789 11.4609375 8.19726562 C12.38132812 9.14279297 13.30171875 10.08832031 14.25 11.0625 C15.19461673 12.02216973 16.13992195 12.98116229 17.0859375 13.93945312 C19.39749172 16.28638828 21.7017634 18.64003391 24 21 C23.67 21.99 23.34 22.98 23 24 C21.82737096 22.88121617 20.66204862 21.75476949 19.5 20.625 C18.8503125 19.99851563 18.200625 19.37203125 17.53125 18.7265625 C16 17 16 17 16 15 C15.46890625 14.79503906 14.9378125 14.59007813 14.390625 14.37890625 C10.98175578 12.4126794 8.48804099 9.73776919 5.75 6.9375 C5.19570313 6.38255859 4.64140625 5.82761719 4.0703125 5.25585938 C0 1.14043257 0 1.14043257 0 0 Z " fill="#D31F22" transform="translate(614,113)"/>
<path d="M0 0 C0.33 0 0.66 0 1 0 C1.01981934 0.56920166 1.03963867 1.13840332 1.06005859 1.72485352 C1.15611758 4.33781712 1.26546407 6.95006802 1.375 9.5625 C1.42140625 10.90538086 1.42140625 10.90538086 1.46875 12.27539062 C1.73912486 21.06361055 1.73912486 21.06361055 5.4375 28.8125 C6.91455582 29.93506242 8.45636387 30.97090925 10 32 C8.515 32.495 8.515 32.495 7 33 C2.66681615 30.17016565 0.63991773 28.31662298 -0.68041992 23.14013672 C-1.33059028 18.78613109 -0.92393844 14.43596945 -0.625 10.0625 C-0.56828125 9.09248047 -0.5115625 8.12246094 -0.453125 7.12304688 C-0.31271847 4.74783646 -0.16142622 2.37385876 0 0 Z " fill="#D7181A" transform="translate(575,417)"/>
<path d="M0 0 C-2 2 -2 2 -4.75 3.1875 C-8.33026121 5.18418414 -10.09205747 7.24190746 -12.5078125 10.4765625 C-14.27475802 12.28051211 -15.54054229 12.60944234 -18 13 C-15.45024158 6.74150205 -7.27150814 -2.57764621 0 0 Z " fill="#D61D1D" transform="translate(546,244)"/>
<path d="M0 0 C5.05063833 4.30239561 8.34757067 10.13934834 9.8125 16.5625 C9.874375 17.366875 9.93625 18.17125 10 19 C9.01 18.67 8.02 18.34 7 18 C5.9375 15.85546875 5.9375 15.85546875 5 13.1875 C4.01181947 10.40000742 3.2048504 8.26147971 1.375 5.92578125 C0 4 0 4 0 0 Z " fill="#D42125" transform="translate(749,252)"/>
<path d="M0 0 C6.92988052 0.14437251 10.19760593 3.22255343 15 8 C14.67 8.99 14.34 9.98 14 11 C12.5 9.625 12.5 9.625 11 8 C11 7.34 11 6.68 11 6 C10.28972656 5.81824219 9.57945312 5.63648438 8.84765625 5.44921875 C7.92855469 5.19785156 7.00945313 4.94648438 6.0625 4.6875 C5.14597656 4.44386719 4.22945312 4.20023437 3.28515625 3.94921875 C2.53105469 3.63597656 1.77695312 3.32273437 1 3 C0.67 2.01 0.34 1.02 0 0 Z " fill="#D5171D" transform="translate(711,271)"/>
<path d="M0 0 C4.31730413 0.47409648 6.33647461 3.03396703 9.25 6.0625 C10.14203125 6.98160156 11.0340625 7.90070313 11.953125 8.84765625 C12.62859375 9.55792969 13.3040625 10.26820313 14 11 C13.01 11.33 12.02 11.66 11 12 C9.5 10.625 9.5 10.625 8 9 C8 8.34 8 7.68 8 7 C7.01 6.67 6.02 6.34 5 6 C5 5.34 5 4.68 5 4 C4.34 4 3.68 4 3 4 C3 3.34 3 2.68 3 2 C2.01 1.67 1.02 1.34 0 1 C0 0.67 0 0.34 0 0 Z " fill="#D91B1D" transform="translate(639,138)"/>
<path d="M0 0 C-2.34240025 2.34240025 -3.17088283 2.36283032 -6.375 2.6875 C-7.14585937 2.77386719 -7.91671875 2.86023438 -8.7109375 2.94921875 C-11.01248374 3.00027694 -12.80691012 2.66593825 -15 2 C-15 1.34 -15 0.68 -15 0 C-13.14375 0.0309375 -13.14375 0.0309375 -11.25 0.0625 C-7.17095853 0.07688815 -3.86618566 -1.28872855 0 0 Z " fill="#D4070B" transform="translate(599,449)"/>
<path d="M0 0 C2.1875 -0.375 2.1875 -0.375 5 0 C6.99022836 1.83961648 8.38989899 3.79186148 10 6 C9.01 6 8.02 6 7 6 C6.566875 5.484375 6.13375 4.96875 5.6875 4.4375 C5.130625 3.963125 4.57375 3.48875 4 3 C0.85078091 3.23283149 0.85078091 3.23283149 -2 4 C-1.34 2.68 -0.68 1.36 0 0 Z " fill="#C81F20" transform="translate(597,143)"/>
<path d="M0 0 C0.66 0 1.32 0 2 0 C1.01 4.62 0.02 9.24 -1 14 C-1.66 14 -2.32 14 -3 14 C-3.34615998 8.34605369 -2.43425238 4.96993194 0 0 Z " fill="#D21D1D" transform="translate(563,139)"/>
<path d="M0 0 C0.66 0 1.32 0 2 0 C5.44419134 9.41002278 5.44419134 9.41002278 5 14 C4.34 14 3.68 14 3 14 C2.49528803 12.23050388 1.99639315 10.45934777 1.5 8.6875 C1.2215625 7.70136719 0.943125 6.71523437 0.65625 5.69921875 C0 3 0 3 0 0 Z " fill="#CE1E20" transform="translate(715,138)"/>
<path d="M0 0 C2.03833424 1.2739589 4.03852126 2.61061923 6 4 C6 4.66 6 5.32 6 6 C8.475 6.99 8.475 6.99 11 8 C9.234375 8.671875 9.234375 8.671875 7 9 C5.078125 7.890625 5.078125 7.890625 3.25 6.25 C2.63640625 5.71890625 2.0228125 5.1878125 1.390625 4.640625 C0 3 0 3 0 0 Z " fill="#CF1E20" transform="translate(530,400)"/>
<path d="M0 0 C1.21065165 3.63195496 0.62784815 5.06531629 -0.4375 8.6875 C-0.86869141 10.17830078 -0.86869141 10.17830078 -1.30859375 11.69921875 C-1.53675781 12.45847656 -1.76492188 13.21773438 -2 14 C-2.66 13.67 -3.32 13.34 -4 13 C-3.40895235 8.15340923 -2.02055843 4.39251833 0 0 Z " fill="#D21B1D" transform="translate(524,262)"/>
<path d="M0 0 C4.19469571 0.59924224 8.00999834 1.57499941 12 3 C12 3.66 12 4.32 12 5 C12.66 5.33 13.32 5.66 14 6 C8.65155992 5.46515599 4.64203897 3.53309233 0 1 C0 0.67 0 0.34 0 0 Z " fill="#D31215" transform="translate(538,409)"/>
<path d="M0 0 C0.33 0.66 0.66 1.32 1 2 C-2.96 2.66 -6.92 3.32 -11 4 C-11 3.34 -11 2.68 -11 2 C-7.17010894 0.19769832 -4.21878192 -0.19622241 0 0 Z " fill="#C51515" transform="translate(556,240)"/>
<path d="M0 0 C0.66 0 1.32 0 2 0 C0.68938409 4.23429756 -0.94356259 8.07407404 -3 12 C-3.66 11.01 -4.32 10.02 -5 9 C-3.35 6.03 -1.7 3.06 0 0 Z " fill="#D32020" transform="translate(569,126)"/>
<path d="M0 0 C0.66 0.33 1.32 0.66 2 1 C0.7391988 2.03319813 -0.53403258 3.05124379 -1.8125 4.0625 C-2.87404297 4.91521484 -2.87404297 4.91521484 -3.95703125 5.78515625 C-4.63121094 6.18605469 -5.30539062 6.58695312 -6 7 C-6.99 6.67 -7.98 6.34 -9 6 C-8.01 5.67 -7.02 5.34 -6 5 C-6 4.34 -6 3.68 -6 3 C-4.03533587 1.93224776 -2.03144641 0.93446535 0 0 Z " fill="#D22024" transform="translate(606,405)"/>
<path d="M0 0 C0.66 0 1.32 0 2 0 C2.53229326 1.26607607 3.05044544 2.53810412 3.5625 3.8125 C3.85253906 4.52019531 4.14257812 5.22789062 4.44140625 5.95703125 C5 8 5 8 4 11 C1.52214277 7.33708062 0.51035831 4.3890815 0 0 Z " fill="#D4181D" transform="translate(521,384)"/>
<path d="M0 0 C-3.00617269 3.00617269 -5.82381598 2.59585316 -10 3 C-10 2.34 -10 1.68 -10 1 C-3.375 -1.125 -3.375 -1.125 0 0 Z " fill="#CB090F" transform="translate(736,412)"/>
<path d="M0 0 C0 0.99 0 1.98 0 3 C-2.97 3 -5.94 3 -9 3 C-5.92807025 0.26939578 -4.09590633 -0.34132553 0 0 Z " fill="#D52323" transform="translate(597,382)"/>
<path d="M0 0 C0.66 0 1.32 0 2 0 C2.33 2.97 2.66 5.94 3 9 C2.01 8.67 1.02 8.34 0 8 C0 5.36 0 2.72 0 0 Z " fill="#CB1B1F" transform="translate(758,272)"/>
<path d="M0 0 C2.31 1.98 4.62 3.96 7 6 C6.67 6.99 6.34 7.98 6 9 C4.99105628 8.07213211 3.99309093 7.13231567 3 6.1875 C2.1646875 5.40439453 2.1646875 5.40439453 1.3125 4.60546875 C0 3 0 3 0 0 Z " fill="#CD2A2B" transform="translate(679,176)"/>
<path d="M0 0 C1.14926266 0.95421808 2.29430541 1.91352045 3.4375 2.875 C4.07558594 3.40867188 4.71367188 3.94234375 5.37109375 4.4921875 C7 6 7 6 8 8 C4.21479387 7.45925627 2.40822445 5.92427254 0 3 C0 2.01 0 1.02 0 0 Z " fill="#D9181A" transform="translate(662,159)"/>
<path d="M0 0 C1.86323318 0.25288812 3.71708432 0.57690153 5.5625 0.9375 C6.57441406 1.13214844 7.58632813 1.32679688 8.62890625 1.52734375 C9.80259766 1.76130859 9.80259766 1.76130859 11 2 C11 2.33 11 2.66 11 3 C9.56589632 3.24954005 8.12739928 3.47392642 6.6875 3.6875 C5.88699219 3.81511719 5.08648438 3.94273437 4.26171875 4.07421875 C2 4 2 4 0.20703125 2.51953125 C-0.19128906 2.01808594 -0.58960938 1.51664063 -1 1 C-0.67 0.67 -0.34 0.34 0 0 Z " fill="#D10001" transform="translate(682,224)"/>
<path d="M0 0 C0 0.99 0 1.98 0 3 C-2.8125 4.5625 -2.8125 4.5625 -6 6 C-6.99 5.67 -7.98 5.34 -9 5 C-6.03 3.35 -3.06 1.7 0 0 Z " fill="#D61414" transform="translate(589,110)"/>
<path d="M0 0 C0.99 0 1.98 0 3 0 C1.62845496 2.95409701 0.01136276 5.44008376 -2 8 C-3 5 -3 5 -1.75 2.3125 C-1.1725 1.549375 -0.595 0.78625 0 0 Z " fill="#D0282A" transform="translate(527,256)"/>
<path d="M0 0 C0.99 0.66 1.98 1.32 3 2 C-1.43076923 5.07692308 -1.43076923 5.07692308 -4.3125 4.6875 C-4.869375 4.460625 -5.42625 4.23375 -6 4 C-4.02 2.68 -2.04 1.36 0 0 Z " fill="#D31114" transform="translate(634,383)"/>
<path d="" fill="#000000" transform="translate(0,0)"/>
<path d="" fill="#FF0000" transform="translate(0,0)"/>
</svg>
