<?xml version="1.0" encoding="UTF-8"?>
<svg version="1.1" xmlns="http://www.w3.org/2000/svg" width="1280" height="714">
<path d="M0 0 C2.50475804 -0.00337472 5.00951448 -0.00823279 7.51426697 -0.01449585 C13.40941108 -0.02276981 19.30410403 -0.00543686 25.19918197 0.021258 C29.87784279 0.04003745 34.55597776 0.03337429 39.23461914 0.01220703 C45.72834323 -0.01690676 52.22156278 -0.02126193 58.71533012 -0.00501633 C61.17469848 -0.00170186 63.63408878 -0.00569964 66.09343147 -0.01741409 C82.97231894 -0.08019309 97.35335825 0.20444404 110.15234375 12.6640625 C122.13644031 25.37576492 124.47500726 39.19098601 124.41796875 56.16015625 C124.4198822 57.42948502 124.42179565 58.69881378 124.42376709 60.00660706 C124.42512199 62.67845597 124.42249741 65.34993326 124.41308594 68.02172852 C124.40170435 71.41486346 124.4082574 74.8076814 124.42023087 78.20080471 C124.42927366 81.47893257 124.42290665 84.75702422 124.41796875 88.03515625 C124.42201721 89.23756454 124.42606567 90.43997284 124.43023682 91.67881775 C124.34426478 107.33568594 121.47615693 121.01873852 110.33984375 132.5390625 C98.54726533 143.57082941 85.61387723 144.94572914 70.15234375 145.2265625 C54.74991904 144.58573639 54.74991904 144.58573639 41.02734375 149.9765625 C40.09664063 150.69585937 39.1659375 151.41515625 38.20703125 152.15625 C33.6002656 155.938275 29.06888797 159.80111626 24.5703125 163.7109375 C20.72164037 167.05125389 16.78726424 170.27991212 12.828125 173.48828125 C10.91916342 175.04053177 9.02194962 176.60727623 7.1328125 178.18359375 C6.14925781 179.00214844 5.16570312 179.82070313 4.15234375 180.6640625 C3.26546875 181.4065625 2.37859375 182.1490625 1.46484375 182.9140625 C-2.67850642 186.04957073 -6.82808742 186.06034425 -11.84765625 185.6640625 C-15.36500817 184.52329972 -16.97661973 182.82654012 -18.84765625 179.6640625 C-19.17193974 176.98263538 -19.3356588 174.51958716 -19.359375 171.8359375 C-19.3773262 171.08693176 -19.3952774 170.33792603 -19.41377258 169.56622314 C-19.46780168 167.18222626 -19.50174628 164.7984287 -19.53515625 162.4140625 C-19.568336 160.79424314 -19.60282628 159.17445006 -19.63867188 157.5546875 C-19.72352341 153.59128984 -19.79036914 149.62795053 -19.84765625 145.6640625 C-21.04044189 145.38381226 -21.04044189 145.38381226 -22.25732422 145.09790039 C-36.34353923 141.70018267 -47.81305018 136.37952787 -55.73046875 123.6328125 C-61.38412363 112.81712491 -62.15153949 103.26451898 -62.11328125 91.2890625 C-62.11463103 89.79508399 -62.11657417 88.30110592 -62.11907959 86.80712891 C-62.12201612 83.68713163 -62.11778083 80.56724944 -62.10839844 77.44726562 C-62.09700474 73.46638831 -62.10357213 69.48578077 -62.11554337 65.50491333 C-62.12280187 62.42323813 -62.1204558 59.34162592 -62.11528778 56.25994873 C-62.1139623 54.79286669 -62.11555999 53.32577876 -62.12024689 51.85870361 C-62.16064644 35.66214551 -59.05736966 23.78378955 -47.84765625 11.6640625 C-34.81663099 -1.25414003 -16.98310383 -0.0809718 0 0 Z M-33.84765625 31.6640625 C-37.38119435 37.45381243 -38.96218496 42.51278717 -39.00878906 49.29956055 C-39.01839661 50.43141281 -39.02800415 51.56326508 -39.03790283 52.72941589 C-39.04215271 53.94921646 -39.04640259 55.16901703 -39.05078125 56.42578125 C-39.05648132 57.686147 -39.0621814 58.94651276 -39.0680542 60.24507141 C-39.07750224 62.91398729 -39.08439978 65.5827908 -39.08789062 68.25170898 C-39.0933565 71.64976487 -39.11735069 75.04741626 -39.14586258 78.44534588 C-39.16912409 81.7096264 -39.17094808 84.9739295 -39.17578125 88.23828125 C-39.18812805 89.44796066 -39.20047485 90.65764008 -39.2131958 91.90397644 C-39.19317407 99.56024111 -38.65711984 106.46764853 -34.3046875 112.96875 C-27.04708015 119.89881688 -20.34304985 121.03659774 -10.57055664 121.19873047 C-6.15647189 121.32810052 -3.30463088 121.86409726 0.15234375 124.6640625 C3.92735577 129.08907659 3.69497926 133.92618296 3.83984375 139.4765625 C3.87400391 140.36021484 3.90816406 141.24386719 3.94335938 142.15429688 C4.02544808 144.32378417 4.09058254 146.4939014 4.15234375 148.6640625 C8.69644277 145.32543633 13.12299295 141.88855663 17.46484375 138.2890625 C19.35836327 136.74455483 21.25420158 135.20288557 23.15234375 133.6640625 C24.04050781 132.93316406 24.92867187 132.20226562 25.84375 131.44921875 C37.91632776 122.012575 50.25015287 121.0907121 64.96484375 121.1015625 C67.29201828 121.09792743 69.61845745 121.08817431 71.94548035 121.06080627 C73.37793316 121.04430316 74.81062855 121.0409113 76.24311829 121.05381775 C84.36717679 120.96885223 90.41789284 118.26515409 96.15234375 112.6640625 C99.67287929 107.68675363 100.27503153 103.66119181 100.31347656 97.64550781 C100.32308411 96.43034485 100.33269165 95.21518188 100.34259033 93.9631958 C100.34684021 92.65276306 100.35109009 91.34233032 100.35546875 89.9921875 C100.35829613 89.32182213 100.3611235 88.65145676 100.36403656 87.96077728 C100.37900586 84.41134754 100.3882488 80.86195818 100.39257812 77.3125 C100.39805108 73.66325359 100.42206024 70.0143825 100.45055008 66.36525345 C100.46926641 63.54436194 100.47438687 60.7235591 100.475914 57.90261078 C100.48037608 55.90860155 100.49897989 53.91463995 100.5178833 51.92071533 C100.49911285 44.24158561 100.37829659 37.61224358 95.3203125 31.421875 C94.66675781 30.88304687 94.01320313 30.34421875 93.33984375 29.7890625 C92.37111328 28.95761719 92.37111328 28.95761719 91.3828125 28.109375 C85.55494579 24.33299902 79.75370354 24.37170839 73.05126953 24.3894043 C71.5476738 24.3817379 71.5476738 24.3817379 70.01370239 24.37391663 C66.70829252 24.36004508 63.40309173 24.36097567 60.09765625 24.36328125 C57.79369021 24.35939285 55.48972489 24.35505788 53.1857605 24.35029602 C48.35900549 24.34283894 43.53232363 24.34312131 38.70556641 24.34838867 C32.52968448 24.35418104 26.35410267 24.33725518 20.17827034 24.314044 C15.42038227 24.29928951 10.66256617 24.29843734 5.90465927 24.30155373 C3.62815634 24.30104133 1.35164929 24.29581896 -0.92483139 24.28574181 C-4.11268178 24.27336244 -7.2999514 24.28017858 -10.48779297 24.29174805 C-11.88922546 24.28028244 -11.88922546 24.28028244 -13.31896973 24.26858521 C-21.13208191 24.3310467 -28.18685023 25.84601186 -33.84765625 31.6640625 Z " fill="#F53033" transform="translate(316.84765625,315.3359375)"/>
<path d="M0 0 C1.4117994 1.16847311 2.80880829 2.35514085 4.1875 3.5625 C4.77917969 4.07167969 5.37085938 4.58085937 5.98046875 5.10546875 C19.20042562 17.35737386 27.73921586 34.83437248 28.47509766 52.82958984 C28.60174073 57.8424961 28.60938247 62.85274906 28.57861328 67.86694336 C28.56240821 71.0178473 28.57859415 74.16749227 28.59765625 77.31835938 C28.59567581 79.33594031 28.59183626 81.35352047 28.5859375 83.37109375 C28.59201019 84.30553818 28.59808289 85.2399826 28.6043396 86.20274353 C28.53244485 92.88202647 27.34287694 97.12352083 22.8125 102.25 C17.24665835 107.15324145 12.60789435 108.7375093 5.1875 108.5625 C-2.17152392 106.40554471 -8.19880896 101.63819395 -13.09594727 95.828125 C-16.65179305 91.69972427 -20.41044698 87.83580727 -24.27734375 84 C-24.95551651 83.32324219 -25.63368927 82.64648438 -26.33241272 81.94921875 C-28.46924305 79.81792325 -30.60954823 77.69015782 -32.75 75.5625 C-34.21182123 74.10570221 -35.67341187 72.64867299 -37.13476562 71.19140625 C-40.691354 67.64576027 -44.25106016 64.10327261 -47.8125 60.5625 C-47.83231934 61.65191895 -47.85213867 62.74133789 -47.87255859 63.86376953 C-47.94889058 67.92307833 -48.03756461 71.98204153 -48.12988281 76.04101562 C-48.16805888 77.79452671 -48.20293124 79.54811308 -48.234375 81.30175781 C-48.28027359 83.82904886 -48.3382257 86.35582678 -48.3984375 88.8828125 C-48.40998871 89.66117462 -48.42153992 90.43953674 -48.43344116 91.2414856 C-48.58342087 96.82950313 -48.99706255 101.64332326 -53 105.875 C-56.44981517 107.9448891 -58.79020151 108.49193336 -62.8125 108.5625 C-66.43775975 107.16816933 -69.3802556 105.63480872 -71.8125 102.5625 C-72.82812583 99.51562251 -72.95691817 97.39917949 -72.98950195 94.20825195 C-73.00875481 92.56558098 -73.00875481 92.56558098 -73.02839661 90.88972473 C-73.03578354 89.70537338 -73.04317047 88.52102203 -73.05078125 87.30078125 C-73.058853 86.08102097 -73.06692474 84.86126068 -73.07524109 83.60453796 C-73.0890823 81.01965761 -73.09980428 78.43475897 -73.10766602 75.84985352 C-73.12485604 71.90801042 -73.16874132 67.96701087 -73.21289062 64.02539062 C-73.22301963 61.513027 -73.23153508 59.00065624 -73.23828125 56.48828125 C-73.25578934 55.31405106 -73.27329742 54.13982086 -73.29133606 52.93000793 C-73.27194534 45.5671079 -72.57489147 39.6000367 -67.40034485 34.04707336 C-62.58766875 29.75742945 -58.30483615 28.0870397 -51.84375 28.328125 C-39.63550222 29.73676898 -30.07258331 43.11585083 -21.80419922 51.38549805 C-20.15999468 53.02746794 -18.50787478 54.66121041 -16.85546875 56.29492188 C-15.80680563 57.34065867 -14.75860996 58.38686447 -13.7109375 59.43359375 C-13.21733734 59.92000839 -12.72373718 60.40642303 -12.21517944 60.90757751 C-8.8125 64.33361325 -8.8125 64.33361325 -8.8125 66.5625 C-7.3275 67.0575 -7.3275 67.0575 -5.8125 67.5625 C-5.8125 68.2225 -5.8125 68.8825 -5.8125 69.5625 C-5.173125 69.830625 -4.53375 70.09875 -3.875 70.375 C-1.8125 71.5625 -1.8125 71.5625 -0.8125 74.5625 C-0.1525 74.5625 0.5075 74.5625 1.1875 74.5625 C2.8125 76.0625 2.8125 76.0625 4.1875 77.5625 C4.11782041 73.61501657 4.02948718 69.66840006 3.92504883 65.72167969 C3.87607841 63.73133087 3.84120054 61.74065119 3.80664062 59.75 C3.42926511 46.16448129 0.41483146 35.09413291 -8.9375 24.875 C-19.08036555 15.34206178 -31.49986581 11.1904201 -45.21484375 11.41796875 C-58.96639337 12.18309256 -70.59472761 18.39173154 -79.8125 28.5625 C-87.0678832 38.18010099 -89.25465018 48.15000125 -89.21875 60.01171875 C-89.22958618 61.06857376 -89.24042236 62.12542877 -89.25158691 63.21430969 C-89.29709525 67.69239185 -89.30893264 72.17040979 -89.32373047 76.64868164 C-89.33945628 79.93656768 -89.37244821 83.2239768 -89.40625 86.51171875 C-89.40322876 87.51603439 -89.40020752 88.52035004 -89.39709473 89.55509949 C-89.45862528 95.32539649 -89.98466505 99.48787489 -92.8125 104.5625 C-95.81284741 107.16280109 -97.83674606 108.39641422 -101.75 109.0625 C-105.90888913 108.38349769 -108.30733815 106.92174355 -111.8125 104.5625 C-114.38977015 100.69659478 -114.27247184 97.31275732 -114.4375 92.8125 C-114.49333252 91.4985022 -114.49333252 91.4985022 -114.55029297 90.15795898 C-115.69209131 60.29493368 -116.16802232 30.94328774 -94.76171875 7.5390625 C-86.78532245 -0.73648175 -77.49626911 -6.33745577 -66.8125 -10.4375 C-65.93980469 -10.7778125 -65.06710937 -11.118125 -64.16796875 -11.46875 C-42.76534753 -18.23736813 -17.70944569 -13.34191348 0 0 Z " fill="#F53135" transform="translate(390.8125,201.4375)"/>
<path d="M0 0 C3.31647843 2.35464874 4.15556451 5.64238622 5.4453125 9.3828125 C5.7683284 10.30512161 5.7683284 10.30512161 6.09786987 11.24606323 C6.78176531 13.20297555 7.45390327 15.16366569 8.125 17.125 C8.80522688 19.09271346 9.48788523 21.05953617 10.17355347 23.02536011 C10.79257552 24.80315359 11.40451248 26.58340933 12.01611328 28.36376953 C12.75080011 30.88920882 12.75080011 30.88920882 14 32 C14.23187012 31.32420898 14.46374023 30.64841797 14.70263672 29.95214844 C15.75722632 26.88377231 16.81606559 23.81687925 17.875 20.75 C18.23980469 19.68652344 18.60460937 18.62304688 18.98046875 17.52734375 C19.33496094 16.50253906 19.68945312 15.47773438 20.0546875 14.421875 C20.37937012 13.47924805 20.70405273 12.53662109 21.03857422 11.56542969 C23.31593213 5.48861991 23.31593213 5.48861991 25.75 3.75 C28.7748674 2.74171087 30.82612473 2.54658925 34 3 C39.07312718 6.99408108 40.69119596 11.53044089 42.6875 17.4375 C42.98205078 18.27087891 43.27660156 19.10425781 43.58007812 19.96289062 C45.10299235 24.29207376 46.55136349 28.64547462 48 33 C48.28198242 32.14245117 48.56396484 31.28490234 48.85449219 30.40136719 C49.91105484 27.20745011 50.97824336 24.01749875 52.05273438 20.82958984 C52.51469812 19.45178621 52.97243859 18.07255879 53.42578125 16.69189453 C54.07995562 14.70211414 54.74938518 12.71802898 55.421875 10.734375 C56.01887207 8.94338379 56.01887207 8.94338379 56.62792969 7.11621094 C58.03078222 3.9300882 59.32714766 2.19437056 62 0 C64.74659576 -0.7295645 67.22200688 -0.55218306 70 0 C72.5 1.5625 72.5 1.5625 74 4 C74.37518606 9.16506139 73.57755308 12.9959068 71.75 17.8125 C71.33234375 18.93269531 70.9146875 20.05289062 70.484375 21.20703125 C69.69852789 23.23884703 68.89389382 25.26119521 68.07397461 27.27954102 C66.28299659 31.69116379 64.58572828 36.11088239 63.03515625 40.61328125 C62.54692383 42.0199707 62.54692383 42.0199707 62.04882812 43.45507812 C61.38565973 45.37629665 60.73215843 47.30087667 60.08789062 49.22851562 C58.18832412 54.64246749 56.63355106 58.48995656 52 62 C47.94168985 62.65222842 45.91547554 62.58586252 42.43481445 60.35839844 C39.56356042 57.57725796 38.74193197 55.49685937 37.54296875 51.703125 C37.15302734 50.49785156 36.76308594 49.29257812 36.36132812 48.05078125 C35.97396484 46.79652344 35.58660156 45.54226563 35.1875 44.25 C34.77822841 42.96695704 34.36743578 41.68439821 33.95507812 40.40234375 C32.95499291 37.27266531 31.97067292 34.13890048 31 31 C29.06754731 33.89867903 28.21823584 36.10579838 27.1953125 39.40234375 C26.85886719 40.45744141 26.52242187 41.51253906 26.17578125 42.59960938 C25.47708112 44.81908618 24.78433644 47.04044686 24.09765625 49.26367188 C23.75863281 50.32005859 23.41960938 51.37644531 23.0703125 52.46484375 C22.76883301 53.430271 22.46735352 54.39569824 22.15673828 55.39038086 C20.84230943 58.35575232 19.53030287 59.98071908 17 62 C11.58173077 62.77403846 11.58173077 62.77403846 9 62 C4.88322427 58.45688003 3.04870715 55.40820232 1.31640625 50.29296875 C1.09523132 49.65458069 0.8740564 49.01619263 0.6461792 48.35845947 C-0.0619516 46.30583329 -0.74993009 44.2470938 -1.4375 42.1875 C-2.15928846 40.07411584 -2.88554008 37.96229827 -3.6118927 35.85047913 C-4.08714311 34.46709027 -4.56062074 33.08309104 -5.03227234 31.69847107 C-7.18786256 25.38430856 -9.58118811 19.1830233 -12.07421875 12.99609375 C-13.06573434 9.78726483 -13.32758617 7.33758085 -13 4 C-9.1140519 -0.61456337 -5.65148875 -0.63807131 0 0 Z " fill="#FBFBFA" transform="translate(616,342)"/>
<path d="M0 0 C3.05831618 2.10061598 4.75343549 3.76571562 5.49414062 7.47363281 C5.71662698 10.42821082 5.7954398 13.34971129 5.8125 16.3125 C5.83763672 17.33923828 5.86277344 18.36597656 5.88867188 19.42382812 C5.94741085 21.949604 5.98378712 24.47365228 6 27 C6.57935303 26.64558838 7.15870605 26.29117676 7.75561523 25.92602539 C14.43647697 21.99776971 19.2438116 20.86932948 27 22 C32.63760877 23.66523427 37.0392166 26.8429414 40 32 C43.90794181 40.42821367 43.52511152 49.63258642 43.50097656 58.71508789 C43.49999537 61.32482317 43.54190662 63.93169661 43.5859375 66.54101562 C43.59113939 68.21093143 43.59383278 69.88085735 43.59375 71.55078125 C43.6183429 72.71182121 43.6183429 72.71182121 43.64343262 73.89631653 C43.59222464 77.90325738 43.16512208 79.78711146 40.68164062 82.98901367 C38 85 38 85 34.5 85.625 C30.00704542 84.82268668 28.78184817 83.58523936 26 80 C25.52886502 76.99627947 25.34662613 74.55213738 25.3984375 71.55859375 C25.39043121 70.75390152 25.38242493 69.94920929 25.37417603 69.12013245 C25.35116014 66.55873789 25.36055174 63.99893646 25.375 61.4375 C25.37884983 58.87279249 25.3754014 56.30878471 25.35440063 53.74415588 C25.34232755 52.15153682 25.34495475 50.55872095 25.36410522 48.96617126 C25.34777391 45.73034305 25.22027219 43.40239735 23.65087891 40.53540039 C21.18030237 38.23763999 19.34097951 38.12849921 16 38 C11.22409654 38.88365505 11.22409654 38.88365505 7.31396484 41.57641602 C5.44808698 45.01799342 5.61686247 48.27576936 5.6640625 52.08984375 C5.65155141 53.69466551 5.63851435 55.29948325 5.625 56.90429688 C5.6210694 59.42356626 5.62502866 61.9424383 5.63964844 64.46166992 C5.64823282 66.90082665 5.6265178 69.33833233 5.6015625 71.77734375 C5.61490631 72.52644516 5.62825012 73.27554657 5.64199829 74.04734802 C5.58627246 78.00554436 5.14266854 79.8169703 2.68115234 82.97485352 C0 85 0 85 -3.5 85.625 C-7.96351101 84.82794446 -9.20331053 83.52373233 -12 80 C-12.62145996 76.57835388 -12.62145996 76.57835388 -12.61523438 72.61108398 C-12.62078339 71.88526123 -12.6263324 71.15943848 -12.63204956 70.41162109 C-12.6438206 68.02243153 -12.61960194 65.63514941 -12.59375 63.24609375 C-12.5920383 61.58130479 -12.59210519 59.91651314 -12.59387207 58.25172424 C-12.59222036 54.76724367 -12.57354865 51.28340766 -12.54199219 47.79907227 C-12.50228378 43.33442227 -12.49795132 38.87061491 -12.50545502 34.4058218 C-12.50852524 30.9699584 -12.49640293 27.53428419 -12.47932434 24.09846687 C-12.47229769 22.4522527 -12.4691694 20.80601708 -12.47001648 19.15978813 C-12.46821741 16.85930526 -12.44682887 14.55982995 -12.41992188 12.25952148 C-12.41150269 10.95111801 -12.4030835 9.64271454 -12.39440918 8.29466248 C-11.97850077 4.82040811 -11.48897951 3.41035874 -9 1 C-5.63633609 -0.1212213 -3.52465728 -0.42295887 0 0 Z " fill="#FBFCFB" transform="translate(761,319)"/>
<path d="M0 0 C0.99 0.66 1.98 1.32 3 2 C3.28875 1.360625 3.5775 0.72125 3.875 0.0625 C5 -2 5 -2 7 -3 C10.75635677 -3.50084757 12.46882516 -3.35244129 15.65771484 -1.23657227 C19.21028715 3.67237615 18.71646848 8.24273868 18.6640625 14.16015625 C18.66884613 15.34218124 18.67362976 16.52420624 18.67855835 17.74205017 C18.68195702 20.2376336 18.67275714 22.73326156 18.65185547 25.22875977 C18.62506934 29.05260176 18.65162053 32.87351435 18.68359375 36.69726562 C18.68029012 39.12240232 18.67388486 41.54753719 18.6640625 43.97265625 C18.67418365 45.11750992 18.68430481 46.26236359 18.69473267 47.44190979 C18.57796281 55.32999303 18.57796281 55.32999303 15.64990234 58.72436523 C12.43657088 60.27122878 10.52540392 60.52506016 7 60 C4.625 58.625 4.625 58.625 3 57 C3 56.34 3 55.68 3 55 C2.48050781 55.34933594 1.96101562 55.69867188 1.42578125 56.05859375 C-5.5998577 60.6427907 -11.8370085 62.17441621 -20.234375 60.57421875 C-29.72897785 57.90590795 -35.06593025 51.64614248 -39.87109375 43.33203125 C-43.43496335 35.96998921 -43.06382326 25.90896756 -41.3515625 18.0078125 C-38.02291173 8.87536038 -31.59855246 2.35535375 -23 -2 C-15.25471985 -4.58176005 -7.24164662 -3.42332386 0 0 Z M-22 16 C-25.27852898 20.62467995 -26.67637633 25.09593685 -26.3828125 30.76171875 C-25.46532898 36.12618873 -23.27054772 39.81809514 -19.3125 43.5 C-15.0256194 45.44122895 -11.62930055 45.81303128 -7 45 C-3.39241093 43.26301267 -1.51501854 41.68669139 0.875 38.5 C2.89716673 32.2088146 2.93793135 25.76442924 0.8125 19.5 C-1.37028891 16.48925667 -2.69422797 14.79062652 -6 13 C-11.6518188 12.242452 -17.68692643 11.81762563 -22 16 Z " fill="#FBFBFA" transform="translate(852,344)"/>
<path d="M0 0 C6.02837938 4.98523928 9.50160326 12.24654105 10.3125 19.98046875 C10.4671895 27.29921575 10.4671895 27.29921575 8 31 C4.24151826 32.25282725 0.74509081 32.12381835 -3.16796875 32.09765625 C-3.96278152 32.0962413 -4.7575943 32.09482635 -5.57649231 32.09336853 C-8.11353325 32.08777378 -10.65048575 32.07522228 -13.1875 32.0625 C-14.90820185 32.05748432 -16.62890508 32.05292153 -18.34960938 32.04882812 C-22.5664403 32.03780607 -26.78320516 32.02054506 -31 32 C-27.91724969 37.47641525 -24.84558698 40.1946452 -18.6875 41.9375 C-14.01012143 42.0167776 -10.26845482 40.85027441 -6 39 C-5.67 38.67 -5.34 38.34 -5 38 C2.2 37.53548387 2.2 37.53548387 4.9375 39.125 C6.5220343 41.92123699 7 43.76037732 7 47 C3.74612869 52.24817953 -0.23991668 54.8923833 -6 57 C-15.88269708 59.1177208 -26.00176559 58.77751746 -34.6875 53.3125 C-41.99508821 48.05817829 -46.12716949 42.2995208 -48.6875 33.6875 C-49.95450115 22.7912901 -48.00586014 14.18543315 -42 5 C-30.6475 -8.24458333 -14.36766068 -9.74408266 0 0 Z M-28 12 C-30.75924489 14.59429609 -30.75924489 14.59429609 -32 18 C-23.75 18 -15.5 18 -7 18 C-8.72794191 13.20105613 -8.72794191 13.20105613 -12 10 C-17.86911465 8.20286799 -22.69798844 8.88116967 -28 12 Z " fill="#FAFBFA" transform="translate(592,347)"/>
<path d="M0 0 C6.20959228 4.58577638 8.38856806 11.85749141 9.61328125 19.19140625 C9.87492582 24.19080472 9.9259065 29.18702259 9.96337891 34.19262695 C9.97996366 35.81516844 10.00728725 37.43763611 10.04541016 39.05981445 C10.10036011 41.41525632 10.12207208 43.76900246 10.13671875 46.125 C10.15938812 46.84392929 10.1820575 47.56285858 10.20541382 48.30357361 C10.18916574 52.20382974 9.62073688 54.65404994 7.21166992 57.64794922 C4.61328125 60.19140625 4.61328125 60.19140625 2.515625 60.953125 C-1.04417643 60.81865934 -2.97084688 60.58134923 -5.59912109 58.11694336 C-7.85712617 54.42154936 -7.89888161 52.01006689 -7.92578125 47.6953125 C-7.93757416 46.9841478 -7.94936707 46.27298309 -7.96151733 45.54026794 C-7.99666122 43.27792309 -8.00593145 41.0165012 -8.01171875 38.75390625 C-8.02812669 36.49516065 -8.05031707 34.23682159 -8.08334351 31.97825623 C-8.11180842 29.92647579 -8.12207469 27.87446669 -8.13134766 25.82250977 C-8.45730806 21.18770184 -9.04192146 17.53620354 -12.38671875 14.19140625 C-14.95328197 13.90975775 -14.95328197 13.90975775 -17.82421875 14.00390625 C-19.27634766 14.01357422 -19.27634766 14.01357422 -20.7578125 14.0234375 C-23.49617837 14.08617425 -23.49617837 14.08617425 -26.38671875 15.19140625 C-28.7429633 19.33973104 -28.65150417 23.51789172 -28.625 28.16015625 C-28.64041319 29.71615462 -28.65671634 31.27214438 -28.67382812 32.828125 C-28.6902969 35.26402886 -28.69919588 37.69929875 -28.69213867 40.13525391 C-28.68951556 42.49844095 -28.71764547 44.85972406 -28.75 47.22265625 C-28.73979324 47.94674683 -28.72958649 48.6708374 -28.71907043 49.41687012 C-28.79411432 53.31032709 -29.27976201 55.05446196 -31.70385742 58.15820312 C-34.38671875 60.19140625 -34.38671875 60.19140625 -37.94921875 60.69140625 C-41.47698095 60.1782772 -42.94260232 59.72952716 -45.38671875 57.19140625 C-46.36208208 54.26531627 -46.53520533 52.30036171 -46.57958984 49.24853516 C-46.59565277 48.24384186 -46.6117157 47.23914856 -46.62826538 46.20401001 C-46.67275867 41.61941251 -46.71376174 37.03495811 -46.73681641 32.45019531 C-46.7533941 30.03115226 -46.78070756 27.61215855 -46.81884766 25.19335938 C-46.87355404 21.70547072 -46.89547976 18.21872836 -46.91015625 14.73046875 C-46.93282562 13.6501236 -46.955495 12.56977844 -46.97885132 11.45669556 C-46.95777418 3.97997212 -46.95777418 3.97997212 -44.07666016 0.00146484 C-40.56383911 -2.36230855 -38.54304302 -2.41315001 -34.38671875 -1.80859375 C-31.94921875 -0.43359375 -31.94921875 -0.43359375 -30.38671875 1.19140625 C-30.38671875 1.85140625 -30.38671875 2.51140625 -30.38671875 3.19140625 C-29.855625 2.84207031 -29.32453125 2.49273437 -28.77734375 2.1328125 C-28.0709375 1.67777344 -27.36453125 1.22273438 -26.63671875 0.75390625 C-25.940625 0.30144531 -25.24453125 -0.15101563 -24.52734375 -0.6171875 C-17.2762603 -4.65291825 -7.04216928 -4.1844774 0 0 Z " fill="#FBFBFA" transform="translate(528.38671875,343.80859375)"/>
<path d="M0 0 C2.74076022 2.00211562 4.09011745 3.67482796 5.33984375 6.83203125 C5.15234375 9.83203125 5.15234375 9.83203125 3.08984375 12.70703125 C0.15234375 14.83203125 0.15234375 14.83203125 -2.66015625 15.45703125 C-5.83671702 14.8341762 -7.0738419 14.12808288 -9.66015625 12.33203125 C-14.03908945 9.32522025 -17.67535361 9.29324972 -22.84765625 9.83203125 C-23.50765625 11.15203125 -24.16765625 12.47203125 -24.84765625 13.83203125 C-22.22616204 17.76427257 -19.58092997 17.81404711 -15.22265625 18.70703125 C-6.63497942 20.66302834 0.10239004 23.1561016 5.15234375 30.83203125 C6.93435723 36.17807169 6.64135363 41.13487933 5.08984375 46.51953125 C1.99156575 51.81658718 -2.25488075 55.32763579 -7.84765625 57.83203125 C-18.88698092 60.39931606 -29.18852275 58.63607821 -38.84765625 52.83203125 C-42.03648524 50.46085072 -42.72667354 49.24790933 -43.84765625 45.39453125 C-43.84765625 41.83203125 -43.84765625 41.83203125 -42.41015625 38.89453125 C-39.54118589 36.58535998 -37.59867304 36.05814911 -33.9140625 36.26171875 C-31.41660609 36.95099784 -30.31399994 37.96736509 -28.47265625 39.76953125 C-24.94161715 43.19528707 -21.99877848 43.7244706 -17.16015625 43.953125 C-14.3901014 43.80807145 -12.26310045 43.20078296 -9.84765625 41.83203125 C-10.42110562 38.96478439 -10.70910775 37.97057975 -12.84765625 35.83203125 C-15.52995708 35.02821471 -18.20313983 34.29064868 -20.91015625 33.58203125 C-35.70205335 29.4730847 -35.70205335 29.4730847 -40.0390625 23.07421875 C-41.90749202 17.89316297 -41.54200032 12.22087857 -40.84765625 6.83203125 C-38.23956003 1.29098697 -33.19431035 -1.59365381 -27.84765625 -4.16796875 C-17.97805208 -7.3169431 -8.50289448 -5.37497981 0 0 Z " fill="#FBFCFB" transform="translate(1018.84765625,346.16796875)"/>
<path d="M0 0 C2.9725338 2.22940035 3.80874794 3.40074355 4.9375 6.9375 C5.01221891 10.59872681 4.21363944 12.1304674 2 15 C-0.82001327 16.41000664 -2.87007255 16.24548451 -6 16 C-6.721875 15.505 -7.44375 15.01 -8.1875 14.5 C-12.65074342 12.11960351 -17.05324862 12.36803617 -22 13 C-26.16052865 14.78308371 -28.11802538 16.63613651 -29.9375 20.6875 C-31.81537317 26.68998744 -31.1178702 31.84410747 -28.25 37.375 C-25.4006147 40.69928285 -23.34352228 42.68753036 -18.890625 43.28125 C-13.6859975 43.49083232 -10.63932282 42.42051625 -6 40 C-2.03955072 39.52201474 0.05368263 39.3933863 3.4375 41.5625 C5.67771577 45.0572366 5.77317483 46.92325997 5 51 C0.48360612 56.40244391 -5.07036073 59.23004008 -12 60 C-22.71958482 60.59353406 -30.60474631 59.01159151 -39 52 C-45.7291267 45.05144525 -48.11441445 37.67165697 -48.4375 28.125 C-48.18927686 18.52703874 -45.68799885 10.74217228 -39 3.72265625 C-28.45868444 -5.35687532 -11.975582 -7.80431186 0 0 Z " fill="#FBFBFA" transform="translate(739,345)"/>
<path d="M0 0 C3.33761045 2.15090451 4.73470933 3.20412799 6 7 C6.12781786 9.67394964 6.04391871 12.32095857 6 15 C7.8253125 14.9071875 7.8253125 14.9071875 9.6875 14.8125 C13.58249203 14.80559399 15.87690125 15.53937675 19 18 C20.52491998 21.04983996 20.23562548 23.6423369 20 27 C18.3340491 29.34871766 17.35913765 29.92591019 14.51953125 30.51171875 C13.62621094 30.56972656 12.73289062 30.62773437 11.8125 30.6875 C10.91144531 30.75324219 10.01039063 30.81898438 9.08203125 30.88671875 C8.39496094 30.92410156 7.70789063 30.96148437 7 31 C5.82355617 36.57410289 5.85163091 42.020495 5.875 47.6875 C5.87113281 48.63689453 5.86726562 49.58628906 5.86328125 50.56445312 C5.86521484 51.93053711 5.86521484 51.93053711 5.8671875 53.32421875 C5.86831543 54.15010498 5.86944336 54.97599121 5.87060547 55.8269043 C5.91659183 58.18190927 5.91659183 58.18190927 7 61 C7.68707031 60.96519531 8.37414062 60.93039062 9.08203125 60.89453125 C9.98308594 60.86746094 10.88414062 60.84039062 11.8125 60.8125 C13.15248047 60.76029297 13.15248047 60.76029297 14.51953125 60.70703125 C17 61 17 61 18.79296875 62.30078125 C20.8682936 65.22235506 20.47619272 67.54760276 20 71 C17.45862841 74.15954305 15.85377341 75.71540886 12 77 C6.43454509 77.48988853 1.59319048 77.76814541 -3.5 75.3125 C-6.54451287 72.49632559 -9.13613904 69.72772191 -11 66 C-11.08675538 63.30106819 -11.11557897 60.62830769 -11.09765625 57.9296875 C-11.0962413 57.13345978 -11.09482635 56.33723206 -11.09336853 55.51687622 C-11.08776345 52.9695462 -11.07521014 50.42230353 -11.0625 47.875 C-11.05748565 46.14974085 -11.05292263 44.42448033 -11.04882812 42.69921875 C-11.03779237 38.46611209 -11.02052436 34.23307086 -11 30 C-12.27875 30.020625 -13.5575 30.04125 -14.875 30.0625 C-18.75 30.125 -18.75 30.125 -21 29 C-22.63075075 25.73849849 -22.52083462 22.5639969 -22 19 C-21 17.0625 -21 17.0625 -19 16 C-16.31764804 15.4709365 -13.73593725 15.22425715 -11 15 C-11.08701172 14.00419922 -11.08701172 14.00419922 -11.17578125 12.98828125 C-11.54313099 5.79872204 -11.54313099 5.79872204 -8.875 1.875 C-5.46480804 -0.34903824 -3.99001861 -0.74812849 0 0 Z " fill="#FBFBFA" transform="translate(896,327)"/>
<path d="M0 0 C2.64230615 1.64740536 3.58072018 2.32728399 5 5 C5.76644666 9.62464172 5.70420946 14.24341539 5.6640625 18.91796875 C5.66743531 20.29934617 5.6722918 21.68072069 5.67855835 23.06208801 C5.68592038 25.95647452 5.67525592 28.85008834 5.65185547 31.74438477 C5.62349957 35.42862571 5.63968838 39.11103467 5.66971779 42.79520702 C5.68792497 45.6497588 5.68197003 48.50388811 5.66907883 51.35845375 C5.66418187 53.36896084 5.67920865 55.37948524 5.69473267 57.38993835 C5.59278439 65.43939028 4.36006347 71.17785251 0 78 C-0.66 78 -1.32 78 -2 78 C-2 78.66 -2 79.32 -2 80 C-7.46587587 83.64391724 -13.56632407 84.13799003 -20 83 C-23.22050605 80.50653127 -23.9136812 79.60423158 -24.5 75.5 C-24 72 -24 72 -22.375 69.6875 C-19.69144514 67.78076365 -17.10486566 67.03495522 -14 66 C-12.9574952 62.87248559 -12.87553029 60.69533375 -12.87402344 57.41455078 C-12.87021667 56.26971222 -12.86640991 55.12487366 -12.86248779 53.94534302 C-12.86146057 52.70783295 -12.86043335 51.47032288 -12.859375 50.1953125 C-12.8410512 47.58462666 -12.8214813 44.97394933 -12.80078125 42.36328125 C-12.77041547 38.2396851 -12.74768112 34.11639435 -12.74951172 29.99267578 C-12.75045068 26.01821618 -12.71167331 22.04457915 -12.671875 18.0703125 C-12.6789447 16.83685089 -12.6860144 15.60338928 -12.69329834 14.33255005 C-12.55750432 4.80989054 -12.55750432 4.80989054 -9.67675781 1.72216797 C-6.1079772 -0.57390814 -4.16685557 -0.74408135 0 0 Z " fill="#FCFCFC" transform="translate(965,342)"/>
<path d="M0 0 C4.31182727 3.71017695 6.7238653 7.11311484 7.625 12.75 C8.03250904 18.66385068 6.10913224 22.62898814 2.3125 27.125 C-1.98522218 30.70643515 -5.5284427 31.80307935 -11.19140625 31.62109375 C-15.75126204 30.95768932 -19.80684022 29.26074565 -22.66796875 25.55859375 C-23.75 23.6875 -23.75 23.6875 -25.3125 20.3125 C-25.6425 19.6525 -25.9725 18.9925 -26.3125 18.3125 C-26.78723689 11.19144662 -25.70403259 7.15648471 -21 1.5625 C-14.54858353 -3.83868588 -7.28528772 -3.71137299 0 0 Z " fill="#FCFCFB" transform="translate(357.3125,373.6875)"/>
<path d="M0 0 C3.0625 1.25 3.0625 1.25 5 4 C5.90574173 9.35959568 6.26671517 14.2020817 3.0625 18.75 C-1.11479654 20.45501899 -4.55592347 20.74737634 -9 20 C-12.0625 18.6875 -12.0625 18.6875 -14 16 C-14.99118447 10.67545534 -14.90038775 6.48128308 -12.0625 1.8125 C-7.89681597 -0.65290483 -4.72054355 -0.86216076 0 0 Z " fill="#FBFCFA" transform="translate(937,384)"/>
<path d="M0 0 C6.20959228 4.58577638 8.38856806 11.85749141 9.61328125 19.19140625 C9.87492582 24.19080472 9.9259065 29.18702259 9.96337891 34.19262695 C9.97996366 35.81516844 10.00728725 37.43763611 10.04541016 39.05981445 C10.10036011 41.41525632 10.12207208 43.76900246 10.13671875 46.125 C10.15938812 46.84392929 10.1820575 47.56285858 10.20541382 48.30357361 C10.1891684 52.20319257 9.6198783 54.65658493 7.21386719 57.65234375 C4.61328125 60.19140625 4.61328125 60.19140625 2.48046875 60.8828125 C-2.93178313 60.53260797 -2.93178313 60.53260797 -5.38671875 58.69140625 C-5.71671875 58.19640625 -6.04671875 57.70140625 -6.38671875 57.19140625 C-6.05671875 56.20140625 -5.72671875 55.21140625 -5.38671875 54.19140625 C-5.05671875 55.18140625 -4.72671875 56.17140625 -4.38671875 57.19140625 C-2.46859375 57.03671875 -2.46859375 57.03671875 -0.51171875 56.87890625 C0.20757813 56.82089844 0.926875 56.76289063 1.66796875 56.703125 C4.00847341 56.31747589 4.00847341 56.31747589 5.61328125 53.19140625 C5.80946081 50.45470135 5.89331748 47.82244056 5.87890625 45.0859375 C5.8808197 44.28790207 5.88273315 43.48986664 5.88470459 42.66764832 C5.8860656 40.97724086 5.882375 39.28682292 5.87402344 37.59643555 C5.86339286 35.03084246 5.87388473 32.4659609 5.88671875 29.90039062 C5.88539576 28.25390472 5.8828305 26.60741926 5.87890625 24.9609375 C5.88295471 24.20230911 5.88700317 23.44368073 5.89117432 22.6620636 C5.83809939 16.51228228 5.05021703 10.88566083 2.11328125 5.37890625 C-2.45766886 1.37932491 -8.04161687 0.47940122 -13.94921875 -0.24609375 C-19.01665519 0.39885271 -24.34035348 2.06906207 -27.96484375 5.828125 C-29.38671875 7.19140625 -29.38671875 7.19140625 -32.38671875 7.19140625 C-32.51046875 6.38703125 -32.63421875 5.58265625 -32.76171875 4.75390625 C-32.96796875 3.90828125 -33.17421875 3.06265625 -33.38671875 2.19140625 C-36.15772269 0.80590428 -38.32018935 1.00365955 -41.38671875 1.19140625 C-42.37671875 1.85140625 -43.36671875 2.51140625 -44.38671875 3.19140625 C-44.01171875 1.25390625 -44.01171875 1.25390625 -43.38671875 -0.80859375 C-40.32978553 -2.33706036 -37.75687328 -2.0410182 -34.38671875 -1.80859375 C-31.94921875 -0.43359375 -31.94921875 -0.43359375 -30.38671875 1.19140625 C-30.38671875 1.85140625 -30.38671875 2.51140625 -30.38671875 3.19140625 C-29.855625 2.84207031 -29.32453125 2.49273437 -28.77734375 2.1328125 C-28.0709375 1.67777344 -27.36453125 1.22273438 -26.63671875 0.75390625 C-25.940625 0.30144531 -25.24453125 -0.15101563 -24.52734375 -0.6171875 C-17.2762603 -4.65291825 -7.04216928 -4.1844774 0 0 Z " fill="#EBEBEB" transform="translate(528.38671875,343.80859375)"/>
<path d="M0 0 C3.05067422 1.99227704 4.59426669 3.33682874 5.47265625 6.9375 C5.7595293 10.82131981 5.20766662 12.67845169 3.0625 16 C-1.07332859 18.70094928 -4.19461781 18.89503502 -9 18 C-12.0625 16.625 -12.0625 16.625 -14 14 C-14.69813581 10.52663009 -14.69813581 7.47336991 -14 4 C-10.48788673 -0.75834702 -5.51692658 -1.12732858 0 0 Z " fill="#F7F7F5" transform="translate(966,319)"/>
<path d="M0 0 C0.99 0.66 1.98 1.32 3 2 C3.28875 1.360625 3.5775 0.72125 3.875 0.0625 C5 -2 5 -2 7 -3 C10.75451191 -3.50060159 12.47320088 -3.34636403 15.66870117 -1.24536133 C19.23159127 3.7144772 18.62130428 8.34521675 18.48828125 14.30078125 C18.48120651 15.49229294 18.47413177 16.68380463 18.46684265 17.91142273 C18.43888186 21.71242372 18.37613474 25.51194514 18.3125 29.3125 C18.28741956 31.89125475 18.26460596 34.47003262 18.24414062 37.04882812 C18.18904931 43.36638918 18.10540375 49.68308888 18 56 C17.01 56 16.02 56 15 56 C15 38.18 15 20.36 15 2 C9.64641067 -0.40519687 9.64641067 -0.40519687 6.75 0.625 C4.72464623 2.21634939 3.94895925 3.62760188 3 6 C2.61328125 5.53980469 2.2265625 5.07960938 1.828125 4.60546875 C-2.42928937 0.86658562 -9.148852 0.19149807 -14.625 -0.375 C-22.11469465 0.45718829 -27.34291164 2.46572805 -32.4921875 8.08203125 C-34.71088176 10.90425633 -36.36913167 13.80349807 -38 17 C-38.75 15.375 -38.75 15.375 -39 13 C-35.64130539 6.42864099 -30.01849602 1.79948801 -23.75 -1.9375 C-15.4312842 -4.29446948 -7.76983582 -3.67301329 0 0 Z " fill="#ECEAEE" transform="translate(852,344)"/>
<path d="M0 0 C24.42 0 48.84 0 74 0 C73.67 0.99 73.34 1.98 73 3 C70.9174133 3.19561869 68.83388144 3.38119313 66.75 3.5625 C65.00976562 3.71912109 65.00976562 3.71912109 63.234375 3.87890625 C60.38654569 3.98552788 58.67854069 3.7363319 56 3 C53.96069048 2.88369986 51.91758454 2.82504659 49.875 2.8125 C48.29332031 2.79123047 48.29332031 2.79123047 46.6796875 2.76953125 C43.84729941 2.72342436 43.84729941 2.72342436 42 5 C39.02684016 5.17316528 36.15794428 5.23190475 33.1875 5.1875 C32.37990234 5.18685547 31.57230469 5.18621094 30.74023438 5.18554688 C26.66568419 5.15551334 22.9996208 4.80583857 19 4 C18.01 4.33 17.02 4.66 16 5 C16 4.34 16 3.68 16 3 C14.7934375 3.2784375 14.7934375 3.2784375 13.5625 3.5625 C9.21746916 4.09610028 5.31010276 3.6225704 1 3 C0.67 2.01 0.34 1.02 0 0 Z " fill="#EA383B" transform="translate(322,316)"/>
<path d="M0 0 C0.66 0 1.32 0 2 0 C1.96519531 0.89460938 1.93039062 1.78921875 1.89453125 2.7109375 C1.61159098 15.34893643 2.98129267 22.5570051 11.6484375 31.96875 C14.51597801 34.44569529 17.14986084 36 21 36 C21 36.66 21 37.32 21 38 C24.35539274 37.94769177 27.70829557 37.85252053 31.0625 37.75 C32.47692383 37.72873047 32.47692383 37.72873047 33.91992188 37.70703125 C40.12774546 37.49073078 43.88044281 36.54901574 49 33 C49.66 32.54625 50.32 32.0925 51 31.625 C52.31079003 29.86187702 52.31079003 29.86187702 51.6875 26.8125 C51.460625 25.884375 51.23375 24.95625 51 24 C47.10885099 22.98088955 45.39403493 22.83217031 41.625 24.4375 C40.325625 25.2109375 40.325625 25.2109375 39 26 C40 23 40 23 43 21 C46.49620463 20.45724243 49.83715034 20.32479697 52.9375 22.125 C54.5220343 24.92123699 55 26.76037732 55 30 C51.74612869 35.24817953 47.76008332 37.8923833 42 40 C32.11730292 42.1177208 21.99823441 41.77751746 13.3125 36.3125 C6.00491179 31.05817829 1.87283051 25.2995208 -0.6875 16.6875 C-1.3361742 11.10890188 -1.57986135 5.42920605 0 0 Z " fill="#EAEAE8" transform="translate(544,364)"/>
<path d="M0 0 C2.83765594 2.0728976 4.07763237 3.59855818 5.15234375 6.95703125 C5.15234375 9.83203125 5.15234375 9.83203125 3.15234375 12.83203125 C2.16234375 12.50203125 1.17234375 12.17203125 0.15234375 11.83203125 C0.64734375 11.33703125 0.64734375 11.33703125 1.15234375 10.83203125 C1.56980983 7.95838334 1.56980983 7.95838334 1.15234375 4.83203125 C-2.91698381 -0.12920372 -7.68406883 -1.24266592 -13.84765625 -2.16796875 C-22.50740929 -2.33718232 -29.23605732 -1.61905218 -35.66015625 4.51953125 C-38.22587484 8.40476226 -39.17035988 11.19764857 -38.84765625 15.83203125 C-37.47611233 19.94666302 -35.87845399 23.68466436 -32.84765625 26.83203125 C-30.26267113 28.1005081 -30.26267113 28.1005081 -27.84765625 28.83203125 C-30.23111762 29.68776738 -31.35250773 30.0608024 -33.69921875 28.9765625 C-34.28445313 28.53699219 -34.8696875 28.09742188 -35.47265625 27.64453125 C-36.06304688 27.21785156 -36.6534375 26.79117187 -37.26171875 26.3515625 C-41.01832082 22.75225657 -41.21595577 19.0845123 -41.34765625 14.01953125 C-41.2768644 9.47469462 -41.21150377 6.28888061 -38.28515625 2.70703125 C-27.27122071 -7.60388713 -12.44132379 -7.86460003 0 0 Z " fill="#E9E9E9" transform="translate(1018.84765625,346.16796875)"/>
<path d="M0 0 C0.66 0 1.32 0 2 0 C1.96191598 7.86734936 1.90251557 15.73422568 1.81609726 23.60117626 C1.7766323 27.25439913 1.74443941 30.90738133 1.72900391 34.56079102 C1.71383023 38.08834999 1.67937382 41.6152473 1.63169098 45.14251137 C1.60969117 47.13927272 1.60752687 49.13622075 1.60565186 51.13310242 C1.57607391 52.96443474 1.57607391 52.96443474 1.54589844 54.83276367 C1.53701599 55.90531906 1.52813354 56.97787445 1.51898193 58.08293152 C0.87132311 61.72326084 -0.40251604 63.40691985 -3 66 C-6.25 66.8125 -6.25 66.8125 -9 67 C-9.74926071 70.66305234 -10.2380014 73.42355152 -9 77 C-10.32 76.34 -11.64 75.68 -13 75 C-13.48533333 68.69066667 -13.48533333 68.69066667 -11.375 65.6875 C-8.69144514 63.78076365 -6.10486566 63.03495522 -3 62 C-1.9585312 58.8755936 -1.85080358 56.63086269 -1.81054688 53.35107422 C-1.79382935 52.19332489 -1.77711182 51.03557556 -1.7598877 49.84274292 C-1.73952454 47.96765549 -1.73952454 47.96765549 -1.71875 46.0546875 C-1.69062992 44.09835719 -1.66250453 42.14202693 -1.63405609 40.18570137 C-1.57547072 36.05066789 -1.5253891 31.91552273 -1.47393799 27.78039551 C-1.43122439 24.37187007 -1.38665476 20.96339466 -1.33703613 17.55496216 C-1.30020591 14.99649055 -1.26780846 12.43795081 -1.2401123 9.87936401 C-1.22339478 8.72791901 -1.20667725 7.576474 -1.18945312 6.39013672 C-1.17066101 4.8614949 -1.17066101 4.8614949 -1.15148926 3.30197144 C-1 1 -1 1 0 0 Z " fill="#EEEDED" transform="translate(954,346)"/>
<path d="M0 0 C2.45872889 0.6790775 3.41162364 1.62365398 5.17578125 3.44140625 C9.98896965 8.22077834 16.59914524 8.04741195 23.05078125 8.56640625 C19.27564572 11.08316327 17.54145215 10.93449403 13.05078125 10.56640625 C8.98848404 9.52809521 5.87606115 8.41595908 2.92578125 5.37890625 C1.10516403 3.25360365 1.10516403 3.25360365 -2.07421875 3.19140625 C-5.07497159 3.28568525 -5.07497159 3.28568525 -6.94921875 5.56640625 C-6.5965809 10.06957748 -6.5965809 10.06957748 -3.94921875 13.56640625 C-1.88047841 14.20892975 -1.88047841 14.20892975 0.05078125 14.56640625 C0.05078125 15.55640625 0.05078125 16.54640625 0.05078125 17.56640625 C8.69106404 18.6660786 17.35829939 19.09735155 26.05078125 19.56640625 C26.05078125 20.22640625 26.05078125 20.88640625 26.05078125 21.56640625 C14.82694286 23.86873207 4.89090152 22.47920579 -4.94921875 16.56640625 C-8.13804774 14.19522572 -8.82823604 12.98228433 -9.94921875 9.12890625 C-9.94921875 5.56640625 -9.94921875 5.56640625 -8.51171875 2.62890625 C-5.63711403 0.31520001 -3.69070118 -0.20916222 0 0 Z " fill="#F0EFEF" transform="translate(984.94921875,382.43359375)"/>
<path d="M0 0 C0.99 0.33 1.98 0.66 3 1 C3.11639714 9.0413798 3.20496723 17.08240142 3.25906086 25.12441826 C3.28503731 28.85961769 3.32021169 32.59423631 3.37719727 36.32910156 C3.4319507 39.94071191 3.46151017 43.55176743 3.47438622 47.16376114 C3.48354931 48.53438158 3.50144105 49.90497531 3.52865028 51.27535629 C3.69672512 60.09989933 2.83674015 66.50320701 -2 74 C-2.66 74 -3.32 74 -4 74 C-4 74.66 -4 75.32 -4 76 C-6.97 76.495 -6.97 76.495 -10 77 C-8.36587557 75.29159719 -7.13093906 74.06546953 -5 73 C-4.34786708 70.97536745 -4.34786708 70.97536745 -4 69 C-3.01 69 -2.02 69 -1 69 C-0.20030473 64.78825015 0.12212867 60.82007889 0.11352539 56.53564453 C0.11344986 55.27479034 0.11337433 54.01393616 0.11329651 52.71487427 C0.10819109 51.3541866 0.10297511 49.99349935 0.09765625 48.6328125 C0.09578912 47.22891287 0.09436661 45.82501258 0.09336853 44.42111206 C0.08956658 40.74192478 0.07975633 37.06277752 0.06866455 33.38360596 C0.05840031 29.62293031 0.0538602 25.86224814 0.04882812 22.1015625 C0.03813179 14.73435683 0.02108352 7.36718404 0 0 Z " fill="#ECEAED" transform="translate(967,346)"/>
<path d="M0 0 C3.00455245 2.25341434 3.81696977 3.41430326 4.9375 7 C5 10 5 10 3.5625 12.375 C3.046875 12.91125 2.53125 13.4475 2 14 C1.34 13.67 0.68 13.34 0 13 C0.33 12.34 0.66 11.68 1 11 C1.45650349 6.94755238 1.45650349 6.94755238 -0.1953125 3.4140625 C-5.31177597 -0.59494135 -13.38572028 -1.55432507 -19.74609375 -1.28125 C-28.61033517 -0.17514015 -34.95352949 2.8020073 -40.46875 9.88671875 C-43.53336231 14.42127591 -44.9488082 18.64847809 -46 24 C-46.33 24 -46.66 24 -47 24 C-47.72471911 17.33258419 -45.64961943 12.5617626 -42 7 C-31.62634159 -4.55640331 -13.4838648 -8.78723774 0 0 Z " fill="#E9E9EA" transform="translate(739,345)"/>
<path d="M0 0 C0.33 0 0.66 0 1 0 C1.01030746 0.89758026 1.02061493 1.79516052 1.03123474 2.71994019 C1.12909102 11.16645034 1.23158838 19.61288853 1.33933926 28.05927849 C1.39457418 32.40196035 1.44799509 36.74464895 1.49731445 41.08740234 C1.54494961 45.27604265 1.59729211 49.46459978 1.65294075 53.65314102 C1.67336815 55.25355084 1.6920806 56.85398347 1.70907402 58.45443344 C1.73310955 60.69089784 1.76316512 62.92720447 1.79467773 65.16357422 C1.81022202 66.43820526 1.8257663 67.7128363 1.84178162 69.02609253 C1.79782383 71.92820077 1.79782383 71.92820077 3 74 C4.89533342 74.46523063 4.89533342 74.46523063 7.0625 74.625 C9.0115625 74.810625 9.0115625 74.810625 11 75 C13.47113581 71.29329628 13.34788589 68.34807819 13.4140625 64.05078125 C13.43342865 63.27816452 13.4527948 62.50554779 13.4727478 61.70951843 C13.53248479 59.2439576 13.57890486 56.77834993 13.625 54.3125 C13.66318525 52.6399537 13.70223731 50.96742695 13.7421875 49.29492188 C13.83818133 45.19677353 13.92223377 41.09853312 14 37 C14.33 37 14.66 37 15 37 C15.09882689 42.35679728 15.17144782 47.71306485 15.21972656 53.07055664 C15.23985059 54.8932418 15.26715296 56.71586234 15.30175781 58.53833008 C15.35024268 61.15722588 15.37296009 63.77526879 15.390625 66.39453125 C15.41127014 67.21025101 15.43191528 68.02597076 15.45318604 68.8664093 C15.4554211 74.49291607 15.4554211 74.49291607 13.19433594 77.01049805 C9.9349482 78.48026869 7.52646929 78.44080866 4 78 C1.80963135 76.42559814 1.80963135 76.42559814 0 74 C-0.48101807 70.70965576 -0.48101807 70.70965576 -0.45410156 66.75292969 C-0.45468567 66.03058136 -0.45526978 65.30823303 -0.45587158 64.56399536 C-0.4530908 62.18279512 -0.42200139 59.8028558 -0.390625 57.421875 C-0.38316253 55.76850061 -0.37746963 54.11511736 -0.37347412 52.46173096 C-0.3582181 48.11482222 -0.31893695 43.76845001 -0.2746582 39.42175293 C-0.23370458 34.98436745 -0.21546294 30.54689508 -0.1953125 26.109375 C-0.1524423 17.40600407 -0.08419184 8.70306882 0 0 Z " fill="#D7D6D9" transform="translate(750,326)"/>
<path d="M0 0 C2.375 0.3125 2.375 0.3125 5 1 C7.15749784 4.23624676 7.28360488 5.34394066 7.4140625 9.10546875 C7.45273437 10.08837891 7.49140625 11.07128906 7.53125 12.08398438 C7.5621875 13.10814453 7.593125 14.13230469 7.625 15.1875 C7.66367187 16.22326172 7.70234375 17.25902344 7.7421875 18.32617188 C7.83648296 20.88393622 7.92208202 23.44169287 8 26 C8.57935303 25.64558838 9.15870605 25.29117676 9.75561523 24.92602539 C16.42291889 21.00574168 21.25591457 19.84259593 29 21 C33.50446028 22.48704939 36.75421387 24.55690164 40 28 C39.505 29.485 39.505 29.485 39 31 C38.34 30.21625 37.68 29.4325 37 28.625 C32.49354865 24.68185507 28.37968035 24.25960149 22.5625 23.625 C16.3366725 24.28035026 11.39331523 26.5940603 7 31 C6.34 31 5.68 31 5 31 C4.98598145 29.85785034 4.98598145 29.85785034 4.97167969 28.69262695 C4.91789063 25.2319338 4.83425816 21.77257982 4.75 18.3125 C4.73582031 17.11431641 4.72164062 15.91613281 4.70703125 14.68164062 C4.67480469 13.52470703 4.64257812 12.36777344 4.609375 11.17578125 C4.58842773 10.11270752 4.56748047 9.04963379 4.54589844 7.9543457 C3.88336218 4.36876823 2.45152338 2.64158051 0 0 Z " fill="#E5E7E6" transform="translate(759,320)"/>
<path d="M0 0 C1.38232443 1.62626404 2.71937515 3.2925002 4 5 C2.53626953 4.98259766 2.53626953 4.98259766 1.04296875 4.96484375 C-0.22933594 4.95582031 -1.50164063 4.94679688 -2.8125 4.9375 C-4.07707031 4.92589844 -5.34164063 4.91429687 -6.64453125 4.90234375 C-9.99605237 4.83840884 -9.99605237 4.83840884 -13 6 C-15.3502316 10.15567487 -15.3255076 14.41920485 -15.37890625 19.07421875 C-15.39590073 19.83926224 -15.4128952 20.60430573 -15.43040466 21.39253235 C-15.48331185 23.82410553 -15.52374659 26.25566334 -15.5625 28.6875 C-15.60645428 31.12996478 -15.65312924 33.57229937 -15.70530701 36.01460266 C-15.73722407 37.53141954 -15.7641267 39.04835184 -15.78553772 40.56535339 C-15.88824613 45.77649227 -15.88824613 45.77649227 -17 48 C-17.66 48 -18.32 48 -19 48 C-19.00534829 42.715509 -18.97153553 37.43321168 -18.90234375 32.14916992 C-18.88424172 30.35399818 -18.8766047 28.55868775 -18.87988281 26.76342773 C-18.88275681 24.1732373 -18.84727267 21.58588862 -18.8046875 18.99609375 C-18.81378143 18.20101913 -18.82287537 17.40594452 -18.83224487 16.58677673 C-18.69200367 11.13797656 -17.27052514 8.31749556 -13.54818726 4.3458252 C-11.41840276 2.49442277 -9.48540399 1.70439695 -6.75 1.0625 C-5.89921875 0.84722656 -5.0484375 0.63195312 -4.171875 0.41015625 C-2 0 -2 0 0 0 Z " fill="#E4E3E3" transform="translate(515,353)"/>
<path d="M0 0 C2.36408092 2.22214736 4.09314209 4.35158624 6 7 C5.34 7.66 4.68 8.32 4 9 C3.56171875 8.38511719 3.1234375 7.77023437 2.671875 7.13671875 C-1.90073184 1.3094332 -5.59248705 -1.33641172 -12.90625 -2.703125 C-20.39344758 -3.42159345 -27.39166832 -2.81249905 -34 1 C-36.49665037 3.19497178 -38.75343448 5.55324547 -41 8 C-41.99542341 9.00455574 -42.99395787 10.00607886 -44 11 C-43.57870447 6.08488551 -41.69468278 4.15587488 -38 1 C-25.70573403 -8.05085891 -13.05358381 -8.99507046 0 0 Z " fill="#E6E6E6" transform="translate(592,347)"/>
<path d="M0 0 C5.22041992 0.37288714 8.5691175 2.10493928 12 6 C14.84610291 10.7741081 15.44037982 14.42509946 14.5625 19.79296875 C13.43895893 24.20130697 11.94324527 27.54364323 8.23828125 30.3203125 C3.61559465 32.91773562 -0.75243452 34.015003 -6 33 C-9.92855371 31.61760049 -13.06808634 29.90367385 -16.0625 27 C-17 25 -17 25 -16.6875 22.75 C-16.460625 22.1725 -16.23375 21.595 -16 21 C-15.46375 21.928125 -14.9275 22.85625 -14.375 23.8125 C-11.73787429 27.3518003 -10.12904663 28.54268943 -6 30 C-0.56841515 30.59253653 3.23101351 29.65962708 8 27 C11.42642807 22.38595751 11.62238773 18.55644166 11.484375 12.953125 C10.73255438 8.36944442 8.64425604 5.77373118 5 3 C2.31520124 1.53574467 2.31520124 1.53574467 0 1 C0 0.67 0 0.34 0 0 Z " fill="#E5DFDF" transform="translate(350,372)"/>
<path d="M0 0 C0.99 0.495 0.99 0.495 2 1 C3.17619886 4.52859657 3.17754368 7.42963619 3.24609375 11.15234375 C3.27902718 12.58268853 3.31223891 14.01302692 3.34570312 15.44335938 C3.39311986 17.69258315 3.43757465 19.94178009 3.47680664 22.19116211 C3.51659155 24.36599091 3.56811128 26.54030199 3.62109375 28.71484375 C3.6461499 30.01542725 3.67120605 31.31601074 3.69702148 32.65600586 C3.97405866 35.71368365 4.38267707 37.44115975 6 40 C3.13275314 39.42655063 2.1385485 39.1385485 0 37 C-0.17525055 34.20315203 -0.23143189 31.5067192 -0.1953125 28.7109375 C-0.1924826 27.89251373 -0.18965271 27.07408997 -0.18673706 26.23086548 C-0.17552532 23.61209607 -0.15041929 20.99366636 -0.125 18.375 C-0.11497147 16.60156743 -0.1058454 14.82812951 -0.09765625 13.0546875 C-0.07558278 8.70299374 -0.04104644 4.3515545 0 0 Z " fill="#ED353A" transform="translate(298,458)"/>
<path d="M0 0 C1.32 0.66 2.64 1.32 4 2 C4.4375 5.125 4.4375 5.125 4 9 C-0.44458862 14.42411229 -6.11955702 17.23550634 -13 18 C-20.49685954 18.41509457 -27.56762902 18.28824732 -34 14 C-33.67 13.34 -33.34 12.68 -33 12 C-32.39027344 12.32226562 -31.78054688 12.64453125 -31.15234375 12.9765625 C-26.61879916 14.4484196 -22.29996757 14.36845201 -17.5625 14.375 C-16.63373047 14.39949219 -15.70496094 14.42398437 -14.74804688 14.44921875 C-8.81205451 14.47456818 -5.54963501 13.87908659 -1 10 C-0.34 9.34 0.32 8.68 1 8 C1.02375926 6.0068433 1.02375926 6.0068433 0.625 3.875 C0.41875 2.59625 0.2125 1.3175 0 0 Z " fill="#EEEDEE" transform="translate(740,387)"/>
<path d="M0 0 C3.27305025 2.32814883 4.14434746 5.55268656 5.4453125 9.2421875 C6.10080078 11.08876953 6.10080078 11.08876953 6.76953125 12.97265625 C6.99205566 13.61348145 7.21458008 14.25430664 7.44384766 14.91455078 C8.12131173 16.86438467 8.81142926 18.80935999 9.50390625 20.75390625 C13.01294354 30.71873915 13.01294354 30.71873915 14 36 C14.33 36.99 14.66 37.98 15 39 C14.01 39 13.02 39 12 39 C11.77570312 37.79472656 11.55140625 36.58945312 11.3203125 35.34765625 C9.86425743 28.79540842 7.33595336 22.66571109 4.875 16.4375 C4.40707031 15.23802734 3.93914063 14.03855469 3.45703125 12.80273438 C2.31048143 9.86616291 1.15802248 6.93206187 0 4 C-5.28199593 2.80011955 -5.28199593 2.80011955 -10 5 C-11.19232613 7.05003955 -11.19232613 7.05003955 -12 9 C-12.48 3.6 -12.48 3.6 -10.5 1.125 C-6.74715576 -0.56377991 -4.11331542 -0.39174433 0 0 Z " fill="#EEEDEE" transform="translate(616,342)"/>
<path d="M0 0 C0.33 0 0.66 0 1 0 C1.07444911 5.56841139 1.12874318 11.13652964 1.16479492 16.70532227 C1.17983246 18.59762625 1.20026785 20.48989566 1.22631836 22.38208008 C1.26292399 25.11027586 1.2797769 27.83800871 1.29296875 30.56640625 C1.30845261 31.40522842 1.32393646 32.2440506 1.33988953 33.10829163 C1.34141414 38.49304154 0.61065038 42.25256455 -2 47 C-2.99 47.66 -3.98 48.32 -5 49 C-5 48.34 -5 47.68 -5 47 C-5.66 46.67 -6.32 46.34 -7 46 C-6.18885742 45.69980957 -5.37771484 45.39961914 -4.54199219 45.09033203 C-1.88341361 43.3251738 -1.88341361 43.3251738 -1.52111816 41.1083374 C-1.33921954 38.58043191 -1.30821789 36.08915785 -1.328125 33.5546875 C-1.31537537 32.62907013 -1.30262573 31.70345276 -1.28948975 30.74978638 C-1.25311629 27.79121411 -1.25048009 24.83377656 -1.25 21.875 C-1.22842405 18.90950564 -1.20001619 15.94418556 -1.16766357 12.97879028 C-1.14982945 11.13255593 -1.1396099 9.28623018 -1.13751221 7.43991089 C-1.10851238 1.10851238 -1.10851238 1.10851238 0 0 Z " fill="#F61A1D" transform="translate(300,259)"/>
<path d="M0 0 C0.33 0 0.66 0 1 0 C1.09897181 5.05365292 1.17151603 10.10674024 1.21972656 15.16113281 C1.23982628 16.87998279 1.26711089 18.59876452 1.30175781 20.31738281 C1.35035034 22.78988489 1.37298435 25.2614821 1.390625 27.734375 C1.41127014 28.50118591 1.43191528 29.26799683 1.45318604 30.05804443 C1.45468666 33.63642496 1.3057788 35.59939081 -0.8972168 38.4855957 C-4.43244059 41.03162998 -6.72430759 40.47507693 -11 40 C-13 38.5 -13 38.5 -14 37 C-13.67 36.01 -13.34 35.02 -13 34 C-12.67 34.99 -12.34 35.98 -12 37 C-10.081875 36.8453125 -10.081875 36.8453125 -8.125 36.6875 C-7.40570312 36.62949219 -6.68640625 36.57148438 -5.9453125 36.51171875 C-3.60480784 36.12606964 -3.60480784 36.12606964 -2 33 C-1.6917245 30.47019812 -1.48733668 28.02732416 -1.3671875 25.48828125 C-1.32562531 24.76005661 -1.28406311 24.03183197 -1.24124146 23.28153992 C-1.110641 20.95890446 -0.99266701 18.63582307 -0.875 16.3125 C-0.78859201 14.73628232 -0.7013622 13.16010946 -0.61328125 11.58398438 C-0.39931971 7.72311134 -0.19667843 3.86179048 0 0 Z " fill="#DDDEDB" transform="translate(536,364)"/>
<path d="M0 0 C0.98484375 0.00902344 1.9696875 0.01804687 2.984375 0.02734375 C4.10585938 0.04474609 4.10585938 0.04474609 5.25 0.0625 C5.25 0.7225 5.25 1.3825 5.25 2.0625 C3.94675781 2.22685547 3.94675781 2.22685547 2.6171875 2.39453125 C-7.25553647 3.53641578 -7.25553647 3.53641578 -15.4375 8.75 C-15.870625 9.183125 -16.30375 9.61625 -16.75 10.0625 C-17.74 10.0625 -18.73 10.0625 -19.75 10.0625 C-19.87375 9.258125 -19.9975 8.45375 -20.125 7.625 C-20.33125 6.779375 -20.5375 5.93375 -20.75 5.0625 C-23.52100394 3.67699803 -25.6834706 3.8747533 -28.75 4.0625 C-29.74 4.7225 -30.73 5.3825 -31.75 6.0625 C-31.375 4.125 -31.375 4.125 -30.75 2.0625 C-27.69306678 0.53403339 -25.12015453 0.83007555 -21.75 1.0625 C-19.3125 2.4375 -19.3125 2.4375 -17.75 4.0625 C-17.75 4.7225 -17.75 5.3825 -17.75 6.0625 C-17.21890625 5.71316406 -16.6878125 5.36382812 -16.140625 5.00390625 C-15.43421875 4.54886719 -14.7278125 4.09382813 -14 3.625 C-13.30390625 3.17253906 -12.6078125 2.72007812 -11.890625 2.25390625 C-7.92335106 0.0458432 -4.49748032 -0.05354143 0 0 Z " fill="#E8E3E2" transform="translate(515.75,340.9375)"/>
<path d="M0 0 C0.763125 0.0825 1.52625 0.165 2.3125 0.25 C1.9825 0.91 1.6525 1.57 1.3125 2.25 C0.3225 2.58 -0.6675 2.91 -1.6875 3.25 C-3.33435461 6.54370921 -3.14144166 10.18002032 -3.40625 13.81640625 C-3.6875 16.25 -3.6875 16.25 -4.6875 17.25 C-7.34213121 17.70459858 -10.00939138 17.95243238 -12.6875 18.25 C-13.54137105 21.55567489 -13.54137105 21.55567489 -13.6875 25.25 C-11.895309 27.71172153 -11.895309 27.71172153 -9.6875 29.25 C-14.4375 28.5 -14.4375 28.5 -16.6875 26.25 C-17.23780095 19.31620808 -17.23780095 19.31620808 -15.6875 16.3125 C-12.47713377 14.60699294 -9.29450273 14.54565596 -5.6875 14.25 C-5.72230469 13.57453125 -5.75710938 12.8990625 -5.79296875 12.203125 C-5.82003906 11.31109375 -5.84710937 10.4190625 -5.875 9.5 C-5.92720703 8.17742187 -5.92720703 8.17742187 -5.98046875 6.828125 C-5.51804293 2.75877775 -4.19874253 0.3905807 0 0 Z " fill="#E8E8E8" transform="translate(890.6875,327.75)"/>
<path d="M0 0 C0.99 0.495 0.99 0.495 2 1 C4.12889724 7.43151061 4.27338486 13.45683911 4.1875 20.1875 C4.18685547 21.15880859 4.18621094 22.13011719 4.18554688 23.13085938 C4.15811508 27.57785795 3.97493047 31.64563474 3 36 C2.34 36 1.68 36 1 36 C0.67 24.12 0.34 12.24 0 0 Z " fill="#E32F34" transform="translate(394,243)"/>
<path d="M0 0 C0.495 0.639375 0.99 1.27875 1.5 1.9375 C2.325 2.948125 3.15 3.95875 4 5 C4.59425781 5.74765625 5.18851563 6.4953125 5.80078125 7.265625 C9.85146222 12.14217296 12.46972312 15.15738363 19 16 C23.66374326 16.42071171 28.32388411 16.75354729 33 17 C33 17.66 33 18.32 33 19 C25.92404328 21.35865224 18.56055951 20.25165602 12 17 C6.9792824 13.48105457 2.889878 9.41852124 0 4 C0 2.68 0 1.36 0 0 Z " fill="#F0ECEE" transform="translate(813,385)"/>
<path d="M0 0 C0.33 0 0.66 0 1 0 C1.0093457 1.01835937 1.01869141 2.03671875 1.02832031 3.0859375 C1.06845619 6.8957758 1.13427763 10.70482645 1.20751953 14.51416016 C1.23559331 16.15696019 1.25687495 17.79989189 1.27099609 19.44287109 C1.29261621 21.81675973 1.3393576 24.18908792 1.390625 26.5625 C1.39185364 27.28679199 1.39308228 28.01108398 1.39434814 28.75732422 C1.54771174 34.20259351 3.02061953 38.42342762 6 43 C8.06544894 44.97424869 8.06544894 44.97424869 10 46 C7.34303932 45.84817368 5.55765476 45.52675976 3.58984375 43.66796875 C-0.36718366 38.92645778 -1.12709797 36.57711411 -1.1328125 30.48828125 C-1.13410156 29.17279297 -1.13539063 27.85730469 -1.13671875 26.50195312 C-1.13462402 25.81367432 -1.1325293 25.12539551 -1.13037109 24.41625977 C-1.12506505 22.33797753 -1.13029593 20.25991573 -1.13671875 18.18164062 C-1.13605711 16.8463537 -1.13477417 15.5110669 -1.1328125 14.17578125 C-1.13168457 12.96833252 -1.13055664 11.76088379 -1.12939453 10.5168457 C-0.99810501 6.94849548 -0.56768239 3.52306959 0 0 Z " fill="#E0E1E1" transform="translate(886,356)"/>
<path d="M0 0 C0.66 0 1.32 0 2 0 C3.17869726 4.20664539 3.14373341 8.29362695 3.1328125 12.6328125 C3.13376923 13.46585907 3.13472595 14.29890564 3.13571167 15.15719604 C3.13639092 16.91388017 3.13455443 18.67056682 3.13037109 20.42724609 C3.12500572 23.12212722 3.13033162 25.8168427 3.13671875 28.51171875 C3.13605819 30.21875037 3.13477748 31.92578188 3.1328125 33.6328125 C3.13483673 34.44114532 3.13686096 35.24947815 3.13894653 36.08230591 C3.11496889 41.77006221 3.11496889 41.77006221 2 44 C1.34 44 0.68 44 0 44 C0 29.48 0 14.96 0 0 Z " fill="#ECEAED" transform="translate(801,357)"/>
<path d="M0 0 C3.875 0.875 3.875 0.875 5 2 C6.10474736 12.43197149 6.10474736 12.43197149 3.0625 16.75 C-1.10684096 18.45177182 -4.56357675 18.76213419 -9 18 C-12.0625 16.5625 -12.0625 16.5625 -14 14 C-14.39854677 10.95321482 -14.29353436 8.05275729 -14 5 C-13.34 4.67 -12.68 4.34 -12 4 C-11.97421875 4.62648438 -11.9484375 5.25296875 -11.921875 5.8984375 C-11.86515625 6.71570313 -11.8084375 7.53296875 -11.75 8.375 C-11.70359375 9.18710937 -11.6571875 9.99921875 -11.609375 10.8359375 C-11.20355902 13.13457452 -11.20355902 13.13457452 -9.2109375 14.296875 C-5.42911359 15.49957518 -2.87193831 14.87430865 1 14 C2.77340479 12.45437518 2.77340479 12.45437518 3 10 C2.70663502 5.8195491 2.34075925 3.51113888 0 0 Z " fill="#E2E1E1" transform="translate(937,386)"/>
<path d="M0 0 C0 0.66 0 1.32 0 2 C-1.175625 1.79375 -2.35125 1.5875 -3.5625 1.375 C-7.81246025 0.85505805 -10.99250611 1.34985546 -15 3 C-17.70010525 5.53522842 -18.00264542 7.02299765 -18.43237305 10.75878906 C-18.47363884 12.26073373 -18.49919858 13.76316572 -18.51171875 15.265625 C-18.52966995 16.05902283 -18.54762115 16.85242065 -18.56611633 17.66986084 C-18.62016926 20.19652031 -18.65409812 22.72299144 -18.6875 25.25 C-18.7206776 26.96617201 -18.75516767 28.68231919 -18.79101562 30.3984375 C-18.87589255 34.59882232 -18.94272721 38.79915177 -19 43 C-19.33 43 -19.66 43 -20 43 C-20.12383064 37.67985484 -20.21444676 32.36055286 -20.2746582 27.03930664 C-20.2997639 25.23023868 -20.33385595 23.42127178 -20.37719727 21.61254883 C-20.43802579 19.00837249 -20.46624809 16.40553969 -20.48828125 13.80078125 C-20.51408768 12.99538406 -20.5398941 12.18998688 -20.56648254 11.36018372 C-20.56861422 7.06804081 -20.4038208 5.50166667 -17.61401367 2.03588867 C-12.09068686 -2.26587861 -6.53038386 -3.26519193 0 0 Z " fill="#F5F4F6" transform="translate(785,356)"/>
<path d="M0 0 C0.66 0 1.32 0 2 0 C2.23074219 0.54269531 2.46148438 1.08539063 2.69921875 1.64453125 C4.20980787 4.95827419 5.47769969 7.52246829 8.1875 10 C13.19838165 11.78164681 17.91457615 11.81603542 22.875 9.875 C25.50176755 7.55726392 26.64728697 5.20379402 28 2 C28.66 2 29.32 2 30 2 C28.72414356 6.98743882 26.91418193 9.65862518 23 13 C18.38741035 14.53752988 13.67948401 14.86704551 8.99609375 13.3515625 C4.19759156 10.92640157 2.19979552 7.83955015 0 3 C0 2.01 0 1.02 0 0 Z " fill="#E9E9EA" transform="translate(825,377)"/>
<path d="M0 0 C2.28125 1.01953125 2.28125 1.01953125 4 2 C1.00519083 2.8723412 -1.63575911 3.10829766 -4.75 3.0625 C-5.54921875 3.05347656 -6.3484375 3.04445313 -7.171875 3.03515625 C-7.77515625 3.02355469 -8.3784375 3.01195312 -9 3 C-9.66 4.32 -10.32 5.64 -11 7 C-9.35 8.98 -7.7 10.96 -6 13 C-9.03153686 12.67226629 -10.61573103 12.35865103 -12.875 10.25 C-14 8 -14 8 -13.9375 5.4375 C-11.50299747 -0.89220658 -5.99737517 -0.81302445 0 0 Z " fill="#E7E5E6" transform="translate(1005,353)"/>
<path d="M0 0 C7.8420636 -0.5808936 14.33059892 1.26928292 20.6875 6 C22 8 22 8 21.75 10.25 C21.5025 10.8275 21.255 11.405 21 12 C20.319375 10.88625 20.319375 10.88625 19.625 9.75 C14.56098866 4.44484526 6.95433831 2.81417521 0 1 C0 0.67 0 0.34 0 0 Z " fill="#E2E0E2" transform="translate(1000,366)"/>
<path d="M0 0 C-0.33 0.66 -0.66 1.32 -1 2 C-3.32156597 2.40729228 -5.6568787 2.74438677 -8 3 C-8.19335938 3.66386719 -8.38671875 4.32773437 -8.5859375 5.01171875 C-11.17223199 13.78207381 -11.17223199 13.78207381 -13 18 C-13.33 18 -13.66 18 -14 18 C-13.6104885 12.0767389 -12.79923511 7.27548156 -10 2 C-6.3558226 -0.4294516 -4.28758728 -0.16179575 0 0 Z " fill="#E5E6E7" transform="translate(685,342)"/>
<path d="M0 0 C1.03125 0.165 2.0625 0.33 3.125 0.5 C6.88690384 1.09439623 6.88690384 1.09439623 10.25 0.875 C13 1 13 1 14.875 2.0625 C16.58196395 5.00227124 16.18799766 7.67870803 16 11 C15.01 11 14.02 11 13 11 C13 8.36 13 5.72 13 3 C12.31292969 3.09539062 11.62585938 3.19078125 10.91796875 3.2890625 C10.01691406 3.39992188 9.11585938 3.51078125 8.1875 3.625 C7.29417969 3.74101562 6.40085937 3.85703125 5.48046875 3.9765625 C3 4 3 4 0 2 C0 1.34 0 0.68 0 0 Z " fill="#E6E6E6" transform="translate(900,387)"/>
<path d="M0 0 C1.64010488 2.8946871 2.20086566 5.00459839 2.3125 8.3125 C2.77561496 13.23614329 4.45718695 16.54551193 8 20 C10.6378567 21.47772157 10.6378567 21.47772157 13 22 C10.61653863 22.85573613 9.49514852 23.22877115 7.1484375 22.14453125 C6.56320312 21.70496094 5.97796875 21.26539063 5.375 20.8125 C4.78460937 20.38582031 4.19421875 19.95914062 3.5859375 19.51953125 C0.62988152 16.68725102 0.0371979 14.65765889 -0.1953125 10.546875 C-0.17210937 9.29390625 -0.14890625 8.0409375 -0.125 6.75 C-0.10695313 5.48671875 -0.08890625 4.2234375 -0.0703125 2.921875 C-0.04710937 1.95765625 -0.02390625 0.9934375 0 0 Z " fill="#EEEDED" transform="translate(978,353)"/>
<path d="M0 0 C1.91541138 -0.10841951 3.83259773 -0.18578079 5.75 -0.25 C6.81734375 -0.29640625 7.8846875 -0.3428125 8.984375 -0.390625 C12 0 12 0 14.375 1.78125 C16.64376819 4.87899118 16.28754631 7.26189795 16 11 C15.01 11.33 14.02 11.66 13 12 C13.0928125 10.3603125 13.0928125 10.3603125 13.1875 8.6875 C13.33211885 5.15855871 13.33211885 5.15855871 11.8125 3.28125 C9.37282766 1.55665403 7.76872728 1.69732231 4.8125 1.8125 C3.46091797 1.85310547 3.46091797 1.85310547 2.08203125 1.89453125 C1.39496094 1.92933594 0.70789063 1.96414063 0 2 C0 1.34 0 0.68 0 0 Z " fill="#E8E7E9" transform="translate(900,343)"/>
<path d="M0 0 C0 0.66 0 1.32 0 2 C-1.216875 2.226875 -2.43375 2.45375 -3.6875 2.6875 C-8.72702534 3.94515146 -11.38454601 6.57681902 -14.25 10.875 C-15.30540723 13.86532049 -15.63765585 16.85968403 -16 20 C-16.33 20 -16.66 20 -17 20 C-17.53993763 13.38576402 -16.99185395 9.39439723 -13 4 C-8.68642733 0.76482049 -5.32163079 0 0 0 Z " fill="#E7DDDE" transform="translate(349,371)"/>
<path d="M0 0 C0.99 0 1.98 0 3 0 C3.70088156 1.74468372 4.38524009 3.49601161 5.0625 5.25 C5.44535156 6.22453125 5.82820312 7.1990625 6.22265625 8.203125 C7 11 7 11 6 15 C4.35 12.03 2.7 9.06 1 6 C0.34 6 -0.32 6 -1 6 C-0.67 4.02 -0.34 2.04 0 0 Z " fill="#F1EFF0" transform="translate(645,366)"/>
<path d="M0 0 C0.66 0 1.32 0 2 0 C2.84770456 2.18283925 3.67807547 4.36996079 4.5 6.5625 C4.9640625 7.78066406 5.428125 8.99882812 5.90625 10.25390625 C7.01223121 14.0418919 7.20185162 17.07903233 7 21 C4.76872275 17.65308412 3.61467238 14.28388372 2.375 10.5 C2.03082031 9.48486328 2.03082031 9.48486328 1.6796875 8.44921875 C0.70703083 5.51387986 0 3.11291919 0 0 Z " fill="#EDEEEF" transform="translate(654,352)"/>
<path d="M0 0 C5.11257597 1.2993287 9.64315292 3.91340356 13 8 C10.12862585 8 7.7696959 7.72886734 5 7 C4.67 6.34 4.34 5.68 4 5 C1.69034152 3.94647157 -0.6429774 2.94280904 -3 2 C-2.01 1.34 -1.02 0.68 0 0 Z " fill="#EC323B" transform="translate(373,192)"/>
<path d="M0 0 C0 0.66 0 1.32 0 2 C-1.98 2.33 -3.96 2.66 -6 3 C-6.74926071 6.66305234 -7.2380014 9.42355152 -6 13 C-7.32 12.34 -8.64 11.68 -10 11 C-10.48756219 4.66169154 -10.48756219 4.66169154 -8.25 1.625 C-5.30845542 -0.49944886 -3.378971 -1.6894855 0 0 Z " fill="#EFECEC" transform="translate(951,410)"/>
<path d="M0 0 C2.64396764 2.64396764 3.56774324 5.57503819 5 9 C6.49743119 10.49743119 7.98824239 10.33202693 10.0625 10.5625 C11.361875 10.706875 12.66125 10.85125 14 11 C13.67 11.66 13.34 12.32 13 13 C9.13391023 13.30322273 6.62686446 13.31343223 3.125 11.5625 C0.12632773 7.94645403 0.1077414 4.58390694 0 0 Z " fill="#E9E7E8" transform="translate(655,391)"/>
<path d="M0 0 C2.475 0.99 2.475 0.99 5 2 C5.56131481 8.45512034 3.63463787 13.15439723 1 19 C0.34 19 -0.32 19 -1 19 C-0.50789329 16.2113953 0.11482666 13.67578355 1.0625 11 C1.97766209 8.07148131 2.32815066 6.03539364 2 3 C1.34 2.01 0.68 1.02 0 0 Z " fill="#E9E8E9" transform="translate(685,344)"/>
<path d="M0 0 C4.95 0 9.9 0 15 0 C14.67 0.99 14.34 1.98 14 3 C9.71 3 5.42 3 1 3 C0.67 2.01 0.34 1.02 0 0 Z " fill="#F0393C" transform="translate(293,316)"/>
<path d="M0 0 C0.84304688 1.07314453 0.84304688 1.07314453 1.703125 2.16796875 C3.97236686 4.96592853 6.33051154 7.64394655 8.75 10.3125 C9.54921875 11.19550781 10.3484375 12.07851563 11.171875 12.98828125 C11.77515625 13.65214844 12.3784375 14.31601562 13 15 C12.01 15.33 11.02 15.66 10 16 C2.03392059 8.42676834 2.03392059 8.42676834 0 4 C0 2.68 0 1.36 0 0 Z " fill="#E7E7E7" transform="translate(813,385)"/>
<path d="M0 0 C2.4503323 0.45376524 3.99815325 0.99871287 6.0625 2.4375 C10.45834242 4.77571405 15.11196112 5.27235849 20 6 C20 6.33 20 6.66 20 7 C13.01162192 7.4624662 6.7134643 7.56771612 1 3 C0.67 2.01 0.34 1.02 0 0 Z " fill="#EDEEEC" transform="translate(561,384)"/>
<path d="M0 0 C3 1 3 1 4.4375 3.8125 C4.953125 4.864375 5.46875 5.91625 6 7 C8.06167261 9.31418291 8.06167261 9.31418291 10 11 C9.67 11.99 9.34 12.98 9 14 C4.2512635 10.83417567 2.02165086 7.21789216 0 2 C0 1.34 0 0.68 0 0 Z " fill="#F53339" transform="translate(277,420)"/>
<path d="M0 0 C6.40140935 0.46555704 11.26769829 2.14711836 17 5 C13.1280483 6.29065057 10.55767399 5.22324098 6.8125 4.0625 C5.83120117 3.76956055 5.83120117 3.76956055 4.83007812 3.47070312 C3.21772593 2.98817437 1.60853711 2.49509795 0 2 C0 1.34 0 0.68 0 0 Z " fill="#E6E4E4" transform="translate(992,376)"/>
<path d="M0 0 C3.5 1.5 3.5 1.5 6 3 C2.96262359 4.0124588 1.75794826 3.99204457 -1.3125 3.5625 C-4.90461076 3.10468196 -8.37248393 2.90698677 -12 3 C-8.47033059 -0.52966941 -4.73944528 -0.70819297 0 0 Z " fill="#E6E6E6" transform="translate(577,354)"/>
<path d="M0 0 C0.66 0 1.32 0 2 0 C2 5.94 2 11.88 2 18 C-1.38671875 13.484375 -1.38671875 13.484375 -1.25 9 C-1.23453125 8.154375 -1.2190625 7.30875 -1.203125 6.4375 C-1.01512019 4.18144231 -0.62330092 2.17149996 0 0 Z " fill="#E2E4E1" transform="translate(544,364)"/>
<path d="M0 0 C1 2 1 2 0.00390625 5.4765625 C-0.46900047 6.86197936 -0.94981644 8.24471547 -1.4375 9.625 C-1.68048828 10.33140625 -1.92347656 11.0378125 -2.17382812 11.765625 C-2.77587205 13.51273287 -3.38708017 15.25667786 -4 17 C-4.33 17 -4.66 17 -5 17 C-4.15533981 4.15533981 -4.15533981 4.15533981 0 0 Z " fill="#E8E9EA" transform="translate(638,354)"/>
<path d="M0 0 C1.32 1.65 2.64 3.3 4 5 C-0.29 4.67 -4.58 4.34 -9 4 C-9 3.34 -9 2.68 -9 2 C-2.25 0 -2.25 0 0 0 Z " fill="#E7E6E5" transform="translate(515,353)"/>
<path d="M0 0 C1.8125 0.1875 1.8125 0.1875 4 1 C5.8125 3.25 5.8125 3.25 7 6 C6.6875 8.8125 6.6875 8.8125 6 11 C4.68 11.33 3.36 11.66 2 12 C2.33 11.34 2.66 10.68 3 10 C3.30343947 6.51044604 3.39470082 4.62494296 1.5 1.625 C1.005 1.08875 0.51 0.5525 0 0 Z " fill="#E8E6E6" transform="translate(1017,347)"/>
<path d="M0 0 C3.95618991 0.56516999 5.08509807 1.40892553 7.5 4.5 C6.91992188 4.41621094 6.33984375 4.33242188 5.7421875 4.24609375 C1.07684697 3.63790579 -2.85442117 3.42794335 -7.5 4.5 C-5.08509807 1.40892553 -3.95618991 0.56516999 0 0 Z " fill="#EFEEF1" transform="translate(961.5,341.5)"/>
<path d="M0 0 C-1.41773462 3.54433654 -2.67612238 4.33806119 -6 6 C-6.6837045 7.32467746 -7.34964186 8.65863633 -8 10 C-10.125 11.75 -10.125 11.75 -12 13 C-11.35492261 11.65608877 -10.6802367 10.32646156 -10 9 C-9.70867187 8.42121094 -9.41734375 7.84242188 -9.1171875 7.24609375 C-7.65192273 4.48285822 -6.49644196 2.33582839 -3.875 0.5625 C-2 0 -2 0 0 0 Z " fill="#EC333A" transform="translate(304,205)"/>
<path d="M0 0 C3.9252025 3.70090521 6.94580156 7.54959656 10 12 C6.52556925 11.43351673 5.01266113 10.35584027 2.75 7.6875 C2.22921875 7.09324219 1.7084375 6.49898438 1.171875 5.88671875 C0 4 0 4 0 0 Z " fill="#E8E9E5" transform="translate(695,387)"/>
<path d="M0 0 C0.66 0.33 1.32 0.66 2 1 C2 1.66 2 2.32 2 3 C0.824375 2.835 -0.35125 2.67 -1.5625 2.5 C-5.41273873 2.01271488 -9.12258073 1.91922043 -13 2 C-8.93614094 -2.06385906 -5.21367241 -0.82756705 0 0 Z " fill="#EAE8E6" transform="translate(783,355)"/>
<path d="M0 0 C3.22290201 0.0289309 5.44294723 0.35779815 8.1875 2.1875 C5.54011084 3.6481285 4.29301666 4.1875 1.1875 4.1875 C1.1875 3.5275 1.1875 2.8675 1.1875 2.1875 C0.56875 2.39375 -0.05 2.6 -0.6875 2.8125 C-1.38875 2.93625 -2.09 3.06 -2.8125 3.1875 C-3.4725 2.5275 -4.1325 1.8675 -4.8125 1.1875 C-3.8125 0.1875 -3.8125 0.1875 0 0 Z " fill="#EB3639" transform="translate(403.8125,316.8125)"/>
<path d="M0 0 C1.12894876 0.93274109 2.25300876 1.87140122 3.375 2.8125 C4.00148438 3.33457031 4.62796875 3.85664063 5.2734375 4.39453125 C7 6 7 6 9 9 C6.69 8.67 4.38 8.34 2 8 C1.34 5.36 0.68 2.72 0 0 Z " fill="#EF252B" transform="translate(352,237)"/>
<path d="M0 0 C4.95 0.99 4.95 0.99 10 2 C10 2.99 10 3.98 10 5 C3.375 5.25 3.375 5.25 0 3 C0 2.01 0 1.02 0 0 Z " fill="#E9E8E7" transform="translate(789,399)"/>
<path d="M0 0 C0 0.66 0 1.32 0 2 C-0.83144531 2.38091797 -0.83144531 2.38091797 -1.6796875 2.76953125 C-2.40414062 3.11371094 -3.12859375 3.45789063 -3.875 3.8125 C-4.59429688 4.14894531 -5.31359375 4.48539062 -6.0546875 4.83203125 C-8.30542806 5.99467097 -8.30542806 5.99467097 -10 9 C-10.66 9 -11.32 9 -12 9 C-11.00222417 5.40800699 -10.08216231 4.06608707 -7.125 1.6875 C-4 0 -4 0 0 0 Z " fill="#E9E8E9" transform="translate(720,355)"/>
<path d="M0 0 C-1.32332319 3.96996957 -4.0089399 5.76036395 -7.24609375 8.14453125 C-9 9 -9 9 -12 8 C-10.37982158 6.66081194 -8.75370657 5.3288031 -7.125 4 C-6.22007812 3.2575 -5.31515625 2.515 -4.3828125 1.75 C-2 0 -2 0 0 0 Z " fill="#EB2A2F" transform="translate(347,444)"/>
<path d="M0 0 C1.98828125 0.37109375 1.98828125 0.37109375 3.98828125 2.37109375 C3.40820312 2.31308594 2.828125 2.25507813 2.23046875 2.1953125 C-2.21669524 1.93846309 -5.0825311 1.8985539 -8.57421875 4.87109375 C-9.78078125 6.10859375 -9.78078125 6.10859375 -11.01171875 7.37109375 C-11.34171875 6.71109375 -11.67171875 6.05109375 -12.01171875 5.37109375 C-8.28007212 0.55606584 -5.78972026 -0.16542058 0 0 Z " fill="#EFEFF0" transform="translate(935.01171875,383.62890625)"/>
<path d="M0 0 C1.18771723 3.42943519 0.80226223 5.37784675 -0.4375 8.75 C-0.72496094 9.54921875 -1.01242187 10.3484375 -1.30859375 11.171875 C-1.53675781 11.77515625 -1.76492188 12.3784375 -2 13 C-2.66 13 -3.32 13 -4 13 C-4.33 13.66 -4.66 14.32 -5 15 C-4.43174347 9.45949887 -2.37113483 4.96284034 0 0 Z " fill="#E9E7EA" transform="translate(677,381)"/>
<path d="M0 0 C0.79921875 0.19464844 1.5984375 0.38929688 2.421875 0.58984375 C3.32679688 0.82380859 3.32679688 0.82380859 4.25 1.0625 C4.25 1.3925 4.25 1.7225 4.25 2.0625 C-0.7 2.0625 -5.65 2.0625 -10.75 2.0625 C-7.32832052 -1.35917948 -4.52464496 -1.13116124 0 0 Z " fill="#E0E0E0" transform="translate(843.75,354.9375)"/>
<path d="M0 0 C1.32 0 2.64 0 4 0 C3.34 1.65 2.68 3.3 2 5 C1.34 5 0.68 5 0 5 C0 5.66 0 6.32 0 7 C-1.98 7.33 -3.96 7.66 -6 8 C-4.36587557 6.29159719 -3.13093906 5.06546953 -1 4 C-0.34786708 1.97536745 -0.34786708 1.97536745 0 0 Z " fill="#EBEAEA" transform="translate(963,415)"/>
<path d="M0 0 C0.99 0.495 0.99 0.495 2 1 C2 1.66 2 2.32 2 3 C4.31 3 6.62 3 9 3 C9.33 3.99 9.66 4.98 10 6 C3.539801 6.36567164 3.539801 6.36567164 1.0625 4.6875 C0 3 0 3 0 0 Z " fill="#E9E4E1" transform="translate(522,398)"/>
<path d="M0 0 C1.32 0.66 2.64 1.32 4 2 C4.3669579 8.48292295 4.3669579 8.48292295 2.625 10.9375 C1 12 1 12 -1 12 C-0.649375 11.505 -0.29875 11.01 0.0625 10.5 C1.46011601 6.77302397 0.65032859 3.90197152 0 0 Z " fill="#E2E3E1" transform="translate(740,387)"/>
<path d="M0 0 C5.28 0.33 10.56 0.66 16 1 C12.26935156 3.48709896 10.42368032 3.29991053 6 3 C2.5625 2 2.5625 2 0 1 C0 0.67 0 0.34 0 0 Z " fill="#E3E2E4" transform="translate(992,390)"/>
<path d="M0 0 C3.40110553 0.34011055 4.73341421 0.92091421 7.125 3.3125 C7.125 3.9725 7.125 4.6325 7.125 5.3125 C1.185 3.8275 1.185 3.8275 -4.875 2.3125 C-2.875 0.3125 -2.875 0.3125 0 0 Z " fill="#F1F1F2" transform="translate(861.875,340.6875)"/>
<path d="M0 0 C0.66 0 1.32 0 2 0 C2.25394531 0.54269531 2.50789062 1.08539063 2.76953125 1.64453125 C3.11371094 2.35996094 3.45789063 3.07539063 3.8125 3.8125 C4.14894531 4.52019531 4.48539063 5.22789062 4.83203125 5.95703125 C6.00645471 8.01129035 7.25628016 9.41616278 9 11 C6.75 10.9375 6.75 10.9375 4 10 C1.52994022 6.9301813 0 4.00503984 0 0 Z " fill="#EEEFF1" transform="translate(825,377)"/>
<path d="M0 0 C2.05123248 2.05123248 2.64147118 3.27005063 3.625 5.9375 C3.88539063 6.62714844 4.14578125 7.31679688 4.4140625 8.02734375 C5 10 5 10 5 13 C4.34 13 3.68 13 3 13 C0.78145293 8.37802694 -0.38281159 5.23175837 0 0 Z " fill="#E4E4E4" transform="translate(605,352)"/>
<path d="M0 0 C1.1446875 0.495 1.1446875 0.495 2.3125 1 C4.99069135 2.17436686 4.99069135 2.17436686 8 2 C8.33 3.32 8.66 4.64 9 6 C4.73303602 6 3.33303391 5.49977543 0 3 C0 2.01 0 1.02 0 0 Z " fill="#E53339" transform="translate(389,277)"/>
<path d="M0 0 C4.455 0.99 4.455 0.99 9 2 C9 2.99 9 3.98 9 5 C3.375 5.25 3.375 5.25 0 3 C0 2.01 0 1.02 0 0 Z " fill="#E9E7E8" transform="translate(856,399)"/>
<path d="M0 0 C0.66 0.33 1.32 0.66 2 1 C2.144375 1.928125 2.28875 2.85625 2.4375 3.8125 C3.01925353 7.10910335 3.8192772 8.53483509 6 11 C4.1875 10.8125 4.1875 10.8125 2 10 C0.1875 7.75 0.1875 7.75 -1 5 C-0.6875 2.1875 -0.6875 2.1875 0 0 Z " fill="#ECECEB" transform="translate(976,387)"/>
<path d="M0 0 C3.3 0.99 6.6 1.98 10 3 C4.76844369 5.61577816 3.40261966 4.6207859 -2 3 C-1.34 2.67 -0.68 2.34 0 2 C0 1.34 0 0.68 0 0 Z " fill="#EFEFF0" transform="translate(728,341)"/>
<path d="M0 0 C2.38125464 2.38125464 3.00186241 4.33857567 4.125 7.5 C4.47820312 8.4796875 4.83140625 9.459375 5.1953125 10.46875 C6 13 6 13 6 15 C5.34 15 4.68 15 4 15 C4 13.35 4 11.7 4 10 C3.34 10 2.68 10 2 10 C0.68373308 6.38026598 0 3.90432869 0 0 Z " fill="#F22A2E" transform="translate(411,227)"/>
<path d="M0 0 C1.32 0.33 2.64 0.66 4 1 C0.04 4.465 0.04 4.465 -4 8 C-4.33 7.34 -4.66 6.68 -5 6 C-3.35 4.02 -1.7 2.04 0 0 Z " fill="#DD2F33" transform="translate(326,459)"/>
<path d="M0 0 C1.485 0.99 1.485 0.99 3 2 C3 2.66 3 3.32 3 4 C3.99 4.33 4.98 4.66 6 5 C6 5.66 6 6.32 6 7 C6.66 7.33 7.32 7.66 8 8 C5.2980567 7.63487253 3.41609148 7.30130763 1.1875 5.6875 C0 4 0 4 0 0 Z " fill="#F0272D" transform="translate(379,264)"/>
<path d="M0 0 C0.33 0.66 0.66 1.32 1 2 C1.66 2.33 2.32 2.66 3 3 C1.54536519 3.38909985 0.08608793 3.76088029 -1.375 4.125 C-2.18710937 4.33382813 -2.99921875 4.54265625 -3.8359375 4.7578125 C-4.55007813 4.83773438 -5.26421875 4.91765625 -6 5 C-6.66 4.34 -7.32 3.68 -8 3 C-5.36 2.01 -2.72 1.02 0 0 Z " fill="#EFEFEE" transform="translate(567,341)"/>
<path d="M0 0 C3.7952131 1.49097658 5.61042731 3.75700849 8 7 C4.65980694 6.40353695 2.49529367 5.31705841 0 3 C0 2.01 0 1.02 0 0 Z " fill="#EC2A34" transform="translate(390,202)"/>
<path d="M0 0 C0 0.66 0 1.32 0 2 C-2.75078884 2.91692961 -4.35948913 3.10886083 -7.1875 3.0625 C-9.0746875 3.0315625 -9.0746875 3.0315625 -11 3 C-10.67 2.34 -10.34 1.68 -10 1 C-6.6322481 0.06451336 -3.4815554 -0.09947301 0 0 Z " fill="#F3292D" transform="translate(341,188)"/>
<path d="M0 0 C0.99 0 1.98 0 3 0 C4.85776765 3.13498292 5.20140476 5.37471432 5 9 C4.34 9 3.68 9 3 9 C2.01 6.03 1.02 3.06 0 0 Z " fill="#F2F1F2" transform="translate(608,365)"/>
<path d="M0 0 C1.32 0.33 2.64 0.66 4 1 C3.01 1.66 2.02 2.32 1 3 C-0.19232613 5.05003955 -0.19232613 5.05003955 -1 7 C-2.65 5.35 -4.3 3.7 -6 2 C-3.525 2.495 -3.525 2.495 -1 3 C-0.67 2.01 -0.34 1.02 0 0 Z " fill="#E8E5E8" transform="translate(856,343)"/>
<path d="M0 0 C0.350625 0.474375 0.70125 0.94875 1.0625 1.4375 C3.84163543 3.67873825 6.5144717 3.67117658 10 4 C8.3125 5.625 8.3125 5.625 6 7 C3.3125 6.5 3.3125 6.5 1 5 C0.1875 2.375 0.1875 2.375 0 0 Z " fill="#F1F1EF" transform="translate(750,397)"/>
<path d="M0 0 C2.6875 0.3125 2.6875 0.3125 5 1 C3.68 2.32 2.36 3.64 1 5 C-0.32 4.34 -1.64 3.68 -3 3 C-1.8125 1.4375 -1.8125 1.4375 0 0 Z " fill="#F5F4F4" transform="translate(910,398)"/>
<path d="M0 0 C0.66 0.33 1.32 0.66 2 1 C2.125 3.375 2.125 3.375 2 6 C0 8 0 8 -3.125 8.125 C-4.548125 8.063125 -4.548125 8.063125 -6 8 C-5.38125 7.79375 -4.7625 7.5875 -4.125 7.375 C-1.15346355 5.45224112 -0.86975341 3.33405473 0 0 Z " fill="#F2F2F2" transform="translate(1010,383)"/>
<path d="M0 0 C0.66 0 1.32 0 2 0 C3.8597711 2.59240819 5.57205423 5.14410847 7 8 C4.24542282 7.62005832 3.17979426 7.1926367 1.25 5.125 C0 3 0 3 0 0 Z " fill="#F1F0F1" transform="translate(707,379)"/>
<path d="M0 0 C1.41687119 4.25061356 0.19320039 6.71851625 -1 11 C-1.66 10.34 -2.32 9.68 -3 9 C-2.625 5.375 -2.625 5.375 -2 2 C-1.34 2 -0.68 2 0 2 C0 1.34 0 0.68 0 0 Z " fill="#F13940" transform="translate(281,238)"/>
<path d="M0 0 C0.33 1.32 0.66 2.64 1 4 C-0.9375 6.25 -0.9375 6.25 -3 8 C-3.99 7.67 -4.98 7.34 -6 7 C-4.02 4.69 -2.04 2.38 0 0 Z " fill="#E8E7E7" transform="translate(1021,392)"/>
<path d="M0 0 C0.99 0.33 1.98 0.66 3 1 C1.515 4.465 1.515 4.465 0 8 C-0.66 8 -1.32 8 -2 8 C-1.125 2.25 -1.125 2.25 0 0 Z " fill="#F3F2F3" transform="translate(683,363)"/>
<path d="M0 0 C0.33 0.99 0.66 1.98 1 3 C1.66 3 2.32 3 3 3 C4.4783226 5.95664519 4.06032783 8.74229737 4 12 C1.21366885 7.82050327 0 5.06624674 0 0 Z " fill="#E6E5E8" transform="translate(657,361)"/>
<path d="M0 0 C0.33 0 0.66 0 1 0 C1.33 3.3 1.66 6.6 2 10 C1.01 9.67 0.02 9.34 -1 9 C-1.09765625 2.84765625 -1.09765625 2.84765625 -1 1 C-0.67 0.67 -0.34 0.34 0 0 Z " fill="#D5D7D5" transform="translate(953,324)"/>
<path d="M0 0 C0.99 0.33 1.98 0.66 3 1 C3 3.31 3 5.62 3 8 C2.01 8.33 1.02 8.66 0 9 C0 6.03 0 3.06 0 0 Z " fill="#DFDFE0" transform="translate(913,346)"/>
<path d="M0 0 C0.33 0 0.66 0 1 0 C0.67 3.3 0.34 6.6 0 10 C-0.66 9.34 -1.32 8.68 -2 8 C-1.42307692 1.42307692 -1.42307692 1.42307692 0 0 Z " fill="#EF2A30" transform="translate(302,240)"/>
<path d="M0 0 C0.99 0.33 1.98 0.66 3 1 C0.6875 3.0625 0.6875 3.0625 -2 5 C-2.99 4.67 -3.98 4.34 -5 4 C-2.6875 1.9375 -2.6875 1.9375 0 0 Z " fill="#E52A2F" transform="translate(409,431)"/>
<path d="M0 0 C1.41377341 2.63904371 2.37240135 5.07120629 3 8 C1.68 7.34 0.36 6.68 -1 6 C-1.042721 4.33388095 -1.04063832 2.66617115 -1 1 C-0.67 0.67 -0.34 0.34 0 0 Z " fill="#DADCDA" transform="translate(942,415)"/>
<path d="M0 0 C0.5775 0.763125 1.155 1.52625 1.75 2.3125 C3.71703093 4.66200917 5.48476744 6.29323505 8 8 C5.2980567 7.63487253 3.41609148 7.30130763 1.1875 5.6875 C0 4 0 4 0 0 Z " fill="#E8E8E9" transform="translate(888,394)"/>
<path d="M0 0 C4.875 0.875 4.875 0.875 6 2 C6.04063832 3.66617115 6.042721 5.33388095 6 7 C1.125 2.25 1.125 2.25 0 0 Z " fill="#E2E1E2" transform="translate(736,345)"/>
<path d="M0 0 C2.31 0 4.62 0 7 0 C6 2 6 2 4.15234375 2.6328125 C3.42144531 2.79523438 2.69054687 2.95765625 1.9375 3.125 C0.83728516 3.37636719 0.83728516 3.37636719 -0.28515625 3.6328125 C-0.85105469 3.75398438 -1.41695312 3.87515625 -2 4 C-1.34 2.68 -0.68 1.36 0 0 Z " fill="#EDECED" transform="translate(678,342)"/>
<path d="M0 0 C2.4375 0.75 2.4375 0.75 5 2 C5.8125 4.125 5.8125 4.125 6 6 C1.125 3.375 1.125 3.375 0 0 Z " fill="#EF3A41" transform="translate(281,428)"/>
<path d="M0 0 C0.33 0 0.66 0 1 0 C1.6875 3.25 1.6875 3.25 2 7 C1.01 8.32 0.02 9.64 -1 11 C-0.67 7.37 -0.34 3.74 0 0 Z " fill="#E82E32" transform="translate(417,414)"/>
<path d="M0 0 C2.6855594 2.6855594 3.06049974 5.37621328 4 9 C3.01 8.67 2.02 8.34 1 8 C-0.35439668 5.29120665 -0.06501451 2.99066732 0 0 Z " fill="#DCDBDC" transform="translate(619,391)"/>
<path d="M0 0 C2.125 0.375 2.125 0.375 4 1 C3.38125 1.4125 2.7625 1.825 2.125 2.25 C-0.06768281 4.05573879 -0.92788417 5.4090534 -2 8 C-2.125 5.125 -2.125 5.125 -2 2 C-1.34 1.34 -0.68 0.68 0 0 Z " fill="#E2E1E3" transform="translate(606,343)"/>
<path d="M0 0 C3.465 1.98 3.465 1.98 7 4 C6.67 4.66 6.34 5.32 6 6 C3.5625 5.25 3.5625 5.25 1 4 C0.1875 1.875 0.1875 1.875 0 0 Z " fill="#FD373B" transform="translate(280,303)"/>
<path d="M0 0 C0.66 0 1.32 0 2 0 C2.625 2.875 2.625 2.875 3 6 C2.34 6.66 1.68 7.32 1 8 C0.67 5.36 0.34 2.72 0 0 Z " fill="#E9343A" transform="translate(415,242)"/>
<path d="M0 0 C-2.3125 1.5625 -2.3125 1.5625 -5 3 C-5.99 2.67 -6.98 2.34 -8 2 C-8 1.34 -8 0.68 -8 0 C-2.25 -1.125 -2.25 -1.125 0 0 Z " fill="#E83037" transform="translate(325,194)"/>
<path d="M0 0 C2.97 0 5.94 0 9 0 C9 0.99 9 1.98 9 3 C4.545 2.01 4.545 2.01 0 1 C0 0.67 0 0.34 0 0 Z " fill="#EB323A" transform="translate(359,190)"/>
<path d="" fill="#FFFFFF" transform="translate(0,0)"/>
<path d="" fill="#FF8080" transform="translate(0,0)"/>
<path d="" fill="#FFFFFF" transform="translate(0,0)"/>
<path d="" fill="#FFFFFF" transform="translate(0,0)"/>
</svg>
